<svg width="161" height="178" viewBox="0 0 140 155" fill="none" xmlns="http://www.w3.org/2000/svg">
<path d="M41.7393 50.4348C41.7393 50.4348 43.0419 53.0435 47.8262 53.0435C52.6106 53.0435 53.9132 50.4348 53.9132 50.4348" stroke="url(#paint0_linear)" stroke-width="6.1835" stroke-linecap="round"/>
<circle cx="39.1306" cy="34.7826" r="3.47826" fill="url(#paint1_linear)"/>
<circle cx="56.5222" cy="34.7826" r="3.47826" fill="url(#paint2_linear)"/>
<path d="M25.2043 48.0024C24.5 48.0024 23.9522 48.0024 23.3957 48.0024C21.9278 47.9504 20.5324 47.3516 19.4834 46.3235C18.4344 45.2955 17.8076 43.9124 17.7261 42.4459C17.613 40.3676 17.6217 38.2893 17.7261 36.2111C17.7657 34.6967 18.375 33.2529 19.4324 32.1681C20.4898 31.0833 21.9175 30.4372 23.4304 30.3589C23.9783 30.3589 24.5348 30.3589 25.1696 30.3589V25.2633C23.8232 25.0178 22.5491 24.4732 21.4414 23.6695C20.3337 22.8658 19.4206 21.8236 18.7696 20.6198C18.3365 19.8047 18.0426 18.923 17.9 18.0111C17.8498 17.6657 17.8749 17.3136 17.9737 16.9789C18.0725 16.6442 18.2425 16.3348 18.4722 16.0721C18.7019 15.8093 18.9858 15.5994 19.3043 15.4568C19.6228 15.3142 19.9684 15.2422 20.3174 15.2459H20.5435C21.1006 15.2563 21.6367 15.4609 22.059 15.8245C22.4813 16.1881 22.7634 16.6877 22.8565 17.2372C22.9166 17.7279 23.0995 18.1955 23.3883 18.5968C23.6771 18.9981 24.0625 19.32 24.5087 19.5328C25.6959 19.9579 26.9266 20.2495 28.1783 20.4024C28.0478 17.6198 27.8913 15.185 27.8391 12.698C27.787 10.2111 27.8391 7.75022 27.8391 5.19369H22.7348V8.06326C22.7348 8.32933 22.6824 8.59279 22.5806 8.83861C22.4787 9.08443 22.3295 9.30778 22.1414 9.49592C21.9532 9.68406 21.7299 9.8333 21.484 9.93512C21.2382 10.0369 20.9748 10.0893 20.7087 10.0893H19.8391C19.3048 10.0894 18.7921 9.87829 18.4126 9.50208C18.0331 9.12587 17.8176 8.61498 17.813 8.08065C17.813 6.01109 17.7696 3.94152 17.9087 1.88065C17.9522 1.27196 18.9348 0.619781 19.6478 0.211086C20.2048 0.0125246 20.8017 -0.0471722 21.387 0.0371726C30.3522 0.0371726 39.3087 0.0371726 48.2739 0.0371726C52.2565 0.0371726 55.2304 1.54152 57.1957 5.07196C57.4629 5.48163 57.8616 5.78826 58.3261 5.94152C61.0652 6.88065 63.813 7.75891 66.5609 8.66326C70.9087 10.1154 73.1609 13.1937 73.2043 17.8198C73.2043 19.3154 73.2043 20.8111 73.2043 22.3067C73.2043 23.7241 72.7087 24.8546 71.1783 25.298C71.041 25.3517 70.9216 25.4429 70.8339 25.5614C70.7463 25.6798 70.6938 25.8207 70.6826 25.9676C70.6826 27.4024 70.6826 28.8372 70.6826 30.3154C71.7087 30.3937 72.613 30.3937 73.4826 30.5415C74.7973 30.7851 75.9868 31.4774 76.8479 32.5003C77.709 33.5232 78.1885 34.8132 78.2043 36.1502C78.2565 38.1415 78.2043 40.1328 78.2043 42.1241C78.1435 45.698 75.7783 48.0111 72.187 48.072C71.7435 48.072 71.3174 48.072 70.5522 48.072C71.5783 55.898 68.813 61.5415 61.0739 64.2807C61.2739 65.0198 61.4304 65.6111 61.6043 66.1937C62.5956 69.5241 63.5609 72.872 64.6391 76.1763C64.8832 76.809 65.3588 77.3251 65.9696 77.6198C67.7087 78.4285 69.5696 79.072 71.5609 79.8459C70.9609 81.3937 70.3957 82.8806 69.7696 84.5067L66.2913 83.1937C65.5791 84.7557 64.7598 86.2665 63.8391 87.7154C62.1 90.1067 59.4913 90.8806 56.6739 90.9154C50.8768 90.985 45.0797 90.985 39.2826 90.9154C34.5174 90.872 31.3522 88.3067 30.1522 83.7589C30.1 83.5502 30.0304 83.3415 29.9348 83.0459C23.4652 85.472 17.1174 87.8024 10.8826 90.4807C6.97826 92.1328 5.08261 95.4633 5.04783 99.6633C4.97826 108.585 5.04783 117.498 5.04783 126.411C5.04783 131.628 5.04783 136.846 5.04783 142.063C5.04783 145.881 8.06522 147.524 13.0826 145.542C17.2672 143.861 21.7529 143.061 26.2604 143.189C30.7679 143.318 35.2006 144.373 39.2826 146.289C39.7087 146.489 39.787 146.42 40.2304 146.35V133.698H21.1957C17.5609 133.698 17.3696 132.42 17.8043 127.063C18.0566 123.219 18.013 119.361 17.6739 115.524C17.6443 115.279 17.6672 115.03 17.7412 114.794C17.8152 114.559 17.9386 114.341 18.1032 114.157C18.2677 113.973 18.4697 113.826 18.6955 113.726C18.9214 113.625 19.166 113.575 19.413 113.576H19.6217C20.419 113.574 21.1848 113.887 21.7518 114.448C22.3188 115.008 22.6409 115.77 22.6478 116.568V128.655H24.387C34.5261 128.655 44.6652 128.655 54.8217 128.655C56.9261 128.655 59.0217 129.037 61.3 129.263C60.7522 131.098 60.3 132.628 59.9087 133.915H45.5V146.237H55.3609V151.22C54.9435 151.22 54.5435 151.307 54.1522 151.307H9.48261C5.64783 151.307 2.52609 149.846 0.917391 146.237C0.328533 144.824 0.0326998 143.307 0.0478261 141.776C-0.015942 127.863 -0.015942 113.968 0.0478261 100.089C0.0478261 92.898 3.76956 87.5937 10.4826 84.9937C16.9348 82.5125 23.3928 80.0488 29.8565 77.6024C30.286 77.4653 30.6642 77.202 30.9419 76.8468C31.2195 76.4916 31.3837 76.061 31.413 75.6111C31.9529 72.5336 32.8276 69.5244 34.0217 66.6372C34.7696 64.898 34.8217 64.3067 33.6217 63.7937C30.4652 62.4372 27.8304 60.498 26.3174 57.2633C25.4152 55.049 25.0344 52.6569 25.2043 50.272C25.2043 49.5589 25.2043 48.8459 25.2043 48.0024ZM30.4217 25.3937C30.3626 25.5514 30.319 25.7145 30.2913 25.8806C30.2913 34.7937 30.2391 43.7067 30.2913 52.6198C30.2927 53.8773 30.669 55.1058 31.3723 56.1482C32.0755 57.1907 33.0737 57.9998 34.2391 58.472C37.9957 60.2111 41.7087 62.0806 45.3348 64.1067C47.4304 65.2806 49.2391 64.9763 51.4217 63.3589C53.9142 61.6127 56.651 60.2443 59.5435 59.298C63.6565 57.872 65.5783 55.2893 65.5522 51.3328C65.5522 43.1937 65.5522 35.0459 65.5522 26.898V25.3937H30.4217ZM39.4391 66.4546C37.9696 71.3415 36.587 75.8633 35.2478 80.3676C34.2391 83.8024 36.2565 86.1067 40.1435 85.7154C45.3499 85.2361 50.5893 85.2361 55.7957 85.7154C59.6304 86.0372 61.5261 83.7763 60.5087 80.3154C59.3435 76.3763 58.1522 72.4893 56.9696 68.5154C56.7957 67.9241 56.613 67.3328 56.3174 66.4024C50.6739 70.8893 45.013 70.8111 39.4565 66.4024L39.4391 66.4546ZM42.7783 20.1763C42.7783 16.0633 42.8391 12.098 42.7783 8.14152C42.6832 7.36511 42.3137 6.64827 41.7365 6.12045C41.1592 5.59262 40.4122 5.28859 39.6304 5.26326C37.4043 5.11543 35.1522 5.26326 32.8217 5.26326C32.8217 9.27196 32.7261 13.185 32.8652 17.098C32.9297 17.9698 33.3266 18.7835 33.9739 19.371C34.6212 19.9585 35.4695 20.2748 36.3435 20.2546C38.413 20.3589 40.4913 20.2546 42.7435 20.2546L42.7783 20.1763ZM68.0043 20.2546C68.0043 18.9328 68.0565 17.8111 68.0043 16.672C67.9624 16.1161 67.7659 15.5829 67.4371 15.1328C67.1083 14.6826 66.6603 14.3332 66.1435 14.1241C63.5348 13.0546 60.8304 12.1589 58.0913 11.1676V20.185L68.0043 20.2546ZM52.813 20.2546C52.813 16.1589 52.9 12.1937 52.7348 8.23717C52.6617 7.75745 52.4825 7.30009 52.2102 6.89843C51.9379 6.49677 51.5794 6.16094 51.1609 5.91543C49.8446 5.43297 48.4755 5.10895 47.0826 4.95022C48.5956 10.2372 47.4826 15.2806 48.013 20.2459L52.813 20.2546ZM70.6652 35.5763V42.7676C73.1 43.0807 73.1174 43.0633 73.1174 40.7415V37.3676C73.1174 35.2893 72.8565 35.0893 70.6652 35.5763ZM25.0652 42.7589V35.4807C22.7 35.2372 22.6739 35.2633 22.6739 37.4893V40.8633C22.6739 43.0372 22.6739 43.0633 25.0565 42.7589" fill="#FD7CAE"/>
<path d="M47.4174 117.268C48.261 118.248 49.1333 119.184 50.0531 120.061C52.8867 122.791 56.1468 125.102 60.3458 127.258L60.3839 127.236L64.4758 124.841L70.1762 121.488L74.0845 119.189C73.3363 119.126 72.5923 119.02 71.8563 118.871C67.3644 117.968 63.0768 116.241 59.2091 113.774C57.18 112.487 55.2755 111.012 53.5206 109.367C52.9701 108.855 52.4458 108.41 51.9477 108.01C43.5639 101.407 42.2151 111.236 47.4174 117.268Z" fill="#FD7CAE"/>
<path d="M98.5714 103.33C98.0185 106.062 97.5848 109.006 97.1916 111.952C96.9533 113.772 96.715 115.597 96.5029 117.383C96.0119 121.278 95.5139 124.973 94.8347 127.986C94.0435 131.463 92.9973 134.031 91.4149 134.931C86.0648 138.035 95.1326 140.837 95.1326 140.837C95.1326 140.837 100.406 142.274 106.157 141.268C108.817 140.842 111.344 139.809 113.545 138.248C115.385 136.899 116.906 135.159 118.001 133.152C119.305 130.873 120.097 128.335 120.322 125.715C120.727 121.11 119.474 117.218 121.004 112.835C121.585 111.159 122.572 109.427 124.207 107.552C125.684 105.857 127.693 104.046 130.415 102.077C130.713 101.862 131.019 101.645 131.332 101.426C138.782 96.2336 135.653 88.1075 128.97 84.6732C125.315 82.7955 120.649 82.7572 116.102 84.0313C112.214 85.1324 108.617 87.0838 105.568 89.7457C102.999 92.0185 100.997 94.7559 99.9989 97.7592C99.4116 99.5854 98.9349 101.446 98.5714 103.33Z" fill="#FD7CAE"/>
<path d="M105.58 89.7433C111.061 93.1561 121.604 100.458 124.214 107.55C125.691 105.854 127.7 104.044 130.422 102.075C129.428 98.0442 126.061 88.2752 116.123 84.0289C112.232 85.1287 108.632 87.0801 105.58 89.7433Z" fill="#7D1B5C"/>
<path d="M98.5712 103.33C98.0183 106.062 97.5846 109.006 97.1914 111.952C104.262 114.038 117.448 118.77 120.329 125.701C120.734 121.096 119.481 117.204 121.011 112.821C117.786 108.773 112.248 103.897 103.981 103.241C102.18 103.07 100.366 103.1 98.5712 103.33Z" fill="#7D1B5C"/>
<path d="M96.5022 117.395C96.0112 121.289 95.5132 124.985 94.834 127.998C99.1498 131.688 104.007 136.557 106.163 141.268C108.823 140.842 111.35 139.809 113.551 138.248C112.836 133.885 110.081 123.617 99.9362 118.787C98.8232 118.248 97.676 117.783 96.5022 117.395Z" fill="#7D1B5C"/>
<path d="M59.2995 132.807C56.5018 133.006 55.0719 136.955 55.1029 137.69C55.0768 137.671 55.0497 137.654 55.0218 137.637L54.9623 137.592H54.948L54.8121 137.501L54.7907 137.486L54.7168 137.441L54.6548 137.405L54.5953 137.364L54.4642 137.293L54.4046 137.266L54.3736 137.249L54.2926 137.213C54.233 137.187 54.1711 137.163 54.1115 137.142C54.1052 137.14 54.0987 137.14 54.0924 137.142C54.0143 137.112 53.9348 137.086 53.8541 137.065H53.8231C53.7501 137.046 53.6762 137.029 53.6015 137.015C53.4646 136.989 53.326 136.974 53.1868 136.969H53.0248C52.9485 136.969 52.8723 136.969 52.7984 136.969H52.715C52.6602 136.969 52.6006 136.981 52.5458 136.991L52.4671 137.003L52.2598 137.051L52.1693 137.072L52.0048 137.125C51.9579 137.139 51.9117 137.156 51.8666 137.175C51.8285 137.19 51.7903 137.202 51.7498 137.221L51.6331 137.271L51.5806 137.295L51.4972 137.316L51.3542 137.391L51.3066 137.415L51.2494 137.448L51.1707 137.494C51.1088 137.532 51.0468 137.57 50.9872 137.611L50.9539 137.637C50.9038 137.671 50.8562 137.707 50.8085 137.743L50.7465 137.791L50.7227 137.81L50.6369 137.879L50.594 137.918L50.5749 137.934L50.5011 138.001L50.4177 138.08C50.3628 138.136 50.308 138.193 50.258 138.25L50.2342 138.277C50.1984 138.318 50.1627 138.361 50.1317 138.404C50.1007 138.447 50.0554 138.504 50.0221 138.555L50.003 138.583C49.9768 138.624 49.9506 138.665 49.9291 138.706C49.9077 138.746 49.9172 138.727 49.9124 138.734C49.8858 138.781 49.8619 138.829 49.8409 138.878C49.8344 138.892 49.8288 138.906 49.8243 138.921C49.7933 138.991 49.7647 139.062 49.7409 139.134C49.7266 139.17 49.7146 139.208 49.7027 139.247L49.6527 139.407C49.6527 139.45 49.6312 139.491 49.6193 139.537L49.5836 139.69L49.555 139.829C49.555 139.879 49.5383 139.932 49.5311 139.982C49.524 140.032 49.5145 140.08 49.5073 140.131L49.493 140.267C49.493 140.38 49.4716 140.507 49.4668 140.617V140.715C49.4668 140.787 49.4668 140.861 49.4668 140.935V140.988C49.4953 142.222 49.7106 143.445 50.1055 144.614C50.1508 144.76 50.2008 144.908 50.2508 145.057C50.4034 145.498 50.5749 145.936 50.7608 146.367C50.8562 146.583 50.9515 146.798 51.0516 147.009C51.1826 147.289 51.3232 147.567 51.4662 147.835C51.6092 148.103 51.757 148.369 51.9095 148.625C52.1001 148.944 52.2932 149.251 52.4934 149.54C52.5315 149.6 52.572 149.658 52.6125 149.713C52.7722 149.94 52.9342 150.156 53.0891 150.359C53.318 150.647 53.5622 150.922 53.8208 151.183C54.218 151.61 54.6982 151.95 55.2316 152.182C55.2888 152.201 55.3436 152.223 55.4008 152.239L55.539 152.283L55.6415 152.309H55.6581L55.7153 152.326H55.7797L55.8369 152.338H55.8917L55.9918 152.354L56.0919 152.369H56.192H56.2897H56.3659C56.4636 152.369 56.5613 152.369 56.6543 152.369H56.7973L56.9117 152.357H56.9665L57.0785 152.34C57.1677 152.326 57.256 152.307 57.343 152.283C57.3883 152.283 57.4336 152.259 57.4765 152.247L57.6051 152.206C57.6464 152.194 57.6869 152.179 57.7267 152.163L57.8411 152.12H57.8554C57.9245 152.091 57.9888 152.062 58.0508 152.031C58.1127 152 58.139 151.99 58.1819 151.966L58.2152 151.95C58.3626 151.883 58.5066 151.808 58.6466 151.727L58.6823 151.703L58.761 151.648L58.8372 151.59L58.9159 151.53L58.9802 151.48L59.066 151.406L59.1494 151.337L59.2066 151.284C59.2638 151.231 59.3138 151.183 59.3567 151.138L59.4163 151.08C59.5045 150.984 59.5688 150.913 59.6046 150.869L59.6332 150.834L59.8882 150.781C65.722 149.605 76.4675 151.095 79.9612 151.633C80.6523 151.741 81.0622 151.811 81.0884 151.815L80.2996 151.552L80.8858 151.401C80.9502 151.547 81.0169 151.686 81.0884 151.815C81.247 152.125 81.4538 152.407 81.7008 152.651C83.736 154.579 86.2883 153.13 86.2883 153.13C96.1878 158.042 101.064 148.98 101.064 148.98C102.987 144.149 102.355 138.49 100.785 133.264C100.14 131.141 99.3602 129.061 98.4518 127.037C96.2784 122.156 92.3033 115.922 91.4168 114.603L76.1434 114.778C76.1434 114.778 66.7849 114.337 66.3845 114.67C64.6234 120.161 58.5322 126.985 59.2995 132.807Z" fill="#FD7CAE"/>
<path d="M63.8252 133.528C63.8252 139.719 68.3531 142.947 73.9368 142.947C79.5204 142.947 83.6694 139.711 84.0483 133.528C84.5392 125.433 79.5204 120.526 73.9368 120.526C68.3531 120.526 63.8252 125.433 63.8252 133.528Z" fill="white"/>
<path d="M49.4521 140.859V140.909C49.4806 142.143 49.696 143.366 50.0908 144.535C50.1361 144.681 50.1861 144.829 50.2362 144.976C50.3887 145.416 50.5603 145.857 50.7462 146.286C50.8415 146.504 50.9368 146.717 51.0369 146.927C51.168 147.21 51.3086 147.485 51.4516 147.756C51.5946 148.027 51.7423 148.29 51.8948 148.546C52.0855 148.865 52.2785 149.172 52.4787 149.461L52.5979 149.634C52.7575 149.859 52.9196 150.074 53.0745 150.278C53.3021 150.567 53.5464 150.842 53.8061 151.102C54.2026 151.529 54.683 151.869 55.2169 152.101C55.2741 152.122 55.3289 152.144 55.3861 152.16C55.4433 152.177 55.4791 152.192 55.5243 152.201L55.6268 152.228H55.6435L55.7007 152.242L55.765 152.256L55.8222 152.268H55.877C55.9098 152.277 55.9433 152.283 55.9771 152.285L56.0772 152.299L56.1773 152.311H56.275C56.3004 152.314 56.3259 152.314 56.3513 152.311C56.449 152.311 56.5467 152.311 56.6396 152.311L56.7826 152.299L56.897 152.287H56.9518L57.0638 152.271C57.1544 152.256 57.2426 152.237 57.3283 152.216L57.4618 152.18L57.5905 152.139L57.712 152.096L57.8264 152.053H57.8407C57.9098 152.026 57.9742 151.995 58.0361 151.966L58.1672 151.902L58.2006 151.883C58.3537 151.811 58.5025 151.73 58.6462 151.641L58.682 151.619L58.7606 151.562L58.8369 151.507L58.9155 151.447L58.9798 151.394L59.0656 151.322L59.149 151.25L59.2062 151.198C59.2634 151.148 59.3135 151.1 59.3564 151.054L59.416 150.994C59.5041 150.901 59.5685 150.826 59.6042 150.783L59.6328 150.747L59.8878 150.692C65.7217 149.516 76.4672 151.006 79.9608 151.547C80.6519 151.655 81.0618 151.725 81.088 151.729C81.2467 152.039 81.4534 152.321 81.7005 152.565C83.7357 154.481 86.288 153.044 86.288 153.044C96.1874 157.956 101.063 148.894 101.063 148.894C102.986 144.063 102.355 138.404 100.784 133.178C97.8046 132.968 94.8141 133.394 92.0098 134.428L91.7715 134.514C91.1591 134.754 90.0152 136.859 88.0777 139.204C85.8137 141.927 82.5012 144.964 77.7111 145.699C73.8982 146.293 69.8874 146.037 65.8242 145.416C58.9775 144.372 59.9307 136.852 59.9307 136.852L59.914 134.285V133.283C57.8741 133.329 56.1439 135.087 55.6483 137.803L55.6054 138.042L55.5696 138.006C55.5196 137.956 55.4695 137.908 55.4195 137.865L55.3098 137.772C55.2503 137.721 55.1955 137.676 55.1359 137.63L55.1192 137.618C55.093 137.597 55.0668 137.575 55.0382 137.556L54.9786 137.513L54.9643 137.501L54.8285 137.412L54.807 137.398L54.7331 137.352L54.6712 137.317L54.614 137.283L54.4829 137.214L54.4233 137.185L54.3923 137.17L54.3113 137.135L54.1302 137.063H54.1111C54.0331 137.032 53.9535 137.006 53.8728 136.984H53.8418L53.6202 136.933C53.4833 136.908 53.3447 136.892 53.2056 136.888H53.0435C52.9672 136.888 52.891 136.888 52.8171 136.9H52.7337C52.6789 136.9 52.6193 136.914 52.5645 136.924L52.4859 136.936C52.4144 136.948 52.3453 136.964 52.2785 136.981L52.188 137.005L52.0235 137.058L51.8853 137.106L51.7685 137.151L51.6518 137.204L51.5993 137.226L51.5564 137.249L51.4135 137.321L51.3658 137.348L51.3086 137.381L51.23 137.427L51.0465 137.546L51.0131 137.57L50.8677 137.676L50.8058 137.724L50.7819 137.743L50.6961 137.815L50.6532 137.851C50.6475 137.858 50.6411 137.864 50.6342 137.87L50.5603 137.937L50.4769 138.016C50.4221 138.071 50.3673 138.131 50.3172 138.186L50.2934 138.212C50.2576 138.255 50.2219 138.296 50.1909 138.339C50.1599 138.382 50.1147 138.442 50.0813 138.492L50.0622 138.521C50.036 138.562 50.0098 138.603 49.9883 138.643C49.9819 138.652 49.9763 138.662 49.9717 138.672C49.9455 138.718 49.9216 138.765 49.9002 138.813C49.8936 138.827 49.888 138.842 49.8835 138.856C49.8525 138.926 49.8239 138.998 49.8001 139.07C49.7763 139.141 49.7739 139.146 49.762 139.182L49.7119 139.343C49.7119 139.386 49.6905 139.429 49.6785 139.472L49.6428 139.628L49.6142 139.764C49.6142 139.814 49.5975 139.867 49.5904 139.92C49.5832 139.973 49.5737 140.018 49.5665 140.066L49.5522 140.205C49.5522 140.317 49.5308 140.444 49.526 140.552V140.65C49.4545 140.71 49.4545 140.782 49.4521 140.859Z" fill="#FD7CAE"/>
<path d="M91.5836 123.287C91.5836 123.287 89.3411 142.665 79.2962 144.181C71.9658 144.7 72.4329 138.502 72.7665 137.772C74.2226 134.606 78.6552 133.221 81.0097 129.976C81.6055 129.157 82.2227 127.782 82.9496 126.808C85.1635 123.843 90.4683 123.364 90.4683 123.364L91.5836 123.287Z" fill="#FD7CAE"/>
<path d="M91.7506 122.427C91.5959 124.666 91.2901 126.892 90.8355 129.09C90.3589 131.281 89.7155 133.473 88.593 135.46C87.4777 137.405 86.2695 139.324 84.7252 140.993C83.9522 141.837 83.0706 142.574 82.1038 143.184C81.618 143.489 81.105 143.748 80.5715 143.958C80.3069 144.068 80.0305 144.154 79.766 144.236C79.5014 144.317 79.2321 144.415 78.9533 144.475C78.3899 144.629 77.8068 144.699 77.2232 144.681C76.6285 144.663 76.0434 144.526 75.5026 144.276C74.9664 144.027 74.4751 143.691 74.0489 143.28C73.8379 143.081 73.6374 142.87 73.4483 142.65C73.2561 142.428 73.0778 142.193 72.9145 141.948C72.591 141.436 72.3776 140.86 72.2877 140.26C72.1963 139.67 72.2027 139.069 72.3068 138.48C72.4032 137.895 72.5788 137.325 72.8287 136.787C72.9565 136.514 73.1114 136.254 73.291 136.011C73.4651 135.77 73.6597 135.545 73.8725 135.338C74.2951 134.944 74.7503 134.587 75.2333 134.27C75.7099 133.952 76.1722 133.657 76.6369 133.355C77.5699 132.77 78.4552 132.11 79.2846 131.384C80.1084 130.651 80.8442 129.824 81.477 128.92C82.1113 128.008 82.6526 127.034 83.0928 126.012L83.2119 126.063C82.8125 127.115 82.3113 128.126 81.7153 129.08C81.1102 130.037 80.3978 130.921 79.592 131.715C78.7787 132.499 77.9018 133.215 76.9706 133.853C76.065 134.507 75.0998 135.087 74.3491 135.829C74.1667 136.016 74.0001 136.218 73.8511 136.433C73.6977 136.638 73.566 136.859 73.4579 137.091C73.2361 137.569 73.0805 138.075 72.9955 138.595C72.9065 139.111 72.8944 139.638 72.9598 140.157C73.0273 140.666 73.1985 141.155 73.4626 141.594C74.0417 142.463 74.8019 143.299 75.7361 143.749C76.7068 144.178 77.7964 144.251 78.8151 143.955C79.0749 143.891 79.3299 143.804 79.5968 143.716C79.8637 143.627 80.121 143.553 80.3689 143.45C80.8726 143.251 81.3568 143.006 81.8154 142.717C82.7319 142.124 83.5647 141.409 84.2915 140.593C85.0283 139.774 85.7053 138.902 86.3171 137.985C86.9415 137.072 87.5254 136.126 88.0806 135.163C88.6334 134.211 89.1007 133.211 89.4771 132.175C89.8641 131.134 90.1951 130.073 90.4685 128.996C91.0252 126.836 91.3999 124.632 91.5886 122.408L91.7506 122.427Z" fill="#7D1B5C"/>
<path d="M81.6957 152.862L81.8244 152.979C83.5974 154.519 86.3523 153.605 86.9886 151.334C87.3556 150.01 87.4962 148.628 87.7321 147.306C87.7618 147.138 87.7762 146.968 87.775 146.798C89.4075 136.117 83.271 137.197 81.8935 138.5C78.8312 141.388 79.5175 150.805 81.6957 152.862Z" fill="#FD7CAE"/>
<path fill-rule="evenodd" clip-rule="evenodd" d="M86.3204 152.849C86.0368 153.045 85.7276 153.201 85.4017 153.312C85.0771 153.404 84.7412 153.45 84.4039 153.447C84.4018 153.447 84.3997 153.447 84.3975 153.447C84.0585 153.462 83.7189 153.437 83.3856 153.373L83.3835 153.372C83.3125 153.36 83.2436 153.338 83.1787 153.307C83.1737 153.304 83.1686 153.302 83.1634 153.3C83.088 153.275 83.014 153.246 82.9417 153.214C82.8037 153.139 82.6712 153.054 82.5453 152.961C82.5181 152.94 82.4899 152.919 82.4636 152.9L82.4448 152.886C82.4129 152.863 82.3839 152.841 82.3572 152.818L82.1758 152.65C82.1749 152.649 82.174 152.649 82.1731 152.648L82.086 152.571L82.0054 152.481L81.8415 152.298C81.8152 152.264 81.7894 152.232 81.7643 152.201C81.6836 152.101 81.6095 152.009 81.5491 151.904C81.5144 151.844 81.4771 151.785 81.4413 151.728C81.4313 151.713 81.4214 151.697 81.4118 151.681C81.3666 151.609 81.3245 151.54 81.288 151.467L81.2868 151.465C80.9642 150.858 80.7103 150.216 80.53 149.552L80.5296 149.551C80.3411 148.883 80.2188 148.198 80.1647 147.506L80.1647 147.506C80.1055 146.807 80.0889 146.109 80.0889 145.392L80.0889 145.392C80.0844 143.988 80.2545 142.589 80.595 141.228C80.7599 140.566 81.0193 139.932 81.365 139.346L81.3661 139.344C81.6855 138.782 82.1627 138.326 82.7382 138.035C83.3377 137.785 83.9964 137.715 84.6347 137.833C84.6358 137.834 84.6369 137.834 84.638 137.834C84.9612 137.885 85.2764 137.978 85.5761 138.11C85.7234 138.176 85.8656 138.252 86.0017 138.339C86.1356 138.428 86.2622 138.527 86.3804 138.635L86.3813 138.636C86.6233 138.854 86.8295 139.11 86.9922 139.393L86.9933 139.395C87.1651 139.682 87.3025 139.988 87.4027 140.308L87.4028 140.308C87.6084 140.967 87.7298 141.65 87.764 142.34C87.7995 143.045 87.7995 143.752 87.764 144.457L87.764 144.457C87.7484 144.793 87.7243 145.13 87.7002 145.469L87.6957 145.532C87.6701 145.891 87.6449 146.252 87.6305 146.613C87.6291 146.648 87.6416 146.681 87.665 146.706C87.6884 146.732 87.7209 146.746 87.7552 146.747L87.8505 146.749C87.9119 146.751 87.9657 146.709 87.9788 146.648C88.2883 145.227 88.4317 143.774 88.4059 142.32L88.4059 142.318C88.3818 141.575 88.2605 140.839 88.0453 140.129C87.9341 139.762 87.7807 139.41 87.5881 139.08C87.3965 138.74 87.1536 138.433 86.8682 138.168C86.7247 138.034 86.5718 137.911 86.4107 137.8L86.4083 137.798C86.2449 137.69 86.0734 137.596 85.8952 137.515C85.5441 137.354 85.1734 137.24 84.7927 137.175C84.0221 137.026 83.2249 137.105 82.4982 137.403C82.4965 137.404 82.4948 137.405 82.4931 137.406C82.1308 137.573 81.7976 137.797 81.506 138.07L81.5053 138.071C81.2227 138.34 80.9755 138.643 80.7697 138.975L80.7692 138.976C80.3767 139.62 80.0817 140.318 79.8941 141.049L79.894 141.05C79.5357 142.469 79.3575 143.928 79.3634 145.392C79.3538 146.118 79.3778 146.853 79.4401 147.575C79.4991 148.313 79.6298 149.043 79.8303 149.754C80.0254 150.474 80.3013 151.169 80.6526 151.827C80.9993 152.527 81.5203 153.125 82.165 153.563C82.1673 153.564 82.1695 153.566 82.1718 153.567C82.3455 153.67 82.5294 153.754 82.7205 153.818C82.7224 153.818 82.7243 153.819 82.7261 153.819C82.8213 153.846 82.9177 153.869 83.0151 153.886C83.1152 153.912 83.218 153.926 83.3213 153.93C83.6925 153.945 84.0643 153.934 84.4338 153.896C84.8066 153.865 85.1739 153.787 85.527 153.664C85.5293 153.663 85.5316 153.662 85.5338 153.661C85.8777 153.518 86.2025 153.333 86.5005 153.109C86.5537 153.069 86.5676 152.995 86.5327 152.938L86.5017 152.888C86.4833 152.858 86.4535 152.837 86.4192 152.83C86.385 152.822 86.3492 152.83 86.3204 152.849Z" fill="#7D1B5C"/>
<path fill-rule="evenodd" clip-rule="evenodd" d="M91.5785 134.486C91.6107 134.466 91.6499 134.462 91.6858 134.474L91.6929 134.476C91.7391 134.492 91.7726 134.532 91.7793 134.581C91.786 134.629 91.7647 134.677 91.7244 134.705C91.1439 135.101 90.6309 135.589 90.2052 136.149L90.2043 136.151C89.772 136.705 89.4116 137.313 89.1318 137.959L89.1315 137.96C89.0974 138.038 89.0669 138.118 89.036 138.201C89.0309 138.215 89.0257 138.229 89.0204 138.243C88.9951 138.312 88.969 138.383 88.9409 138.452L88.8526 138.698L88.7803 138.948C88.7592 139.029 88.738 139.103 88.7173 139.177C88.6911 139.269 88.6655 139.36 88.6414 139.457L88.4929 140.234L88.4649 140.491L88.4648 140.492L88.4103 141.018C88.3871 141.366 88.3917 141.724 88.3988 142.07C88.3996 142.105 88.3864 142.138 88.3623 142.163C87.6098 142.935 87.8938 140.27 87.9131 140.14C87.9136 140.137 87.9144 140.133 87.9153 140.129L88.1083 139.329C88.1088 139.327 88.1094 139.325 88.11 139.323C88.1475 139.196 88.1903 139.07 88.2318 138.948C88.2492 138.897 88.2663 138.846 88.2828 138.797L88.2829 138.797L88.3685 138.536C88.3697 138.533 88.371 138.529 88.3724 138.526L88.4803 138.273C88.5025 138.222 88.5246 138.17 88.5471 138.117C88.5964 138.001 88.6475 137.881 88.7042 137.767C89.0268 137.102 89.4331 136.482 89.9132 135.921C90.389 135.357 90.9512 134.873 91.5785 134.486Z" fill="#7D1B5C"/>
<path fill-rule="evenodd" clip-rule="evenodd" d="M55.1424 137.625C55.1819 137.588 55.2403 137.58 55.2883 137.605C55.9514 137.949 56.5427 138.418 57.0301 138.986C57.5218 139.548 57.9298 140.178 58.2414 140.858L58.2415 140.858C58.5515 141.538 58.7696 142.257 58.89 142.995L58.9375 143.265C58.9381 143.269 58.9386 143.273 58.9389 143.276L58.9629 143.551L59.0059 144.098C59.0142 144.225 59.0113 144.358 59.0087 144.483C59.0074 144.543 59.0062 144.6 59.0062 144.655V144.659C59.0062 144.838 59.0062 145.024 58.9838 145.214C58.9762 145.279 58.9216 145.327 58.8567 145.327H58.8138C58.7512 145.327 58.6978 145.282 58.6875 145.22C58.6575 145.039 58.637 144.858 58.6171 144.682L58.6163 144.675C58.596 144.496 58.5762 144.322 58.5472 144.151L58.4493 143.623L58.4043 143.361L58.3528 143.103C58.3102 142.931 58.2674 142.759 58.2269 142.587C58.2012 142.477 58.1651 142.376 58.1265 142.268C58.1065 142.212 58.0857 142.154 58.0654 142.092L58.0652 142.091L57.9857 141.845L57.8902 141.61C57.8663 141.554 57.8444 141.5 57.8231 141.447C57.7796 141.339 57.7388 141.238 57.6892 141.14C57.6884 141.139 57.6877 141.137 57.687 141.135C57.3976 140.501 57.0396 139.9 56.6195 139.344L56.6189 139.344C56.1992 138.779 55.7079 138.273 55.1575 137.837C55.1407 137.824 55.1275 137.807 55.1191 137.787L55.1119 137.77C55.0906 137.72 55.1028 137.662 55.1424 137.625Z" fill="#7D1B5C"/>
<path d="M97.7718 89.8947C97.8053 89.8968 98.677 89.9403 99.5911 89.6994C100.916 89.3452 101.697 88.5221 101.79 87.3897L101.813 87.1437L101.648 86.9554C100.877 86.0669 100.752 85.6435 100.734 85.5138C102.481 82.8893 103.682 79.2812 103.651 76.716C103.667 75.8955 103.378 75.1058 102.86 74.4902C102.334 73.874 101.609 73.4832 100.816 73.395L100.799 73.3939C98.8844 73.2172 95.9103 73.5991 93.0376 74.3929C91.1658 74.9017 87.8284 76.0134 86.4752 77.6823L97.7718 89.8947Z" fill="#FD7CAE"/>
<path d="M99.7947 77.7833C99.8418 77.1501 99.7533 76.9768 99.6858 76.902C99.6178 76.836 99.5303 76.7953 99.4402 76.7986L99.4407 76.7898C99.1087 76.7783 98.775 76.7932 98.4397 76.8345C98.114 76.8675 97.7961 76.9187 97.4772 76.9875C96.8489 77.1169 96.2268 77.2908 95.6111 77.5093C95.0043 77.7283 94.4139 77.9748 93.8298 78.2659C93.5335 78.4068 93.2541 78.5663 92.9663 78.7166C92.6784 78.8668 92.4069 79.0445 92.127 79.2129C92.0432 79.2608 91.9583 79.3263 91.8997 79.4022C91.8407 79.4869 91.7901 79.581 91.7663 79.6767C91.742 79.7813 91.7357 79.8869 91.7478 79.9848C91.7593 80.0915 91.7894 80.1906 91.8473 80.2736C91.9464 80.4211 95.1534 83.9219 96.2926 85.1668C96.5124 85.4011 96.8734 85.3791 97.0606 85.1078C99.0882 82.2017 99.7428 78.4958 99.7947 77.7833Z" fill="#7D1B5C"/>
<path d="M60.1677 89.6374C60.1342 89.6395 59.2624 89.683 58.3483 89.4421C57.0238 89.0878 56.2429 88.2648 56.1495 87.1323L56.1263 86.8863L56.2915 86.698C57.062 85.8096 57.1879 85.3862 57.2053 85.2565C55.4584 82.632 54.2576 79.0239 54.2883 76.4587C54.2726 75.6382 54.5614 74.8485 55.0792 74.2329C55.6055 73.6167 56.3302 73.2259 57.1236 73.1377L57.1404 73.1366C59.0551 72.9599 62.0291 73.3417 64.9018 74.1356C66.7737 74.6444 70.1111 75.7561 71.4642 77.4249L60.1677 89.6374Z" fill="#FD7CAE"/>
<path d="M78.2509 75.39L78.2478 75.3899C78.2431 75.3897 78.2365 75.3895 78.2281 75.3893C78.2112 75.3889 78.1871 75.3883 78.1559 75.3878C78.0935 75.3868 78.0031 75.3861 77.8869 75.387C77.6546 75.3887 77.3192 75.3967 76.8999 75.4218C76.0617 75.4718 74.8854 75.59 73.5248 75.8624C70.8096 76.4062 67.3264 77.5716 64.3398 80.0703C61.3899 82.5383 59.6592 84.9941 58.5885 87.0573C57.7646 88.6448 57.3262 90.02 57.0396 90.9189C56.9571 91.1777 56.8872 91.397 56.8243 91.5705C56.5398 92.3554 55.6097 94.2323 54.4774 96.008C53.9136 96.8923 53.3111 97.733 52.7271 98.3905C52.1256 99.0676 51.6072 99.4766 51.2216 99.6058L50.7529 99.7628L50.8413 100.251C51.7499 105.273 55.7528 108.02 58.3559 109.806L58.3561 109.806C58.6196 109.987 58.8687 110.158 59.0989 110.32C65.6279 116.086 72.0483 116.686 75.9916 117.054L76.0455 117.059L76.0468 117.059C79.2282 117.369 82.5425 117.214 85.5284 116.655C88.5068 116.098 91.1996 115.133 93.1087 113.79L93.114 113.786L93.1192 113.782C93.7761 113.298 94.4742 112.815 95.1936 112.317C98.6443 109.93 102.585 107.204 104.82 102.303L105.096 101.697L104.459 101.514C103.684 101.292 102.85 100.901 102.162 100.403C101.465 99.8981 100.976 99.3275 100.791 98.7703L100.791 98.7701C100.644 98.3267 100.541 97.7157 100.411 96.9482C99.991 94.4636 99.294 90.3396 95.9312 84.9574C90.7925 76.7337 82.3261 75.4736 78.2509 75.39Z" fill="#FD7CAE"/>
<path d="M84.0628 116.983C87.89 116.516 90.0992 115.499 90.4853 115.307C92.4823 114.337 96.0522 112.287 95.5565 107.313C94.8416 100.003 85.9692 103.502 86.3434 104.633C86.3434 104.633 89.532 110.163 89.3914 111.489C89.2246 113.082 84.0628 116.983 84.0628 116.983Z" fill="white"/>
<path d="M89.42 110.369C88.8552 116.356 86.3911 117.685 76.239 117.185C63.935 116.576 64.6976 111.652 65.3196 107.08C65.9415 102.508 71.835 99.5386 78.491 100.446C85.1471 101.354 89.8657 105.775 89.42 110.369Z" fill="white"/>
<path d="M67.5192 115.479C64.4902 114.521 61.528 112.335 61.1276 112.067C58.7445 110.474 56.4115 106.345 57.7365 103.907C60.6463 98.5471 65.9797 102.444 66.9496 103.667C66.9496 103.667 62.853 109.305 62.8006 110.637C62.7363 112.227 67.5192 115.479 67.5192 115.479Z" fill="white"/>
<path d="M90.3896 108.295C92.208 115.412 85.1039 116.818 84.0625 116.983C82.7456 117.225 81.4045 117.305 80.0684 117.223C83.6859 116.294 87.916 116.207 86.958 108.738C86.7077 106.793 84.2603 102.863 84.8346 102.554C86.529 101.644 89.8916 106.34 90.3896 108.295Z" fill="#7D1B5C"/>
<path d="M62.2214 107.009C59.3855 113.786 69.8474 116.481 71.9135 116.72C71.0199 116.071 69.1801 115.353 67.5191 114.086C66.0201 112.936 64.5831 111.394 65.5434 107.955C66.0725 106.067 69.0585 102.532 68.5366 102.144C66.9995 100.992 62.9864 105.148 62.2214 107.009Z" fill="#7D1B5C"/>
<path d="M78.6243 103.931C78.5838 104.764 76.2221 105.567 75.5715 105.682C74.6874 105.837 72.6641 104.484 72.7118 103.641C72.7594 102.798 73.5339 102.171 75.7455 102.279C77.8879 102.386 78.6648 103.1 78.6243 103.931Z" fill="black"/>
<path d="M78.0885 109.126C78.3047 109.088 78.5152 109.022 78.7152 108.932C79.9783 108.369 79.9211 106.826 79.7162 106.089C79.6846 105.98 79.6113 105.889 79.5125 105.834C79.4138 105.78 79.2976 105.767 79.1895 105.799C79.0814 105.831 78.9903 105.904 78.9362 106.004C78.8822 106.103 78.8695 106.22 78.9011 106.328C78.9178 106.383 79.2824 107.765 78.3721 108.163C76.8564 108.841 75.722 107.03 75.6768 106.951C75.6404 106.893 75.5907 106.844 75.5319 106.809C75.473 106.774 75.4066 106.754 75.3384 106.75C75.2698 106.746 75.2014 106.759 75.139 106.787C75.0767 106.816 75.0223 106.86 74.9809 106.915C74.8451 107.09 73.6273 108.608 72.3714 107.818C71.6993 107.396 72.1831 106.194 72.1879 106.182C72.2309 106.078 72.231 105.962 72.1883 105.858C72.1457 105.754 72.0636 105.671 71.9603 105.628C71.8569 105.585 71.7408 105.584 71.6373 105.627C71.5338 105.67 71.4516 105.753 71.4086 105.856C71.1179 106.551 70.901 107.897 71.9233 108.539C73.0935 109.276 74.3827 108.766 75.2835 107.854C75.8698 108.558 76.885 109.329 78.0885 109.126Z" fill="black"/>
<path d="M74.8785 104.465C74.8117 104.688 74.7617 104.901 74.714 105.124C74.6663 105.346 74.6297 105.571 74.6044 105.797C74.5759 106.035 74.5648 106.275 74.571 106.515C74.5786 106.778 74.6227 107.038 74.7021 107.289V107.31C74.72 107.378 74.7516 107.442 74.795 107.497C74.8383 107.553 74.8925 107.598 74.9541 107.632C75.0157 107.665 75.0835 107.686 75.1533 107.692C75.2231 107.698 75.2934 107.689 75.3598 107.667C75.4263 107.645 75.4874 107.609 75.5396 107.562C75.5917 107.515 75.6337 107.458 75.663 107.394C75.6922 107.33 75.7081 107.26 75.7097 107.19C75.7112 107.12 75.6984 107.05 75.672 106.985C75.6594 106.95 75.6443 106.916 75.6268 106.884C75.5436 106.734 75.4826 106.573 75.4456 106.405C75.4017 106.213 75.373 106.017 75.3598 105.821C75.3419 105.615 75.3347 105.409 75.3384 105.203C75.3384 104.997 75.3527 104.781 75.3718 104.58C75.3752 104.518 75.3561 104.456 75.3179 104.407C75.2797 104.358 75.2251 104.324 75.1641 104.312C75.1031 104.3 75.0398 104.31 74.986 104.342C74.9322 104.373 74.8915 104.423 74.8713 104.482L74.8785 104.465Z" fill="black"/>
<path d="M67.2476 100.637C68.5977 100.613 69.6679 99.2348 69.638 97.5592C69.608 95.8836 68.4892 94.5451 67.139 94.5695C65.7889 94.5939 64.7186 95.972 64.7486 97.6476C64.7786 99.3231 65.8974 100.662 67.2476 100.637Z" fill="black"/>
<path d="M66.3232 97.8469C66.7061 97.84 67.0082 97.3712 66.998 96.7999C66.9878 96.2286 66.6691 95.7711 66.2861 95.778C65.9032 95.7849 65.6011 96.2537 65.6113 96.825C65.6215 97.3963 65.9402 97.8538 66.3232 97.8469Z" fill="white"/>
<path d="M86.9419 101.778C88.2921 101.754 89.3623 100.376 89.3323 98.7001C89.3023 97.0245 88.1835 95.686 86.8334 95.7103C85.4832 95.7347 84.413 97.1128 84.4429 98.7884C84.4729 100.464 85.5917 101.803 86.9419 101.778Z" fill="black"/>
<path d="M86.0195 98.9901C86.4024 98.9832 86.7045 98.5144 86.6943 97.9431C86.6841 97.3718 86.3654 96.9143 85.9824 96.9212C85.5995 96.9281 85.2973 97.3969 85.3076 97.9682C85.3178 98.5395 85.6365 98.997 86.0195 98.9901Z" fill="white"/>
<path d="M70.4125 93.4674C70.3625 94.4853 68.9827 93.5752 67.2382 93.489C65.4938 93.4028 64.0782 93.1896 64.1282 92.1694C64.1783 91.1491 65.6368 90.3947 67.386 90.4785C69.7095 90.5935 70.4626 92.4472 70.4125 93.4674Z" fill="white"/>
<path d="M111.459 36.5892L111.459 36.5887C111.905 36.1379 112.432 35.7822 113.009 35.5401C113.587 35.2981 114.204 35.174 114.827 35.174C115.45 35.174 116.068 35.2981 116.645 35.5401C117.223 35.7822 117.75 36.1379 118.195 36.5887L118.196 36.5897C118.642 37.0404 118.997 37.5774 119.24 38.1709C119.484 38.7644 119.609 39.4018 119.609 40.0462C119.609 40.6907 119.484 41.328 119.241 41.9216C118.997 42.5151 118.642 43.052 118.196 43.5027L118.196 43.5032L116.697 45.0199L107.826 53.9935L98.9558 45.0199L97.4565 43.5032C96.556 42.5922 96.0439 41.3494 96.0439 40.0462C96.0439 38.7431 96.556 37.5002 97.4565 36.5892C98.3558 35.6794 99.5682 35.1747 100.825 35.1747C102.082 35.1747 103.294 35.6794 104.193 36.5892L105.693 38.1059C106.256 38.6761 107.025 38.9969 107.826 38.9969C108.628 38.9969 109.396 38.6761 109.96 38.1059L111.459 36.5892Z" stroke="url(#paint3_linear)" stroke-width="6" stroke-linecap="round" stroke-linejoin="round"/>
<path d="M135.802 6.80662L135.803 6.80761C136.183 7.18695 136.484 7.6371 136.689 8.13225C136.895 8.62741 137 9.15798 137 9.69369C137 10.2294 136.895 10.76 136.689 11.2551C136.484 11.7503 136.183 12.2004 135.803 12.5798L135.802 12.5803L134.435 13.9453L126.522 21.8473L118.609 13.9453L117.242 12.5803C116.474 11.814 116.044 10.7755 116.044 9.69369C116.044 8.61183 116.474 7.57341 117.242 6.80712C118.009 6.04068 119.051 5.60933 120.138 5.60933C121.226 5.60933 122.268 6.04068 123.035 6.80712L124.402 8.17215C125.573 9.34171 127.47 9.34171 128.642 8.17215L130.009 6.80712L130.009 6.80662C130.389 6.4271 130.84 6.12581 131.337 5.92018C131.834 5.71454 132.367 5.60864 132.905 5.60864C133.444 5.60864 133.976 5.71454 134.473 5.92018C134.97 6.12581 135.422 6.4271 135.802 6.80662Z" stroke="url(#paint4_linear)" stroke-width="6" stroke-linecap="round" stroke-linejoin="round"/>
<defs>
<linearGradient id="paint0_linear" x1="41.7393" y1="51.7392" x2="53.9132" y2="51.7392" gradientUnits="userSpaceOnUse">
<stop offset="0.489583" stop-color="#F0256F"/>
<stop offset="1" stop-color="#B12170"/>
</linearGradient>
<linearGradient id="paint1_linear" x1="35.6523" y1="34.7826" x2="42.6089" y2="34.7826" gradientUnits="userSpaceOnUse">
<stop offset="0.489583" stop-color="#F0256F"/>
<stop offset="1" stop-color="#B12170"/>
</linearGradient>
<linearGradient id="paint2_linear" x1="53.0439" y1="34.7826" x2="60.0005" y2="34.7826" gradientUnits="userSpaceOnUse">
<stop offset="0.489583" stop-color="#F0256F"/>
<stop offset="1" stop-color="#B12170"/>
</linearGradient>
<linearGradient id="paint3_linear" x1="93.0439" y1="45.2174" x2="122.609" y2="45.2174" gradientUnits="userSpaceOnUse">
<stop offset="0.489583" stop-color="#F0256F"/>
<stop offset="1" stop-color="#B12170"/>
</linearGradient>
<linearGradient id="paint4_linear" x1="113.044" y1="14.3478" x2="140" y2="14.3478" gradientUnits="userSpaceOnUse">
<stop offset="0.489583" stop-color="#F0256F"/>
<stop offset="1" stop-color="#B12170"/>
</linearGradient>
</defs>
</svg>
