<svg width="161" height="262" viewBox="0 0 161 262" fill="none" xmlns="http://www.w3.org/2000/svg">
    <path d="M7.47 256.27C6.71 256.27 6.13 256.06 5.73 255.64C5.33 255.22 5.13 254.63 5.13 253.87V237.22C5.13 235.64 5.92 234.85 7.5 234.85H14.79C17.15 234.85 18.97 235.45 20.25 236.65C21.53 237.83 22.17 239.48 22.17 241.6C22.17 243.72 21.53 245.38 20.25 246.58C18.97 247.78 17.15 248.38 14.79 248.38H9.78V253.87C9.78 254.63 9.58 255.22 9.18 255.64C8.8 256.06 8.23 256.27 7.47 256.27ZM9.78 244.78H14.01C16.47 244.78 17.7 243.72 17.7 241.6C17.7 239.52 16.47 238.48 14.01 238.48H9.78V244.78ZM31.4916 256.33C29.7516 256.33 28.2516 256.02 26.9916 255.4C25.7516 254.76 24.7916 253.87 24.1116 252.73C23.4516 251.57 23.1216 250.21 23.1216 248.65C23.1216 247.13 23.4416 245.8 24.0816 244.66C24.7416 243.5 25.6316 242.6 26.7516 241.96C27.8916 241.3 29.2016 240.97 30.6816 240.97C32.8216 240.97 34.5216 241.65 35.7816 243.01C37.0416 244.35 37.6716 246.17 37.6716 248.47C37.6716 249.23 37.2016 249.61 36.2616 249.61H27.4416C27.6016 250.77 28.0216 251.62 28.7016 252.16C29.4016 252.68 30.3616 252.94 31.5816 252.94C32.0616 252.94 32.6016 252.89 33.2016 252.79C33.8216 252.67 34.4116 252.47 34.9716 252.19C35.5516 251.91 36.0416 251.86 36.4416 252.04C36.8416 252.2 37.1116 252.48 37.2516 252.88C37.4116 253.28 37.4116 253.7 37.2516 254.14C37.1116 254.56 36.7816 254.91 36.2616 255.19C35.5616 255.57 34.7816 255.85 33.9216 256.03C33.0816 256.23 32.2716 256.33 31.4916 256.33ZM30.8616 243.97C29.9016 243.97 29.1216 244.26 28.5216 244.84C27.9416 245.42 27.5816 246.23 27.4416 247.27H33.9216C33.8016 245.07 32.7816 243.97 30.8616 243.97ZM47.4485 256.33C43.3085 256.33 41.2385 254.32 41.2385 250.3V244.66H39.9785C38.7985 244.66 38.2085 244.1 38.2085 242.98C38.2085 241.84 38.7985 241.27 39.9785 241.27H41.2385V238.99C41.2385 237.45 41.9985 236.68 43.5185 236.68C45.0185 236.68 45.7685 237.45 45.7685 238.99V241.27H48.6185C49.7785 241.27 50.3585 241.84 50.3585 242.98C50.3585 244.1 49.7785 244.66 48.6185 244.66H45.7685V250.12C45.7685 250.96 45.9585 251.59 46.3385 252.01C46.7385 252.43 47.3685 252.64 48.2285 252.64C48.5285 252.64 48.8085 252.61 49.0685 252.55C49.3285 252.49 49.5685 252.45 49.7885 252.43C50.0685 252.41 50.2985 252.5 50.4785 252.7C50.6585 252.9 50.7485 253.31 50.7485 253.93C50.7485 254.43 50.6685 254.86 50.5085 255.22C50.3485 255.56 50.0685 255.81 49.6685 255.97C49.4085 256.07 49.0485 256.15 48.5885 256.21C48.1485 256.29 47.7685 256.33 47.4485 256.33ZM65.7063 256.33C64.6063 256.33 63.6363 256.12 62.7963 255.7C61.9563 255.28 61.2863 254.71 60.7863 253.99C60.3063 253.27 60.0663 252.46 60.0663 251.56C60.0663 250.5 60.3463 249.65 60.9063 249.01C61.4663 248.37 62.3763 247.92 63.6363 247.66C64.8963 247.38 66.5663 247.24 68.6463 247.24H69.7263V246.73C69.7263 245.85 69.5263 245.23 69.1263 244.87C68.7263 244.49 68.0463 244.3 67.0863 244.3C66.5463 244.3 65.9563 244.37 65.3163 244.51C64.6763 244.63 63.9863 244.84 63.2463 245.14C62.6863 245.38 62.2163 245.4 61.8363 245.2C61.4563 244.98 61.2063 244.66 61.0863 244.24C60.9663 243.8 60.9963 243.36 61.1763 242.92C61.3763 242.48 61.7563 242.16 62.3163 241.96C63.2563 241.6 64.1363 241.35 64.9563 241.21C65.7963 241.05 66.5663 240.97 67.2663 240.97C69.5463 240.97 71.2463 241.49 72.3663 242.53C73.4863 243.55 74.0463 245.14 74.0463 247.3V253.96C74.0463 255.5 73.3463 256.27 71.9463 256.27C70.5263 256.27 69.8163 255.5 69.8163 253.96V253.78C69.5163 254.56 69.0063 255.18 68.2863 255.64C67.5863 256.1 66.7263 256.33 65.7063 256.33ZM66.7263 253.3C67.5663 253.3 68.2763 253.01 68.8563 252.43C69.4363 251.85 69.7263 251.1 69.7263 250.18V249.58H68.6763C67.1363 249.58 66.0463 249.72 65.4063 250C64.7663 250.26 64.4463 250.72 64.4463 251.38C64.4463 251.94 64.6363 252.4 65.0163 252.76C65.4163 253.12 65.9863 253.3 66.7263 253.3ZM88.0845 261.67C86.5645 261.67 85.8045 260.9 85.8045 259.36V243.31C85.8045 241.79 86.5445 241.03 88.0245 241.03C89.5245 241.03 90.2745 241.79 90.2745 243.31V243.4C90.6945 242.66 91.3145 242.07 92.1345 241.63C92.9545 241.19 93.8745 240.97 94.8945 240.97C96.1745 240.97 97.2945 241.28 98.2545 241.9C99.2345 242.52 99.9945 243.4 100.534 244.54C101.074 245.68 101.344 247.04 101.344 248.62C101.344 250.2 101.074 251.57 100.534 252.73C99.9945 253.87 99.2345 254.76 98.2545 255.4C97.2945 256.02 96.1745 256.33 94.8945 256.33C93.9145 256.33 93.0145 256.12 92.1945 255.7C91.3945 255.28 90.7745 254.72 90.3345 254.02V259.36C90.3345 260.9 89.5845 261.67 88.0845 261.67ZM93.5445 252.94C94.5045 252.94 95.2845 252.59 95.8845 251.89C96.4845 251.19 96.7845 250.1 96.7845 248.62C96.7845 247.16 96.4845 246.09 95.8845 245.41C95.2845 244.71 94.5045 244.36 93.5445 244.36C92.5645 244.36 91.7745 244.71 91.1745 245.41C90.5745 246.09 90.2745 247.16 90.2745 248.62C90.2745 250.1 90.5745 251.19 91.1745 251.89C91.7745 252.59 92.5645 252.94 93.5445 252.94ZM111.765 256.33C110.025 256.33 108.525 256.02 107.265 255.4C106.025 254.76 105.065 253.87 104.385 252.73C103.725 251.57 103.395 250.21 103.395 248.65C103.395 247.13 103.715 245.8 104.355 244.66C105.015 243.5 105.905 242.6 107.025 241.96C108.165 241.3 109.475 240.97 110.955 240.97C113.095 240.97 114.795 241.65 116.055 243.01C117.315 244.35 117.945 246.17 117.945 248.47C117.945 249.23 117.475 249.61 116.535 249.61H107.715C107.875 250.77 108.295 251.62 108.975 252.16C109.675 252.68 110.635 252.94 111.855 252.94C112.335 252.94 112.875 252.89 113.475 252.79C114.095 252.67 114.685 252.47 115.245 252.19C115.825 251.91 116.315 251.86 116.715 252.04C117.115 252.2 117.385 252.48 117.525 252.88C117.685 253.28 117.685 253.7 117.525 254.14C117.385 254.56 117.055 254.91 116.535 255.19C115.835 255.57 115.055 255.85 114.195 256.03C113.355 256.23 112.545 256.33 111.765 256.33ZM111.135 243.97C110.175 243.97 109.395 244.26 108.795 244.84C108.215 245.42 107.855 246.23 107.715 247.27H114.195C114.075 245.07 113.055 243.97 111.135 243.97ZM127.722 256.33C123.582 256.33 121.512 254.32 121.512 250.3V244.66H120.252C119.072 244.66 118.482 244.1 118.482 242.98C118.482 241.84 119.072 241.27 120.252 241.27H121.512V238.99C121.512 237.45 122.272 236.68 123.792 236.68C125.292 236.68 126.042 237.45 126.042 238.99V241.27H128.892C130.052 241.27 130.632 241.84 130.632 242.98C130.632 244.1 130.052 244.66 128.892 244.66H126.042V250.12C126.042 250.96 126.232 251.59 126.612 252.01C127.012 252.43 127.642 252.64 128.502 252.64C128.802 252.64 129.082 252.61 129.342 252.55C129.602 252.49 129.842 252.45 130.062 252.43C130.342 252.41 130.572 252.5 130.752 252.7C130.932 252.9 131.022 253.31 131.022 253.93C131.022 254.43 130.942 254.86 130.782 255.22C130.622 255.56 130.342 255.81 129.942 255.97C129.682 256.07 129.322 256.15 128.862 256.21C128.422 256.29 128.042 256.33 127.722 256.33Z" fill="#F0256F" />
    <path d="M48 58C48 58 49.498 61 55 61C60.502 61 62 58 62 58" stroke="url(#paint0_linear)" stroke-width="6.1835" stroke-linecap="round" />
    <circle cx="45" cy="40" r="4" fill="url(#paint1_linear)" />
    <circle cx="65" cy="40" r="4" fill="url(#paint2_linear)" />
    <path d="M28.985 55.2028C28.175 55.2028 27.545 55.2028 26.905 55.2028C25.217 55.143 23.6122 54.4543 22.4059 53.2721C21.1996 52.0898 20.4788 50.4992 20.385 48.8127C20.255 46.4227 20.265 44.0327 20.385 41.6427C20.4305 39.9012 21.1312 38.2409 22.3473 36.9933C23.5633 35.7458 25.2052 35.0028 26.945 34.9128C27.575 34.9128 28.215 34.9128 28.945 34.9128V29.0527C27.3967 28.7705 25.9315 28.1442 24.6576 27.2199C23.3837 26.2957 22.3337 25.0971 21.585 23.7127C21.0869 22.7754 20.7489 21.7615 20.585 20.7127C20.5272 20.3156 20.5561 19.9106 20.6697 19.5257C20.7833 19.1408 20.9789 18.785 21.2431 18.4829C21.5072 18.1807 21.8337 17.9394 22.1999 17.7753C22.5662 17.6113 22.9637 17.5286 23.365 17.5327H23.625C24.2657 17.5447 24.8822 17.7801 25.3679 18.1982C25.8535 18.6163 26.1779 19.1909 26.285 19.8227C26.3541 20.3871 26.5644 20.9249 26.8966 21.3863C27.2287 21.8478 27.6718 22.218 28.185 22.4627C29.5502 22.9516 30.9656 23.287 32.405 23.4627C32.255 20.2627 32.075 17.4627 32.015 14.6027C31.955 11.7427 32.015 8.91275 32.015 5.97275H26.145V9.27275C26.145 9.57873 26.0847 9.88171 25.9676 10.1644C25.8505 10.4471 25.6789 10.7039 25.4626 10.9203C25.2462 11.1367 24.9893 11.3083 24.7067 11.4254C24.424 11.5425 24.121 11.6027 23.815 11.6027H22.815C22.2005 11.6028 21.6109 11.36 21.1745 10.9274C20.7381 10.4948 20.4903 9.90723 20.485 9.29275C20.485 6.91275 20.435 4.53275 20.595 2.16275C20.645 1.46275 21.775 0.712749 22.595 0.242748C23.2355 0.0144032 23.922 -0.0542481 24.595 0.0427485C34.905 0.0427485 45.205 0.0427485 55.515 0.0427485C60.095 0.0427485 63.515 1.77275 65.775 5.83275C66.0824 6.30387 66.5408 6.6565 67.075 6.83275C70.225 7.91275 73.385 8.92275 76.545 9.96275C81.545 11.6327 84.135 15.1727 84.185 20.4927C84.185 22.2127 84.185 23.9327 84.185 25.6527C84.185 27.2827 83.615 28.5827 81.855 29.0927C81.6971 29.1544 81.5599 29.2594 81.459 29.3956C81.3582 29.5318 81.2979 29.6938 81.285 29.8627C81.285 31.5127 81.285 33.1628 81.285 34.8628C82.465 34.9528 83.505 34.9528 84.505 35.1227C86.0169 35.4028 87.3848 36.199 88.3751 37.3753C89.3654 38.5516 89.9167 40.0352 89.935 41.5728C89.995 43.8628 89.935 46.1527 89.935 48.4427C89.865 52.5527 87.145 55.2127 83.015 55.2827C82.505 55.2827 82.015 55.2827 81.135 55.2827C82.315 64.2827 79.135 70.7728 70.235 73.9228C70.465 74.7728 70.645 75.4528 70.845 76.1227C71.985 79.9528 73.095 83.8027 74.335 87.6028C74.6157 88.3303 75.1627 88.9238 75.865 89.2627C77.865 90.1927 80.005 90.9327 82.295 91.8227C81.605 93.6027 80.955 95.3127 80.235 97.1827L76.235 95.6728C75.416 97.469 74.4737 99.2065 73.415 100.873C71.415 103.623 68.415 104.513 65.175 104.553C58.5083 104.633 51.8417 104.633 45.175 104.553C39.695 104.503 36.055 101.553 34.675 96.3227C34.615 96.0827 34.535 95.8427 34.425 95.5027C26.985 98.2927 19.685 100.973 12.515 104.053C8.025 105.953 5.845 109.783 5.805 114.613C5.725 124.873 5.805 135.123 5.805 145.373C5.805 151.373 5.805 157.373 5.805 163.373C5.805 167.763 9.275 169.653 15.045 167.373C19.8573 165.441 25.0159 164.52 30.1995 164.668C35.3831 164.816 40.4807 166.029 45.175 168.233C45.665 168.463 45.755 168.383 46.265 168.303V153.753H24.375C20.195 153.753 19.975 152.283 20.475 146.123C20.7651 141.702 20.7149 137.266 20.325 132.853C20.2909 132.571 20.3173 132.285 20.4024 132.014C20.4875 131.742 20.6294 131.493 20.8187 131.281C21.0079 131.069 21.2401 130.9 21.4999 130.784C21.7596 130.669 22.0409 130.611 22.325 130.613H22.565C23.4819 130.61 24.3625 130.97 25.0146 131.615C25.6666 132.259 26.0371 133.136 26.045 134.053V147.953H28.045C39.705 147.953 51.365 147.953 63.045 147.953C65.465 147.953 67.875 148.393 70.495 148.653C69.865 150.763 69.345 152.523 68.895 154.003H52.325V168.173H63.665V173.903C63.185 173.903 62.725 174.003 62.275 174.003H10.905C6.495 174.003 2.905 172.323 1.055 168.173C0.377813 166.548 0.0376048 164.803 0.055 163.043C-0.0183333 147.043 -0.0183333 131.063 0.055 115.103C0.055 106.833 4.335 100.733 12.055 97.7428C19.475 94.8894 26.9017 92.0561 34.335 89.2428C34.8289 89.0851 35.2639 88.7823 35.5832 88.3738C35.9025 87.9653 36.0913 87.4701 36.125 86.9528C36.7458 83.4137 37.7518 79.9531 39.125 76.6328C39.985 74.6328 40.045 73.9527 38.665 73.3627C35.035 71.8027 32.005 69.5728 30.265 65.8528C29.2275 63.3064 28.7895 60.5554 28.985 57.8127C28.985 56.9927 28.985 56.1728 28.985 55.2028ZM34.985 29.2027C34.917 29.3841 34.8668 29.5717 34.835 29.7627C34.835 40.0127 34.775 50.2627 34.835 60.5127C34.8366 61.9589 35.2694 63.3716 36.0781 64.5705C36.8868 65.7693 38.0347 66.6997 39.375 67.2428C43.695 69.2428 47.965 71.3927 52.135 73.7227C54.545 75.0727 56.625 74.7227 59.135 72.8627C62.0013 70.8546 65.1487 69.2809 68.475 68.1927C73.205 66.5527 75.415 63.5827 75.385 59.0327C75.385 49.6727 75.385 40.3027 75.385 30.9327V29.2027H34.985ZM45.355 76.4228C43.665 82.0428 42.075 87.2428 40.535 92.4228C39.375 96.3727 41.695 99.0227 46.165 98.5727C52.1523 98.0215 58.1777 98.0215 64.165 98.5727C68.575 98.9427 70.755 96.3428 69.585 92.3627C68.245 87.8327 66.875 83.3627 65.515 78.7927C65.315 78.1127 65.105 77.4327 64.765 76.3627C58.275 81.5228 51.765 81.4327 45.375 76.3627L45.355 76.4228ZM49.195 23.2027C49.195 18.4727 49.265 13.9127 49.195 9.36275C49.0857 8.46988 48.6608 7.64552 47.9969 7.03851C47.3331 6.43151 46.4741 6.08188 45.575 6.05275C43.015 5.88275 40.425 6.05275 37.745 6.05275C37.745 10.6627 37.635 15.1627 37.795 19.6627C37.8691 20.6653 38.3255 21.6011 39.07 22.2767C39.8144 22.9522 40.79 23.316 41.795 23.2927C44.175 23.4127 46.565 23.2927 49.155 23.2927L49.195 23.2027ZM78.205 23.2927C78.205 21.7727 78.265 20.4827 78.205 19.1727C78.1568 18.5335 77.9308 17.9204 77.5527 17.4027C77.1746 16.885 76.6593 16.4832 76.065 16.2427C73.065 15.0127 69.955 13.9827 66.805 12.8427V23.2127L78.205 23.2927ZM60.735 23.2927C60.735 18.5827 60.835 14.0227 60.645 9.47275C60.561 8.92107 60.3549 8.3951 60.0418 7.93319C59.7286 7.47128 59.3163 7.08508 58.835 6.80275C57.3213 6.24791 55.7468 5.87529 54.145 5.69275C55.885 11.7727 54.605 17.5727 55.215 23.2827L60.735 23.2927ZM81.265 40.9128V49.1828C84.065 49.5428 84.085 49.5228 84.085 46.8527V42.9727C84.085 40.5827 83.785 40.3527 81.265 40.9128ZM28.825 49.1727V40.8027C26.105 40.5228 26.075 40.5527 26.075 43.1128V46.9927C26.075 49.4927 26.075 49.5227 28.815 49.1727" fill="#FD7CAE" />
    <path d="M54.5301 134.859C55.5002 135.985 56.5033 137.062 57.5612 138.07C60.8197 141.21 64.5688 143.868 69.3977 146.346L69.4416 146.322L74.1472 143.567L80.7026 139.712L85.1972 137.067C84.3368 136.995 83.4812 136.872 82.6348 136.701C77.4691 135.664 72.5384 133.677 68.0905 130.84C65.757 129.36 63.5668 127.664 61.5487 125.773C60.9156 125.183 60.3127 124.671 59.7399 124.211C50.0985 116.618 48.5474 127.921 54.5301 134.859Z" fill="#FD7CAE" />
    <path d="M113.356 118.829C112.72 121.972 112.222 125.357 111.769 128.744C111.495 130.838 111.221 132.936 110.977 134.991C110.413 139.469 109.84 143.719 109.059 147.184C108.149 151.183 106.946 154.135 105.126 155.171C98.9737 158.74 109.402 161.963 109.402 161.963C109.402 161.963 115.467 163.615 122.08 162.458C125.138 161.968 128.044 160.78 130.575 158.985C132.692 157.434 134.442 155.433 135.7 153.124C137.199 150.503 138.111 147.585 138.37 144.573C138.835 139.276 137.394 134.801 139.153 129.761C139.822 127.833 140.957 125.841 142.837 123.685C144.536 121.735 146.846 119.653 149.976 117.389C150.319 117.141 150.671 116.891 151.031 116.64C159.598 110.669 156 101.324 148.315 97.3741C144.111 95.2148 138.745 95.1707 133.516 96.6359C129.046 97.9022 124.909 100.146 121.403 103.207C118.448 105.821 116.146 108.969 114.998 112.423C114.323 114.523 113.774 116.662 113.356 118.829Z" fill="#FD7CAE" />
    <path d="M121.417 103.205C127.72 107.129 139.845 115.527 142.846 123.682C144.545 121.732 146.855 119.65 149.985 117.386C148.842 112.751 144.97 101.516 133.541 96.6332C129.067 97.8979 124.927 100.142 121.417 103.205Z" fill="#7D1B5C" />
    <path d="M113.356 118.829C112.721 121.972 112.222 125.357 111.77 128.744C119.901 131.143 135.064 136.585 138.378 144.556C138.844 139.26 137.402 134.784 139.162 129.744C135.454 125.089 129.085 119.482 119.577 118.727C117.506 118.531 115.42 118.565 113.356 118.829Z" fill="#7D1B5C" />
    <path d="M110.978 135.005C110.413 139.483 109.841 143.733 109.06 147.197C114.023 151.442 119.608 157.041 122.088 162.458C125.147 161.968 128.053 160.78 130.584 158.985C129.762 153.967 126.594 142.16 114.927 136.605C113.647 135.985 112.328 135.45 110.978 135.005Z" fill="#7D1B5C" />
    <path d="M68.1944 152.728C64.9769 152.956 63.3326 157.498 63.3682 158.344C63.3382 158.322 63.3071 158.302 63.275 158.283L63.2065 158.231H63.1901L63.0339 158.126L63.0092 158.109L62.9242 158.057L62.853 158.016L62.7845 157.969L62.6337 157.886L62.5652 157.856L62.5296 157.837L62.4364 157.795C62.3679 157.765 62.2966 157.738 62.2281 157.713C62.2209 157.711 62.2134 157.711 62.2062 157.713C62.1164 157.679 62.0249 157.649 61.9321 157.625H61.8965C61.8125 157.603 61.7275 157.583 61.6416 157.567C61.4842 157.537 61.3248 157.52 61.1648 157.515H60.9784C60.8907 157.515 60.803 157.515 60.7181 157.515H60.6221C60.5591 157.515 60.4906 157.528 60.4276 157.539L60.3371 157.553L60.0987 157.608L59.9945 157.633L59.8054 157.694C59.7515 157.71 59.6984 157.729 59.6465 157.751C59.6026 157.768 59.5588 157.782 59.5122 157.804L59.3779 157.862L59.3176 157.889L59.2217 157.914L59.0573 157.999L59.0025 158.027L58.9367 158.065L58.8462 158.118C58.775 158.162 58.7037 158.206 58.6352 158.253L58.5968 158.283C58.5393 158.321 58.4845 158.363 58.4297 158.404L58.3584 158.459L58.331 158.481L58.2323 158.561L58.183 158.605L58.1611 158.624L58.0761 158.702L57.9802 158.792C57.9172 158.856 57.8541 158.922 57.7966 158.988L57.7692 159.018C57.7281 159.065 57.687 159.115 57.6513 159.164C57.6157 159.214 57.5636 159.28 57.5253 159.338L57.5034 159.371C57.4732 159.418 57.4431 159.464 57.4184 159.511C57.3937 159.558 57.4047 159.536 57.3992 159.544C57.3685 159.598 57.3411 159.653 57.317 159.71C57.3094 159.726 57.303 159.742 57.2978 159.759C57.2622 159.839 57.2293 159.922 57.2019 160.004C57.1854 160.046 57.1717 160.09 57.158 160.134L57.1005 160.318C57.1005 160.368 57.0758 160.415 57.0621 160.467L57.021 160.643L56.9881 160.803C56.9881 160.861 56.9689 160.921 56.9607 160.979C56.9525 161.037 56.9415 161.092 56.9333 161.15L56.9169 161.307C56.9169 161.436 56.8922 161.582 56.8867 161.709V161.822C56.8867 161.905 56.8867 161.99 56.8867 162.075V162.136C56.9195 163.555 57.1671 164.961 57.6212 166.306C57.6733 166.474 57.7308 166.645 57.7884 166.815C57.9638 167.322 58.1611 167.826 58.3749 168.322C58.4845 168.57 58.5941 168.818 58.7092 169.06C58.8599 169.382 59.0216 169.702 59.1861 170.01C59.3505 170.319 59.5204 170.624 59.6958 170.919C59.9151 171.285 60.1371 171.638 60.3673 171.971C60.4111 172.04 60.4577 172.106 60.5043 172.17C60.6879 172.431 60.8743 172.679 61.0524 172.913C61.3156 173.244 61.5965 173.56 61.8938 173.861C62.3506 174.351 62.9028 174.742 63.5162 175.009C63.582 175.031 63.645 175.056 63.7108 175.075L63.8697 175.125L63.9876 175.155H64.0068L64.0725 175.174H64.1465L64.2123 175.188H64.2753L64.3904 175.207L64.5055 175.224H64.6207H64.733H64.8207C64.9331 175.224 65.0454 175.224 65.1523 175.224H65.3168L65.4483 175.21H65.5113L65.6401 175.191C65.7427 175.175 65.8443 175.153 65.9444 175.125C65.9964 175.125 66.0485 175.097 66.0978 175.084L66.2458 175.037C66.2932 175.023 66.3399 175.006 66.3856 174.987L66.5171 174.938H66.5336C66.6131 174.905 66.6871 174.871 66.7583 174.836C66.8296 174.8 66.8597 174.789 66.909 174.761L66.9474 174.742C67.1169 174.665 67.2825 174.58 67.4435 174.486L67.4846 174.458L67.575 174.395L67.6627 174.329L67.7531 174.26L67.8271 174.202L67.9258 174.117L68.0217 174.037L68.0875 173.976C68.1533 173.916 68.2108 173.861 68.2601 173.808L68.3287 173.742C68.4301 173.632 68.5041 173.549 68.5452 173.5L68.5781 173.459L68.8713 173.398C75.5802 172.046 87.9376 173.759 91.9552 174.378C92.75 174.502 93.2214 174.582 93.2515 174.588L92.3444 174.285L93.0186 174.111C93.0926 174.279 93.1693 174.439 93.2515 174.588C93.434 174.944 93.6718 175.268 93.9559 175.549C96.2963 177.766 99.2315 176.1 99.2315 176.1C110.616 181.749 116.223 171.327 116.223 171.327C118.435 165.772 117.709 159.263 115.902 153.254C115.16 150.812 114.264 148.42 113.219 146.093C110.72 140.48 106.149 133.311 105.129 131.793L87.5648 131.994C87.5648 131.994 76.8026 131.487 76.3421 131.87C74.3168 138.186 67.3119 146.032 68.1944 152.728Z" fill="#FD7CAE" />
    <path d="M73.3994 153.557C73.3994 160.676 78.6065 164.389 85.0277 164.389C91.4489 164.389 96.2203 160.668 96.656 153.557C97.2206 144.248 91.4489 138.604 85.0277 138.604C78.6065 138.604 73.3994 144.248 73.3994 153.557Z" fill="white" />
    <path d="M56.8701 161.987V162.045C56.9029 163.465 57.1505 164.871 57.6046 166.215C57.6567 166.383 57.7142 166.554 57.7718 166.722C57.9472 167.229 58.1445 167.735 58.3583 168.228C58.4679 168.479 58.5775 168.724 58.6926 168.966C58.8433 169.291 59.005 169.608 59.1695 169.919C59.3339 170.231 59.5038 170.534 59.6792 170.828C59.8985 171.195 60.1204 171.547 60.3507 171.88L60.4877 172.079C60.6713 172.338 60.8577 172.586 61.0358 172.82C61.2976 173.152 61.5786 173.468 61.8772 173.767C62.3332 174.258 62.8856 174.65 63.4996 174.916C63.5654 174.94 63.6284 174.965 63.6942 174.984C63.7599 175.004 63.8011 175.02 63.8531 175.031L63.971 175.062H63.9902L64.0559 175.078L64.1299 175.095L64.1957 175.108H64.2587C64.2964 175.119 64.3349 175.125 64.3738 175.128L64.4889 175.144L64.604 175.158H64.7164C64.7456 175.161 64.7749 175.161 64.8041 175.158C64.9165 175.158 65.0288 175.158 65.1357 175.158L65.3002 175.144L65.4317 175.13H65.4947L65.6235 175.111C65.7277 175.095 65.8291 175.073 65.9277 175.048L66.0812 175.006L66.2292 174.96L66.369 174.91L66.5005 174.86H66.517C66.5964 174.83 66.6704 174.794 66.7417 174.761L66.8924 174.687L66.9308 174.665C67.1069 174.582 67.278 174.49 67.4433 174.387L67.4844 174.362L67.5748 174.296L67.6625 174.233L67.753 174.164L67.827 174.103L67.9256 174.02L68.0216 173.938L68.0873 173.877C68.1531 173.82 68.2107 173.765 68.26 173.712L68.3285 173.643C68.4299 173.536 68.5039 173.45 68.545 173.401L68.5779 173.359L68.8711 173.296C75.5801 171.944 87.9374 173.657 91.9551 174.279C92.7498 174.403 93.2212 174.483 93.2514 174.489C93.4338 174.845 93.6716 175.169 93.9557 175.45C96.2962 177.653 99.2313 176.001 99.2313 176.001C110.616 181.65 116.223 171.228 116.223 171.228C118.435 165.672 117.708 159.164 115.902 153.155C112.475 152.913 109.036 153.403 105.811 154.592L105.537 154.691C104.833 154.967 103.518 157.388 101.29 160.084C98.6859 163.216 94.8765 166.708 89.368 167.554C84.983 168.237 80.3706 167.942 75.6979 167.229C67.8242 166.028 68.9205 157.38 68.9205 157.38L68.9013 154.427V153.276C66.5553 153.328 64.5657 155.35 63.9956 158.473L63.9463 158.748L63.9052 158.707C63.8476 158.649 63.7901 158.594 63.7325 158.545L63.6065 158.437C63.538 158.379 63.4749 158.327 63.4064 158.275L63.3872 158.261C63.3571 158.236 63.3269 158.211 63.294 158.189L63.2255 158.14L63.2091 158.126L63.0529 158.024L63.0282 158.008L62.9433 157.955L62.872 157.914L62.8062 157.875L62.6555 157.795L62.587 157.762L62.5513 157.746L62.4582 157.705L62.2499 157.622H62.228C62.1382 157.587 62.0467 157.557 61.9539 157.531H61.9183L61.6634 157.473C61.506 157.444 61.3466 157.426 61.1865 157.421H61.0002C60.9125 157.421 60.8248 157.421 60.7398 157.435H60.6439C60.5809 157.435 60.5124 157.451 60.4493 157.462L60.3589 157.476C60.2767 157.49 60.1972 157.509 60.1204 157.528L60.0163 157.556L59.8272 157.616L59.6683 157.672L59.534 157.724L59.3997 157.784L59.3394 157.809L59.2901 157.837L59.1256 157.919L59.0708 157.95L59.005 157.988L58.9146 158.041L58.7036 158.178L58.6652 158.206L58.498 158.327L58.4268 158.382L58.3994 158.404L58.3007 158.487L58.2514 158.528C58.2448 158.536 58.2374 158.543 58.2294 158.55L58.1445 158.627L58.0486 158.718C57.9855 158.781 57.9225 158.85 57.8649 158.914L57.8375 158.944C57.7964 158.994 57.7553 159.04 57.7197 159.09C57.6841 159.14 57.632 159.208 57.5936 159.266L57.5717 159.299C57.5416 159.346 57.5114 159.393 57.4867 159.44C57.4794 159.45 57.4729 159.461 57.4676 159.473C57.4375 159.526 57.41 159.58 57.3853 159.635C57.3778 159.651 57.3714 159.668 57.3662 159.685C57.3305 159.765 57.2976 159.847 57.2702 159.93C57.2428 160.013 57.2401 160.018 57.2264 160.059L57.1688 160.244C57.1688 160.294 57.1442 160.343 57.1305 160.393L57.0894 160.572L57.0565 160.729C57.0565 160.787 57.0373 160.847 57.0291 160.908C57.0208 160.968 57.0099 161.021 57.0017 161.076L56.9852 161.235C56.9852 161.365 56.9606 161.511 56.9551 161.635V161.748C56.8729 161.817 56.8729 161.899 56.8701 161.987Z" fill="#FD7CAE" />
    <path d="M115.372 110.667C115.526 111.376 115.745 112.068 116.027 112.736C116.296 113.381 116.692 113.966 117.191 114.454C117.688 114.909 118.278 115.249 118.921 115.448C119.95 115.763 120.93 115.919 121.593 116.585C121.519 118.139 120.592 118.921 119.482 119.497L119.455 119.47C119.865 118.677 120.464 117.999 120.255 117.029C119.498 116.868 119.248 116.678 118.548 116.346C117.834 116.007 117.204 115.512 116.703 114.898C116.235 114.291 115.894 113.594 115.7 112.851C115.51 112.137 115.388 111.407 115.336 110.67L115.372 110.667Z" fill="#7D1B5C" />
    <path d="M63.5085 174.921L63.6949 174.987C66.2601 175.814 68.7814 173.61 68.4333 170.919C68.2305 169.352 67.7646 167.824 67.4221 166.317C67.3785 166.129 67.3189 165.944 67.2439 165.766C64.2101 153.711 58.1918 157.619 57.3038 159.622C55.3635 164.067 60.2856 173.723 63.5085 174.921Z" fill="#FD7CAE" />
    <path d="M105.321 141.78C105.321 141.78 102.742 164.064 91.1906 165.807C82.7605 166.405 83.2977 159.277 83.6814 158.437C85.3559 154.796 90.4534 153.204 93.1611 149.472C93.8462 148.53 94.556 146.95 95.3919 145.829C97.9379 142.419 104.038 141.868 104.038 141.868L105.321 141.78Z" fill="#FD7CAE" />
    <path d="M105.513 140.791C105.335 143.366 104.983 145.926 104.46 148.453C103.912 150.973 103.172 153.493 101.881 155.779C100.599 158.016 99.2094 160.222 97.4335 162.142C96.5445 163.113 95.5307 163.96 94.4188 164.662C93.8602 165.013 93.2703 165.31 92.6566 165.551C92.3524 165.678 92.0345 165.777 91.7303 165.871C91.4261 165.964 91.1164 166.077 90.7958 166.146C90.1478 166.323 89.4773 166.403 88.8061 166.383C88.1222 166.363 87.4494 166.204 86.8274 165.918C86.2108 165.631 85.6459 165.244 85.1557 164.772C84.913 164.543 84.6825 164.301 84.465 164.048C84.244 163.792 84.0389 163.522 83.8511 163.241C83.4791 162.651 83.2337 161.989 83.1304 161.299C83.0252 160.62 83.0326 159.929 83.1523 159.252C83.2632 158.579 83.4651 157.924 83.7525 157.305C83.8994 156.991 84.0775 156.692 84.2842 156.413C84.4843 156.136 84.7081 155.877 84.9529 155.639C85.4388 155.186 85.9623 154.775 86.5177 154.411C87.0658 154.044 87.5975 153.706 88.1319 153.358C89.2048 152.685 90.2229 151.927 91.1767 151.092C92.1241 150.249 92.9703 149.298 93.6981 148.258C94.4274 147.209 95.0499 146.088 95.5562 144.914L95.6932 144.972C95.2339 146.183 94.6574 147.345 93.9721 148.442C93.2762 149.543 92.4569 150.559 91.5303 151.472C90.5949 152.374 89.5866 153.197 88.5156 153.931C87.4742 154.683 86.3643 155.35 85.501 156.204C85.2912 156.419 85.0996 156.651 84.9282 156.898C84.7519 157.134 84.6003 157.388 84.476 157.655C84.221 158.204 84.0421 158.786 83.9443 159.385C83.8419 159.978 83.8281 160.583 83.9032 161.18C83.9808 161.765 84.1777 162.328 84.4815 162.833C85.1474 163.833 86.0217 164.794 87.096 165.312C88.2123 165.805 89.4654 165.889 90.6368 165.549C90.9355 165.474 91.2288 165.375 91.5357 165.273C91.8427 165.171 92.1387 165.086 92.4237 164.967C93.0029 164.739 93.5598 164.457 94.0872 164.125C95.1411 163.442 96.0988 162.621 96.9347 161.682C97.782 160.74 98.5605 159.737 99.2642 158.682C99.9822 157.633 100.654 156.545 101.292 155.438C101.928 154.342 102.465 153.192 102.898 152.001C103.343 150.804 103.724 149.584 104.038 148.346C104.678 145.861 105.109 143.327 105.326 140.769L105.513 140.791Z" fill="#7D1B5C" />
    <path d="M93.9509 175.791L94.0989 175.926C96.1379 177.697 99.306 176.645 100.038 174.034C100.46 172.511 100.621 170.922 100.893 169.402C100.927 169.209 100.943 169.014 100.942 168.818C102.819 156.534 95.7624 157.776 94.1784 159.275C90.6567 162.596 91.446 173.426 93.9509 175.791Z" fill="#FD7CAE" />
    <path fill-rule="evenodd" clip-rule="evenodd" d="M99.2685 175.777C98.9424 176.002 98.5869 176.181 98.212 176.308C97.8388 176.414 97.4525 176.467 97.0646 176.464C97.0621 176.464 97.0597 176.464 97.0573 176.464C96.6674 176.481 96.2768 176.452 95.8935 176.379L95.8911 176.378C95.8095 176.364 95.7302 176.339 95.6556 176.303C95.6499 176.3 95.644 176.297 95.638 176.295C95.5513 176.267 95.4662 176.233 95.383 176.196C95.2244 176.11 95.072 176.013 94.9271 175.905C94.8959 175.88 94.8634 175.857 94.8332 175.835L94.8116 175.819C94.7749 175.792 94.7416 175.767 94.7109 175.741L94.5022 175.548C94.5012 175.547 94.5002 175.546 94.4992 175.545L94.399 175.457L94.3063 175.354L94.1178 175.143C94.0876 175.104 94.058 175.067 94.029 175.031C93.9362 174.916 93.851 174.81 93.7816 174.69C93.7416 174.621 93.6988 174.553 93.6576 174.488C93.6461 174.469 93.6348 174.451 93.6236 174.434C93.5717 174.351 93.5233 174.271 93.4813 174.188L93.4799 174.185C93.1089 173.486 92.817 172.749 92.6096 171.985L92.6092 171.983C92.3923 171.216 92.2517 170.428 92.1895 169.632L92.1895 169.632C92.1214 168.828 92.1023 168.025 92.1023 167.201L92.1023 167.201C92.0972 165.586 92.2927 163.977 92.6844 162.412C92.874 161.651 93.1722 160.922 93.5699 160.248L93.5711 160.246C93.9384 159.599 94.4873 159.075 95.149 158.74C95.8384 158.453 96.596 158.372 97.33 158.508C97.3313 158.509 97.3326 158.509 97.3339 158.509C97.7055 158.568 98.068 158.674 98.4126 158.826C98.582 158.902 98.7455 158.99 98.9021 159.09C99.056 159.192 99.2016 159.306 99.3375 159.431L99.3386 159.431C99.6169 159.682 99.8541 159.976 100.041 160.301L100.042 160.304C100.24 160.634 100.398 160.987 100.513 161.354L100.513 161.354C100.75 162.112 100.889 162.898 100.929 163.691C100.97 164.502 100.97 165.314 100.929 166.125L100.929 166.126C100.911 166.512 100.883 166.9 100.855 167.289L100.85 167.361C100.821 167.774 100.792 168.19 100.775 168.605C100.774 168.645 100.788 168.683 100.815 168.712C100.842 168.741 100.879 168.758 100.919 168.759L101.028 168.762C101.099 168.764 101.161 168.715 101.176 168.646C101.532 167.011 101.697 165.34 101.667 163.668L101.667 163.665C101.639 162.812 101.5 161.965 101.252 161.148C101.124 160.727 100.948 160.322 100.726 159.942C100.506 159.551 100.227 159.198 99.8986 158.893C99.7335 158.74 99.5577 158.598 99.3725 158.47L99.3696 158.468C99.1818 158.344 98.9845 158.235 98.7796 158.143C98.3758 157.957 97.9495 157.826 97.5117 157.752C96.6255 157.58 95.7087 157.671 94.873 158.014C94.8711 158.015 94.8691 158.015 94.8672 158.016C94.4506 158.209 94.0673 158.467 93.732 158.781L93.7312 158.781C93.4062 159.09 93.1219 159.44 92.8853 159.821L92.8847 159.822C92.4333 160.562 92.0941 161.366 91.8783 162.207L91.8781 162.207C91.4662 163.839 91.2612 165.517 91.268 167.2C91.257 168.036 91.2845 168.88 91.3562 169.711C91.4241 170.56 91.5744 171.399 91.805 172.218C92.0294 173.045 92.3466 173.845 92.7506 174.601C93.1493 175.406 93.7485 176.094 94.4899 176.597C94.4925 176.599 94.4951 176.6 94.4977 176.602C94.6974 176.72 94.9089 176.817 95.1287 176.89C95.1308 176.891 95.133 176.892 95.1351 176.892C95.2446 176.923 95.3555 176.949 95.4674 176.969C95.5826 176.999 95.7008 177.015 95.8196 177.019C96.2465 177.037 96.674 177.024 97.099 176.98C97.5276 176.945 97.9501 176.856 98.3562 176.713C98.3588 176.712 98.3614 176.711 98.364 176.71C98.7595 176.546 99.133 176.333 99.4757 176.075C99.5368 176.029 99.5529 175.944 99.5127 175.879L99.4771 175.821C99.4559 175.787 99.4216 175.762 99.3822 175.754C99.3428 175.746 99.3017 175.754 99.2685 175.777Z" fill="#7D1B5C" />
    <path fill-rule="evenodd" clip-rule="evenodd" d="M105.315 154.659C105.352 154.636 105.397 154.631 105.439 154.645L105.447 154.648C105.5 154.665 105.539 154.712 105.546 154.768C105.554 154.823 105.529 154.879 105.483 154.91C104.816 155.366 104.226 155.927 103.736 156.571L103.735 156.573C103.238 157.211 102.823 157.91 102.502 158.653L102.501 158.654C102.462 158.743 102.427 158.836 102.391 158.931C102.386 158.947 102.38 158.964 102.374 158.98C102.344 159.059 102.314 159.14 102.282 159.22L102.181 159.502L102.097 159.79C102.073 159.883 102.049 159.969 102.025 160.053C101.995 160.16 101.965 160.264 101.938 160.375L101.767 161.268L101.735 161.565L101.735 161.566L101.672 162.171C101.645 162.57 101.651 162.982 101.659 163.381C101.66 163.42 101.644 163.459 101.617 163.487C100.751 164.375 101.078 161.311 101.1 161.161C101.101 161.157 101.102 161.153 101.103 161.148L101.325 160.228C101.325 160.226 101.326 160.224 101.327 160.221C101.37 160.075 101.419 159.931 101.467 159.79C101.487 159.731 101.506 159.673 101.525 159.616L101.525 159.616L101.624 159.316C101.625 159.312 101.627 159.308 101.628 159.304L101.752 159.014C101.778 158.956 101.803 158.896 101.829 158.835C101.886 158.701 101.945 158.563 102.01 158.432C102.381 157.667 102.848 156.954 103.4 156.309C103.947 155.66 104.594 155.103 105.315 154.659Z" fill="#7D1B5C" />
    <path fill-rule="evenodd" clip-rule="evenodd" d="M63.4141 158.269C63.4596 158.226 63.5267 158.217 63.5819 158.246C64.3445 158.641 65.0245 159.18 65.585 159.833C66.1505 160.48 66.6197 161.205 66.9779 161.987L66.9781 161.987C67.3346 162.769 67.5854 163.596 67.7238 164.445L67.7785 164.755C67.7792 164.759 67.7798 164.763 67.7802 164.768L67.8077 165.083L67.8572 165.713C67.8667 165.859 67.8634 166.012 67.8604 166.156C67.8589 166.224 67.8575 166.291 67.8575 166.353V166.357C67.8575 166.564 67.8575 166.778 67.8318 166.996C67.823 167.07 67.7602 167.126 67.6856 167.126H67.6363C67.5643 167.126 67.5029 167.074 67.491 167.003C67.4565 166.795 67.433 166.587 67.4101 166.385L67.4091 166.377C67.3858 166.171 67.363 165.971 67.3296 165.773L67.2171 165.167L67.1654 164.866L67.1062 164.568C67.0571 164.371 67.0079 164.173 66.9613 163.975C66.9318 163.849 66.8903 163.733 66.8459 163.609C66.8228 163.544 66.799 163.477 66.7756 163.406L66.7754 163.405L66.684 163.121L66.5741 162.852C66.5466 162.787 66.5214 162.725 66.497 162.664C66.4469 162.54 66.4 162.424 66.343 162.311C66.3421 162.309 66.3412 162.308 66.3404 162.306C66.0076 161.576 65.596 160.885 65.1128 160.246L65.1121 160.245C64.6295 159.596 64.0645 159.014 63.4315 158.513C63.4122 158.497 63.397 158.477 63.3873 158.455L63.3791 158.436C63.3546 158.378 63.3686 158.311 63.4141 158.269Z" fill="#7D1B5C" />
    <path d="M112.437 103.379C112.476 103.381 113.478 103.431 114.53 103.154C116.053 102.747 116.951 101.8 117.058 100.498L117.085 100.215L116.895 99.9986C116.009 98.9769 115.864 98.49 115.844 98.3408C117.853 95.3226 119.234 91.1733 119.199 88.2233C119.217 87.2797 118.885 86.3716 118.289 85.6636C117.684 84.955 116.85 84.5056 115.938 84.4041L115.919 84.4029C113.717 84.1997 110.297 84.6388 106.993 85.5517C104.84 86.1368 101.002 87.4153 99.4463 89.3345L112.437 103.379Z" fill="#FD7CAE" />
    <path d="M114.763 89.4507C114.817 88.7224 114.715 88.5232 114.638 88.4371C114.559 88.3612 114.459 88.3144 114.355 88.3182L114.356 88.3081C113.974 88.2948 113.59 88.312 113.205 88.3595C112.83 88.3975 112.464 88.4563 112.098 88.5355C111.375 88.6842 110.66 88.8842 109.952 89.1355C109.254 89.3873 108.575 89.6709 107.903 90.0056C107.562 90.1676 107.241 90.3511 106.91 90.5239C106.579 90.6966 106.267 90.901 105.945 91.0947C105.849 91.1497 105.751 91.225 105.684 91.3123C105.616 91.4098 105.557 91.518 105.53 91.6281C105.502 91.7483 105.495 91.8697 105.509 91.9824C105.522 92.1051 105.557 92.219 105.623 92.3145C105.737 92.484 109.425 96.51 110.735 97.9416C110.988 98.2111 111.403 98.1858 111.619 97.8738C113.95 94.5318 114.703 90.27 114.763 89.4507Z" fill="#7D1B5C" />
    <path d="M69.1926 103.083C69.154 103.085 68.1515 103.135 67.1003 102.858C65.5771 102.451 64.679 101.504 64.5716 100.202L64.545 99.9192L64.735 99.7027C65.621 98.6809 65.7658 98.194 65.7858 98.0449C63.7769 95.0267 62.396 90.8774 62.4312 87.9274C62.4131 86.9838 62.7453 86.0757 63.3408 85.3677C63.946 84.6591 64.7795 84.2097 65.6919 84.1082L65.7111 84.107C67.913 83.9038 71.3332 84.3429 74.6368 85.2558C76.7894 85.8409 80.6275 87.1194 82.1836 89.0386L69.1926 103.083Z" fill="#FD7CAE" />
    <path d="M66.8671 89.1548C66.813 88.4265 66.9148 88.2273 66.9923 88.1412C67.0705 88.0653 67.1711 88.0185 67.2748 88.0223L67.2742 88.0122C67.656 87.9989 68.0398 88.0161 68.4253 88.0636C68.7999 88.1016 69.1655 88.1604 69.5322 88.2396C70.2548 88.3883 70.9702 88.5883 71.6782 88.8396C72.376 89.0914 73.055 89.375 73.7267 89.7097C74.0675 89.8717 74.3888 90.0552 74.7198 90.228C75.0508 90.4007 75.363 90.6051 75.685 90.7988C75.7814 90.8538 75.879 90.9291 75.9463 91.0164C76.0142 91.1139 76.0724 91.2221 76.0998 91.3322C76.1277 91.4524 76.135 91.5738 76.1211 91.6865C76.1078 91.8092 76.0732 91.9231 76.0066 92.0186C75.8927 92.1881 72.2046 96.2141 70.8945 97.6457C70.6418 97.9152 70.2266 97.8899 70.0113 97.5779C67.6796 94.2359 66.9268 89.9741 66.8671 89.1548Z" fill="#7D1B5C" />
    <path d="M89.9888 86.6983L89.9853 86.6982C89.9799 86.698 89.9723 86.6978 89.9626 86.6976C89.9433 86.6971 89.9155 86.6964 89.8796 86.6959C89.8079 86.6947 89.7039 86.6939 89.5703 86.6949C89.3031 86.6969 88.9174 86.7061 88.4352 86.7349C87.4713 86.7924 86.1185 86.9283 84.5539 87.2417C81.4314 87.867 77.4257 89.2072 73.9911 92.0807C70.5988 94.9189 68.6085 97.7431 67.3771 100.116C66.4297 101.941 65.9255 103.523 65.5959 104.557C65.501 104.854 65.4206 105.106 65.3483 105.306C65.0211 106.209 63.9515 108.367 62.6494 110.409C62.001 111.426 61.3081 112.393 60.6365 113.149C59.9448 113.928 59.3486 114.398 58.9051 114.547L58.3662 114.727L58.4678 115.289C59.5127 121.064 64.1161 124.223 67.1097 126.277L67.1098 126.277C67.4129 126.485 67.6994 126.681 67.9641 126.868C75.4725 133.499 82.8559 134.189 87.3907 134.612L87.4526 134.618L87.4542 134.618C91.1128 134.974 94.9243 134.795 98.358 134.153C101.783 133.513 104.88 132.402 107.075 130.858L107.081 130.854L107.087 130.85C107.843 130.292 108.646 129.737 109.473 129.164C113.441 126.419 117.973 123.284 120.543 117.649L120.861 116.952L120.128 116.741C119.237 116.486 118.278 116.036 117.487 115.463C116.685 114.883 116.123 114.227 115.91 113.586L115.91 113.586C115.741 113.076 115.622 112.373 115.473 111.49C114.99 108.633 114.188 103.89 110.321 97.7009C104.412 88.2437 94.6754 86.7945 89.9888 86.6983Z" fill="#FD7CAE" />
    <path d="M96.672 134.531C101.073 133.994 103.614 132.823 104.058 132.603C106.354 131.488 110.46 129.13 109.89 123.409C109.068 115.004 98.8644 119.028 99.2947 120.327C99.2947 120.327 102.962 126.687 102.8 128.213C102.608 130.044 96.672 134.531 96.672 134.531Z" fill="white" />
    <path d="M102.833 126.924C102.183 133.809 99.3495 135.338 87.6746 134.762C73.525 134.063 74.402 128.4 75.1173 123.142C75.8326 117.885 82.61 114.469 90.2645 115.513C97.919 116.557 103.345 121.641 102.833 126.924Z" fill="white" />
    <path d="M77.6468 132.801C74.1636 131.7 70.757 129.185 70.2966 128.876C67.556 127.045 64.873 122.297 66.3967 119.493C69.743 113.329 75.8764 117.81 76.9918 119.217C76.9918 119.217 72.2808 125.701 72.2205 127.232C72.1465 129.061 77.6468 132.801 77.6468 132.801Z" fill="white" />
    <path d="M103.949 124.539C106.04 132.724 97.87 134.341 96.6723 134.531C95.1579 134.808 93.6156 134.901 92.0791 134.806C96.2393 133.738 101.104 133.638 100.002 125.048C99.7144 122.812 96.8998 118.292 97.5603 117.937C99.5088 116.89 103.376 122.291 103.949 124.539Z" fill="#7D1B5C" />
    <path d="M71.5547 123.06C68.2934 130.854 80.3246 133.953 82.7007 134.228C81.673 133.482 79.5572 132.655 77.6471 131.198C75.9232 129.876 74.2707 128.103 75.3751 124.148C75.9835 121.977 79.4175 117.912 78.8173 117.466C77.0496 116.141 72.4345 120.92 71.5547 123.06Z" fill="#7D1B5C" />
    <path d="M90.4175 119.521C90.3709 120.479 87.655 121.402 86.9068 121.534C85.8901 121.713 83.5633 120.157 83.6181 119.187C83.673 118.218 84.5636 117.496 87.1069 117.62C89.5707 117.744 90.4641 118.565 90.4175 119.521Z" fill="black" />
    <path d="M89.8015 125.494C90.0501 125.451 90.2923 125.376 90.5223 125.271C91.9748 124.624 91.909 122.85 91.6733 122.002C91.637 121.877 91.5528 121.772 91.4392 121.709C91.3256 121.647 91.192 121.632 91.0677 121.669C90.9434 121.705 90.8386 121.79 90.7764 121.904C90.7142 122.018 90.6997 122.153 90.7361 122.277C90.7552 122.341 91.1746 123.93 90.1276 124.387C88.3846 125.167 87.0801 123.084 87.028 122.994C86.9862 122.927 86.9291 122.871 86.8614 122.83C86.7937 122.79 86.7174 122.767 86.6389 122.762C86.5601 122.757 86.4813 122.772 86.4096 122.805C86.3379 122.839 86.2755 122.889 86.2278 122.952C86.0716 123.153 84.6711 124.899 83.2268 123.991C82.454 123.506 83.0103 122.123 83.0158 122.109C83.0652 121.99 83.0654 121.856 83.0163 121.736C82.9673 121.617 82.8729 121.522 82.7541 121.472C82.6352 121.422 82.5016 121.422 82.3827 121.471C82.2637 121.521 82.1691 121.615 82.1196 121.735C81.7853 122.534 81.5359 124.081 82.7116 124.82C84.0572 125.668 85.5399 125.081 86.5758 124.032C87.25 124.842 88.4175 125.728 89.8015 125.494Z" fill="black" />
    <path d="M86.1094 120.135C86.0327 120.391 85.9751 120.636 85.9203 120.892C85.8654 121.148 85.8233 121.406 85.7942 121.666C85.7615 121.94 85.7486 122.216 85.7559 122.492C85.7645 122.794 85.8153 123.094 85.9066 123.382V123.407C85.9272 123.485 85.9635 123.558 86.0134 123.622C86.0632 123.685 86.1255 123.738 86.1964 123.776C86.2673 123.815 86.3453 123.838 86.4255 123.845C86.5058 123.852 86.5866 123.843 86.663 123.817C86.7394 123.791 86.8097 123.75 86.8697 123.696C86.9296 123.642 86.9779 123.576 87.0116 123.503C87.0452 123.429 87.0635 123.349 87.0653 123.269C87.0671 123.188 87.0524 123.107 87.022 123.032C87.0075 122.992 86.9901 122.954 86.9699 122.916C86.8743 122.744 86.8041 122.558 86.7617 122.366C86.7111 122.145 86.6781 121.92 86.663 121.694C86.6423 121.457 86.6341 121.22 86.6383 120.983C86.6383 120.746 86.6548 120.498 86.6767 120.267C86.6807 120.195 86.6587 120.124 86.6148 120.068C86.5709 120.011 86.508 119.972 86.4379 119.959C86.3677 119.945 86.295 119.957 86.2331 119.993C86.1712 120.029 86.1243 120.086 86.1012 120.154L86.1094 120.135Z" fill="black" />
    <path d="M77.3347 115.733C78.8873 115.705 80.1181 114.12 80.0836 112.193C80.0491 110.266 78.7625 108.727 77.2098 108.755C75.6571 108.783 74.4264 110.368 74.4609 112.295C74.4953 114.222 75.782 115.761 77.3347 115.733Z" fill="black" />
    <path d="M76.2716 112.524C76.712 112.516 77.0594 111.977 77.0477 111.32C77.0359 110.663 76.6694 110.137 76.229 110.145C75.7886 110.153 75.4412 110.692 75.4529 111.349C75.4647 112.006 75.8312 112.532 76.2716 112.524Z" fill="white" />
    <path d="M99.9831 117.045C101.536 117.017 102.767 115.432 102.732 113.505C102.698 111.578 101.411 110.039 99.8583 110.067C98.3056 110.095 97.0748 111.68 97.1093 113.607C97.1438 115.533 98.4304 117.073 99.9831 117.045Z" fill="black" />
    <path d="M98.923 113.839C99.3633 113.831 99.7108 113.292 99.6991 112.635C99.6873 111.978 99.3208 111.451 98.8804 111.459C98.44 111.467 98.0925 112.006 98.1043 112.663C98.116 113.32 98.4826 113.847 98.923 113.839Z" fill="white" />
    <path d="M80.9735 107.487C80.916 108.658 79.3292 107.611 77.3231 107.512C75.317 107.413 73.689 107.168 73.7466 105.995C73.8041 104.821 75.4814 103.954 77.493 104.05C80.165 104.182 81.0311 106.314 80.9735 107.487Z" fill="white" />
    <path d="M96.9516 108.27C96.8941 109.44 98.5713 108.545 100.583 108.652C102.595 108.76 104.233 108.652 104.291 107.493C104.348 106.333 102.762 105.29 100.75 105.193C98.0753 105.061 97.0092 107.096 96.9516 108.27Z" fill="white" />
    <path d="M127.857 41.7612L127.858 41.7607C128.412 41.2002 129.067 40.7575 129.786 40.4561C130.505 40.1547 131.275 40 132.051 40C132.827 40 133.597 40.1547 134.316 40.4561L135.475 37.6893L134.316 40.4561C135.035 40.7575 135.69 41.2002 136.244 41.7607L136.245 41.7617C136.799 42.322 137.241 42.9892 137.542 43.7259L140.319 42.5888L137.542 43.7259C137.844 44.4627 138 45.2536 138 46.0531C138 46.8526 137.844 47.6435 137.542 48.3803L140.319 49.5174L137.542 48.3804C137.241 49.1171 136.799 49.7842 136.245 50.3445L136.245 50.345L134.521 52.0892L124 62.7326L113.479 52.0892L111.754 50.345C110.635 49.2126 110 47.6694 110 46.0531C110 44.4368 110.635 42.8937 111.754 41.7612C112.873 40.63 114.382 40.0009 115.948 40.0009C117.514 40.0009 119.024 40.63 120.142 41.7612L121.866 43.5054C122.43 44.0756 123.198 44.3964 124 44.3964C124.801 44.3964 125.57 44.0756 126.133 43.5054L127.857 41.7612Z" stroke="url(#paint3_linear)" stroke-width="6" stroke-linecap="round" stroke-linejoin="round" />
    <path d="M156.489 7.50933L156.49 7.51032C156.969 7.98831 157.349 8.55561 157.608 9.17969C157.867 9.80377 158 10.4725 158 11.1478C158 11.8231 157.867 12.4918 157.608 13.1159C157.349 13.74 156.969 14.3073 156.49 14.7853L156.49 14.7858L154.918 16.3556L145.5 25.7604L136.081 16.3556L134.509 14.7858C133.542 13.8202 133 12.5115 133 11.1478C133 9.78411 133.542 8.4754 134.509 7.50982C135.477 6.5441 136.789 6.00079 138.159 6.00079C139.528 6.00079 140.841 6.5441 141.808 7.50982L143.38 9.07961C144.551 10.2492 146.448 10.2492 147.619 9.07961L149.191 7.50982L149.192 7.50932C149.671 7.0311 150.239 6.65151 150.865 6.39246C151.491 6.13339 152.163 6 152.841 6C153.519 6 154.19 6.13339 154.816 6.39245C155.442 6.65151 156.011 7.0311 156.489 7.50933Z" stroke="url(#paint4_linear)" stroke-width="6" stroke-linecap="round" stroke-linejoin="round" />
    <defs>
        <linearGradient id="paint0_linear" x1="48" y1="59.5" x2="62" y2="59.5" gradientUnits="userSpaceOnUse">
            <stop offset="0.489583" stop-color="#F0256F" />
            <stop offset="1" stop-color="#B12170" />
        </linearGradient>
        <linearGradient id="paint1_linear" x1="41" y1="40" x2="49" y2="40" gradientUnits="userSpaceOnUse">
            <stop offset="0.489583" stop-color="#F0256F" />
            <stop offset="1" stop-color="#B12170" />
        </linearGradient>
        <linearGradient id="paint2_linear" x1="61" y1="40" x2="69" y2="40" gradientUnits="userSpaceOnUse">
            <stop offset="0.489583" stop-color="#F0256F" />
            <stop offset="1" stop-color="#B12170" />
        </linearGradient>
        <linearGradient id="paint3_linear" x1="107" y1="52" x2="141" y2="52" gradientUnits="userSpaceOnUse">
            <stop offset="0.489583" stop-color="#F0256F" />
            <stop offset="1" stop-color="#B12170" />
        </linearGradient>
        <linearGradient id="paint4_linear" x1="130" y1="16.5" x2="161" y2="16.5" gradientUnits="userSpaceOnUse">
            <stop offset="0.489583" stop-color="#F0256F" />
            <stop offset="1" stop-color="#B12170" />
        </linearGradient>
    </defs>
</svg>
