<svg width="157" height="175" viewBox="0 0 157 175" fill="none" xmlns="http://www.w3.org/2000/svg">
<path d="M101.371 28.9239C101.371 27.3139 101.371 25.7039 101.371 24.1039C101.341 23.8963 101.265 23.6982 101.147 23.5248C101.029 23.3515 100.873 23.2075 100.691 23.1039C99.9903 22.8787 99.3908 22.4153 98.9963 21.7943C98.6017 21.1733 98.437 20.4337 98.5307 19.7039C98.5307 16.2239 98.5307 12.7039 98.5307 9.24392C98.5307 4.04392 101.661 0.353922 106.851 0.183922C114.851 -0.0760781 122.851 -0.0460781 130.851 0.183922C135.851 0.343922 138.951 3.91392 139.081 8.86392C139.181 12.5639 139.081 16.2539 139.081 19.9539C139.081 21.8039 138.081 22.8339 136.231 23.2739C136.231 24.9939 136.231 26.6939 136.231 28.3939C136.231 28.6639 136.561 28.9439 136.791 29.1739C137.664 29.8439 138.447 30.6236 139.121 31.4939C144.694 41.5539 150.207 51.6406 155.661 61.7539C156.131 62.6833 156.372 63.7122 156.361 64.7539C156.401 99.8939 156.401 135.027 156.361 170.154C156.361 173.154 155.361 174.074 152.411 174.074H85.0107C82.0907 174.074 81.0107 173.024 81.0107 170.144C81.0107 135.064 81.0107 99.9839 81.0107 64.9039C81.026 63.8196 81.2967 62.7541 81.8007 61.7939C87.2674 51.6206 92.7874 41.4773 98.3607 31.3639C99.0491 30.4036 99.8517 29.5305 100.751 28.7639L101.281 28.9339L101.371 28.9239ZM150.451 153.764V107.494H87.0107C87.0107 122.954 87.0107 138.284 87.0107 153.814H118.731C118.731 155.814 118.731 157.604 118.731 159.564H87.0107V168.154H150.561V159.494H136.301V153.744H150.541L150.451 153.764ZM150.541 101.494V66.8739H87.0107C87.0107 78.4639 87.0107 89.9439 87.0107 101.504H150.571L150.541 101.494ZM148.571 60.8839C148.455 60.5875 148.325 60.2972 148.181 60.0139C143.771 51.9439 139.371 43.8639 134.901 35.8339C134.701 35.5703 134.447 35.3533 134.155 35.1979C133.863 35.0425 133.541 34.9524 133.211 34.9339C123.641 34.8839 114.071 34.9339 104.501 34.8739C104.081 34.8412 103.662 34.9414 103.303 35.1604C102.944 35.3795 102.663 35.7061 102.501 36.0939C98.3307 43.8239 94.1107 51.5139 89.9107 59.2239C89.6407 59.7139 89.4307 60.2239 89.1207 60.8739H148.611L148.571 60.8839ZM104.401 17.3539H133.231C133.231 14.6239 133.231 11.9839 133.231 9.35392C133.231 6.94392 132.231 5.95392 129.791 5.92392C127.041 5.92392 124.281 5.92392 121.521 5.92392C116.941 5.92392 112.361 5.92392 107.781 5.92392C105.721 5.92392 104.521 6.70392 104.441 8.42392C104.301 11.3639 104.441 14.3239 104.441 17.4239L104.401 17.3539ZM107.291 29.0139H130.291V23.3839H107.291V29.0139Z" fill="#FD7CAE"/>
<path d="M34.8508 78.2422H65.6108C68.4208 78.2422 69.6108 79.3422 69.4008 82.1222C68.8808 90.8422 68.2908 99.5622 67.7208 108.292C67.2808 115.092 66.8374 121.892 66.3908 128.692C65.7908 138.092 65.1941 147.489 64.6008 156.882C64.3308 161.192 64.0808 165.502 63.8208 169.812C63.6208 173.142 62.8208 173.902 59.5308 173.902H9.58076C6.71076 173.902 5.81076 173.122 5.63076 170.302C5.13076 162.572 4.70076 154.832 4.19076 147.092C3.52076 136.762 2.77076 126.442 2.11076 116.092C1.37743 104.706 0.677429 93.2855 0.0107622 81.8322C-0.129238 79.5122 1.10076 78.2422 3.46076 78.2422C13.9208 78.2422 24.3808 78.2422 34.8408 78.2422H34.8508ZM7.39076 106.132C7.39076 106.812 7.39076 107.332 7.39076 107.842C8.08076 118.012 8.79076 128.182 9.46076 138.352C10.0908 147.742 10.7208 157.132 11.2508 166.532C11.3308 167.952 11.8208 168.212 13.1208 168.212C22.8508 168.212 32.5808 168.212 42.3108 168.212H56.6708C57.4408 168.212 58.1008 168.212 58.1608 167.152C58.4708 161.912 58.8308 156.672 59.1608 151.422C59.7274 143.269 60.2608 135.132 60.7608 127.012C61.2308 119.742 61.7008 112.472 62.2108 105.212C62.2482 105.036 62.2482 104.854 62.211 104.678C62.1737 104.501 62.1 104.335 61.9945 104.189C61.889 104.043 61.754 103.921 61.5984 103.83C61.4427 103.739 61.2698 103.682 61.0908 103.662C55.8155 102.174 50.276 101.873 44.8708 102.782C39.6108 103.782 34.4308 105.112 29.2008 106.242C24.2844 107.364 19.2193 107.684 14.2008 107.192C12.0008 106.962 9.81076 106.552 7.42076 106.192L7.39076 106.132ZM62.5808 97.8122C62.6908 96.8622 62.7908 96.1022 62.8508 95.3322C63.0508 92.3322 63.2208 89.3322 63.4308 86.3322C63.5708 84.3322 63.5608 84.2422 61.4308 84.2422H19.1608C15.2608 84.2422 11.3608 84.2422 7.46076 84.2422C6.46076 84.2422 5.95076 84.5122 6.03076 85.6622C6.32076 89.9722 6.50076 94.2822 6.84076 98.5822C6.91642 98.8843 7.06159 99.1646 7.26472 99.4007C7.46785 99.6368 7.72331 99.8223 8.01076 99.9422C10.8294 100.622 13.6936 101.096 16.5808 101.362C24.1108 101.772 31.2808 99.5322 38.5308 97.9622C44.9208 96.5722 51.3208 95.7422 57.8408 96.9622C59.3108 97.2422 60.8408 97.4622 62.5208 97.7522" fill="#FD7CAE"/>
<circle cx="48" cy="113" r="4" fill="url(#paint0_linear)"/>
<circle cx="20" cy="124" r="4" fill="url(#paint1_linear)"/>
<circle cx="38" cy="133" r="4" fill="url(#paint2_linear)"/>
<circle cx="26" cy="153" r="4" fill="url(#paint3_linear)"/>
<circle cx="50" cy="149" r="4" fill="url(#paint4_linear)"/>
<circle cx="119" cy="84" r="8.5" stroke="url(#paint5_linear)" stroke-width="5"/>
<defs>
<linearGradient id="paint0_linear" x1="44" y1="113" x2="52" y2="113" gradientUnits="userSpaceOnUse">
<stop offset="0.489583" stop-color="#F0256F"/>
<stop offset="1" stop-color="#B12170"/>
</linearGradient>
<linearGradient id="paint1_linear" x1="16" y1="124" x2="24" y2="124" gradientUnits="userSpaceOnUse">
<stop offset="0.489583" stop-color="#F0256F"/>
<stop offset="1" stop-color="#B12170"/>
</linearGradient>
<linearGradient id="paint2_linear" x1="34" y1="133" x2="42" y2="133" gradientUnits="userSpaceOnUse">
<stop offset="0.489583" stop-color="#F0256F"/>
<stop offset="1" stop-color="#B12170"/>
</linearGradient>
<linearGradient id="paint3_linear" x1="22" y1="153" x2="30" y2="153" gradientUnits="userSpaceOnUse">
<stop offset="0.489583" stop-color="#F0256F"/>
<stop offset="1" stop-color="#B12170"/>
</linearGradient>
<linearGradient id="paint4_linear" x1="46" y1="149" x2="54" y2="149" gradientUnits="userSpaceOnUse">
<stop offset="0.489583" stop-color="#F0256F"/>
<stop offset="1" stop-color="#B12170"/>
</linearGradient>
<linearGradient id="paint5_linear" x1="108" y1="84" x2="130" y2="84" gradientUnits="userSpaceOnUse">
<stop offset="0.489583" stop-color="#F0256F"/>
<stop offset="1" stop-color="#B12170"/>
</linearGradient>
</defs>
</svg>
