<svg width="163" height="175" viewBox="0 0 163 175" fill="none" xmlns="http://www.w3.org/2000/svg">
<path d="M28.98 69.55V67.55C28.98 50.1233 28.98 32.6867 28.98 15.24C28.98 8.99 31.69 4.24 37.33 1.57C39.5112 0.584785 41.8766 0.0735297 44.27 0.07C66.91 0 89.54 0 112.18 0C118.44 0 123.34 2.6 126 8.37C126.965 10.7173 127.458 13.232 127.45 15.77C127.63 23.37 127.52 30.97 127.52 38.57V40.57H129.52C137.11 40.57 144.71 40.69 152.31 40.57C158.71 40.44 162.47 44.76 162.31 50.66C162.16 57.58 162.31 64.51 162.31 71.43C162.31 77.63 158.74 81.2 152.51 81.21C144.86 81.21 137.21 81.21 129.56 81.21H127.5V83.51C127.5 108.39 127.5 133.267 127.5 158.14C127.5 161.82 126.83 165.31 124.5 168.25C123.052 170.114 121.182 171.608 119.043 172.607C116.905 173.607 114.559 174.084 112.2 174C89.51 174 66.82 174 44.14 174C34.98 173.93 28.98 167.67 28.98 158.52C28.98 143.067 28.98 127.61 28.98 112.15V110.15H27.14C21.2 110.15 15.27 110.15 9.34 110.15C3.58 110.15 0.02 106.55 0 100.77C0 93.53 0 86.2967 0 79.07C0 73.14 3.63 69.57 9.57 69.55H28.98ZM34.83 69.55H36.83C44.63 69.55 52.44 69.55 60.24 69.55C65.85 69.55 69.54 73.26 69.57 78.86C69.61 86.2533 69.61 93.6433 69.57 101.03C69.6123 102.733 69.1754 104.415 68.3091 105.882C67.4428 107.349 66.1819 108.544 64.67 109.33C64.4188 109.499 64.2062 109.719 64.0459 109.976C63.8857 110.232 63.7814 110.52 63.74 110.82C63.65 113.27 63.66 115.72 63.74 118.16C63.74 119.64 63.46 120.92 62 121.5C60.54 122.08 59.32 121.5 58.24 120.36C55.18 117.24 52.08 114.16 48.97 111.08C48.58 110.7 48.06 110.2 47.6 110.19C43.4 110.12 39.19 110.19 34.89 110.19V139.07H121.58C121.58 119.76 121.58 100.55 121.58 81.24C119.43 81.24 117.4 81.17 115.38 81.24C114.637 81.3012 113.935 81.6031 113.38 82.1C110.12 85.24 106.92 88.44 103.72 91.64C103.327 92.1319 102.784 92.4821 102.174 92.6373C101.564 92.7926 100.92 92.7443 100.34 92.5C99.7498 92.2721 99.2533 91.8524 98.9305 91.3082C98.6076 90.7641 98.4772 90.1272 98.56 89.5C98.56 86.95 98.61 84.4 98.56 81.86C98.5517 81.5788 98.4842 81.3026 98.3618 81.0493C98.2395 80.796 98.0651 80.5713 97.85 80.39C94.16 78.52 92.72 75.46 92.75 71.46C92.8 64.46 92.75 57.46 92.75 50.39C92.75 44.11 96.24 40.6 102.49 40.58C108.26 40.58 114.04 40.58 119.81 40.58H121.65V29.22H34.83V69.55ZM34.83 145.12C34.83 150.4 34.83 155.49 34.83 160.59C34.8509 161.003 34.9317 161.41 35.07 161.8C36.33 165.8 39.55 168.18 44.07 168.19C53.6367 168.19 63.21 168.19 72.79 168.19C85.8433 168.19 98.9 168.19 111.96 168.19C118.08 168.19 121.69 164.6 121.7 158.52C121.7 155.08 121.7 151.65 121.7 148.22V145.12H34.88H34.83ZM121.73 23.18C121.73 21.53 121.73 20.02 121.73 18.52C121.814 16.651 121.747 14.7782 121.53 12.92C120.71 8.48 117.16 5.92 112.21 5.86C99.41 5.86 86.61 5.86 73.81 5.86H44.15C39.83 5.86 36.59 7.86 35.38 11.58C34.17 15.3 34.99 19.26 34.77 23.17H121.77L121.73 23.18ZM104.29 82.8C106.36 80.8 108.29 79.05 109.96 77.18C110.493 76.5835 111.154 76.1152 111.893 75.8104C112.633 75.5056 113.432 75.3721 114.23 75.42C127.03 75.42 139.83 75.42 152.63 75.42C155.4 75.42 156.43 74.42 156.43 71.68C156.43 64.44 156.43 57.2033 156.43 49.97C156.43 47.49 155.37 46.39 152.96 46.39C135.993 46.39 119.027 46.39 102.06 46.39C99.7 46.39 98.59 47.48 98.58 49.82C98.58 57.2067 98.58 64.5967 98.58 71.99C98.58 74.18 99.39 75.06 101.58 75.44C101.958 75.4481 102.33 75.5337 102.673 75.6914C103.016 75.8491 103.323 76.0756 103.575 76.3568C103.828 76.638 104.019 76.968 104.139 77.3263C104.258 77.6847 104.303 78.0637 104.27 78.44C104.27 79.78 104.27 81.12 104.27 82.75L104.29 82.8ZM57.62 111.59L57.97 111.4C57.97 110.16 57.97 108.92 57.97 107.68C58.03 105.68 58.74 104.88 60.67 104.45C63.06 103.91 63.67 103.15 63.67 100.67C63.67 93.5433 63.67 86.4133 63.67 79.28C63.67 76.35 62.78 75.45 59.88 75.44H9.64C6.73 75.44 5.84 76.34 5.83 79.26C5.83 86.24 5.83 93.2167 5.83 100.19C5.83 103.54 6.72 104.42 10.09 104.42C22.79 104.42 35.48 104.42 48.18 104.42C48.9298 104.376 49.6798 104.503 50.3729 104.793C51.0661 105.082 51.6841 105.526 52.18 106.09C53.93 107.99 55.81 109.77 57.64 111.61" fill="#FD7CAE"/>
<line x1="110.092" y1="55.9082" x2="144.908" y2="55.9082" stroke="url(#paint0_linear)" stroke-width="6.1835" stroke-linecap="round"/>
<line x1="17.0918" y1="83.9082" x2="51.9082" y2="83.9082" stroke="url(#paint1_linear)" stroke-width="6.1835" stroke-linecap="round"/>
<line x1="110.092" y1="66.9082" x2="131.908" y2="66.9082" stroke="url(#paint2_linear)" stroke-width="6.1835" stroke-linecap="round"/>
<line x1="17.0918" y1="95.9082" x2="38.9082" y2="95.9082" stroke="url(#paint3_linear)" stroke-width="6.1835" stroke-linecap="round"/>
<circle cx="79" cy="15" r="4" fill="url(#paint4_linear)"/>
<circle cx="79" cy="156" r="5.5" stroke="url(#paint5_linear)" stroke-width="5"/>
<defs>
<linearGradient id="paint0_linear" x1="107" y1="59.5" x2="148" y2="59.5" gradientUnits="userSpaceOnUse">
<stop offset="0.489583" stop-color="#F0256F"/>
<stop offset="1" stop-color="#B12170"/>
</linearGradient>
<linearGradient id="paint1_linear" x1="14" y1="87.5" x2="55" y2="87.5" gradientUnits="userSpaceOnUse">
<stop offset="0.489583" stop-color="#F0256F"/>
<stop offset="1" stop-color="#B12170"/>
</linearGradient>
<linearGradient id="paint2_linear" x1="107" y1="70.5" x2="135" y2="70.5" gradientUnits="userSpaceOnUse">
<stop offset="0.489583" stop-color="#F0256F"/>
<stop offset="1" stop-color="#B12170"/>
</linearGradient>
<linearGradient id="paint3_linear" x1="14" y1="99.5" x2="42" y2="99.5" gradientUnits="userSpaceOnUse">
<stop offset="0.489583" stop-color="#F0256F"/>
<stop offset="1" stop-color="#B12170"/>
</linearGradient>
<linearGradient id="paint4_linear" x1="75" y1="15" x2="83" y2="15" gradientUnits="userSpaceOnUse">
<stop offset="0.489583" stop-color="#F0256F"/>
<stop offset="1" stop-color="#B12170"/>
</linearGradient>
<linearGradient id="paint5_linear" x1="71" y1="156" x2="87" y2="156" gradientUnits="userSpaceOnUse">
<stop offset="0.489583" stop-color="#F0256F"/>
<stop offset="1" stop-color="#B12170"/>
</linearGradient>
</defs>
</svg>
