<svg width="42" height="14" viewBox="0 0 42 14" fill="none" xmlns="http://www.w3.org/2000/svg">
    <path d="M6.48382 3.63794H0.946298V5.41786H4.58524C4.82256 5.41786 4.98078 5.61563 4.98078 5.8134V8.93814H4.1897C3.95238 8.93814 3.79417 8.74037 3.79417 8.5426V6.28804H2.25157C1.4605 6.28804 0.827637 6.9209 0.827637 7.71198V9.29413C0.827637 10.0852 1.4605 10.7181 2.25157 10.7181H7.90775V5.06187C7.90775 4.2708 7.2749 3.63794 6.48382 3.63794Z" fill="#35B454" />
    <path d="M13.2479 8.93812H12.4568C12.2195 8.93812 12.0613 8.74035 12.0613 8.54258V3.63792H10.5187C9.72759 3.63792 9.09473 4.27078 9.09473 5.06185V9.2941C9.09473 10.0852 9.72759 10.718 10.5187 10.718H16.1748V0.671387H13.2083L13.2479 8.93812Z" fill="#35B454" />
    <path d="M21.514 8.93814H20.7229C20.4856 8.93814 20.3274 8.74037 20.3274 8.54261V3.63794H17.3608V9.29413C17.3608 10.0852 17.9937 10.7181 18.7848 10.7181H21.514V11.5882H17.4795V13.645H23.0566C23.8476 13.645 24.4805 13.0122 24.4805 12.2211V3.63794H21.514V8.93814Z" fill="#35B454" />
    <path d="M31.3237 3.63794H25.6279V9.29413C25.6279 10.0852 26.2608 10.7181 27.0519 10.7181H32.6289V8.93814H28.99C28.7527 8.93814 28.5945 8.74037 28.5945 8.5426V5.41786H29.3855C29.6229 5.41786 29.7811 5.61563 29.7811 5.8134V8.06796H31.3237C32.1147 8.06796 32.7476 7.4351 32.7476 6.64403V5.06187C32.7476 4.2708 32.1147 3.63794 31.3237 3.63794Z" fill="#35B454" />
    <path d="M39.5903 3.63794H33.9341V10.7181H36.9006V5.41786H37.6917C37.929 5.41786 38.0872 5.61563 38.0872 5.8134V10.7181H41.0538V5.06187C41.0142 4.2708 40.3813 3.63794 39.5903 3.63794Z" fill="#35B454" />
</svg>
