<svg width="42" height="42" viewBox="0 0 42 42" fill="none" xmlns="http://www.w3.org/2000/svg">
    <path d="M35.2505 6.73123C27.3833 -1.14023 14.5954 -1.14023 6.72809 6.73123C-1.13918 14.6027 -1.13918 27.3974 6.72809 35.2689C14.5954 43.1403 27.3833 43.1403 35.2505 35.2689C43.1178 27.3974 43.1178 14.6027 35.2505 6.73123ZM32.1036 21.4437L21.4327 32.1203C21.1753 32.3779 20.7747 32.3779 20.5173 32.1203L9.84639 21.4437C9.58892 21.1861 9.58892 20.7854 9.84639 20.5278L20.5173 9.85119C20.7747 9.59358 21.1753 9.59358 21.4327 9.85119L32.1036 20.5278C32.3611 20.7854 32.3611 21.1861 32.1036 21.4437Z" fill="#2176FF" />
    <path d="M41.1725 20.957C41.1725 15.6044 39.0554 10.4522 35.2792 6.67386C32.075 3.46803 26.8969 3.43941 23.6928 6.64524L20.5459 9.7652C20.6603 9.6507 20.832 9.59346 20.975 9.59346C21.1467 9.59346 21.3183 9.67933 21.4328 9.79382L35.2219 23.619C38.4261 26.8248 38.4261 32.0057 35.2219 35.2115C39.0268 31.4332 41.1725 26.3096 41.1725 20.957Z" fill="#1A53F0" />
    <path d="M6.6998 35.1829C9.90393 38.3888 15.082 38.3888 18.3148 35.2115C18.3148 35.2115 19.6021 33.8662 21.4331 32.0343C21.2042 32.292 20.7751 32.292 20.5176 32.063L20.489 32.0343L9.87532 21.415C9.73228 21.3005 9.67506 21.1002 9.67506 20.9284C9.67506 20.7567 9.73228 20.585 9.84671 20.4705L6.75702 23.5618C3.55289 26.7676 3.52429 31.9485 6.6998 35.1829Z" fill="#1A53F0" />
</svg>
