<svg width="41" height="28" viewBox="0 0 41 28" fill="none" xmlns="http://www.w3.org/2000/svg">
    <path d="M3.25701 8.97653H4.91871C6.20141 8.97653 6.84272 8.55377 6.84272 7.73754C6.84272 6.93598 6.15763 6.49866 4.81668 6.49866H3.25701V8.97653ZM3.25701 3.0004V5.30347H4.71465C5.80783 5.30347 6.37629 4.89526 6.37629 4.15193C6.37629 3.39388 5.79328 3.0004 4.70005 3.0004H3.25701ZM0.939453 10.2156V8.97653H1.91605V3.0004H0.939453V1.76135H4.84585C6.63863 1.76135 7.73187 2.59221 7.73187 4.03529C7.73187 4.98272 7.17802 5.56579 6.47838 5.84268C7.48408 6.11968 8.1983 6.83391 8.1983 7.81044C8.1983 9.3555 7.0031 10.2156 5.04983 10.2156H0.939453Z" fill="black" />
    <path d="M15.2835 5.81356C15.1377 5.31802 14.7733 5.0264 14.2923 5.0264C13.17 5.0264 12.1059 5.85724 12.1059 7.37313V8.97653H14.2632V10.2156H9.45312V8.97653H10.8232V5.24506H9.74464V4.00606H12.0913V5.05552C12.4849 4.32674 13.2866 3.80208 14.3506 3.80208C15.5459 3.80208 16.2892 4.48718 16.5079 5.46372L15.2835 5.81356Z" fill="black" />
    <path d="M21.8424 7.70835C21.4343 7.56259 20.822 7.44602 20.2536 7.44602C19.4373 7.44602 18.6502 7.70835 18.6502 8.45179C18.6502 9.00557 19.1457 9.26808 19.8308 9.26808C20.7783 9.26808 21.8424 8.7578 21.8424 7.88334V7.70835ZM21.8424 6.60061V6.25081C21.8424 5.37617 21.1427 5.01176 20.3848 5.01176C19.6706 5.01176 19.0583 5.3034 18.5627 5.75509L17.7173 4.83696C18.3005 4.29756 19.1312 3.80201 20.3848 3.80201C21.9444 3.80201 23.1542 4.63285 23.1542 6.20697V8.97646H24.0579V10.2155H21.8424V9.55953C21.5071 10.0989 20.6035 10.4194 19.7143 10.4194C18.4315 10.4194 17.3237 9.76363 17.3237 8.46634C17.3237 6.9359 18.8252 6.35284 20.1952 6.35284C20.8658 6.35284 21.4196 6.48404 21.8424 6.60061Z" fill="black" />
    <path d="M29.4514 2.76719H28.0084V0.872334H29.4514V2.76719ZM31.842 8.97653V10.2156H25.5742V8.97653H28.1688V5.24506H26.1865V4.00606H29.4514V8.97653H31.842Z" fill="black" />
    <path d="M32.8662 8.97872H33.8136V5.24726H32.9244V4.00826H35.0817V4.80994C35.4607 4.1978 36.2478 3.80428 37.2097 3.80428C38.5945 3.80428 39.5857 4.6788 39.5857 6.09266V8.97872H40.5332V10.2178H37.3119V8.97872H38.303V6.44245C38.303 5.36389 37.6471 5.05771 37.0495 5.05771C36.0728 5.05771 35.0963 5.78665 35.0963 6.90888V8.97872H36.0874V10.2178H32.8662V8.97872Z" fill="black" />
    <path d="M2.44552 21.8575H0.827637V20.6185H2.44552V18.3738H3.72815V20.6185H6.74538V21.8575H3.72815V24.4666C3.72815 25.4288 4.39868 25.8222 5.17117 25.8222C5.89999 25.8222 6.51223 25.4142 6.96407 24.9623L7.82407 25.8513C7.25565 26.4636 6.38105 27.032 5.17117 27.032C3.61157 27.032 2.44552 26.1721 2.44552 24.5105V21.8575Z" fill="black" />
    <path d="M14.8201 22.4261C14.6743 21.9306 14.31 21.639 13.8289 21.639C12.7067 21.639 11.6425 22.4698 11.6425 23.9857V25.5891H13.7999V26.8281H8.98975V25.5891H10.3599V21.8576H9.28133V20.6186H11.628V21.6681C12.0216 20.9393 12.8233 20.4146 13.8874 20.4146C15.0826 20.4146 15.8259 21.0997 16.0446 22.0763L14.8201 22.4261Z" fill="black" />
    <path d="M18.2753 23.082H22.0941C21.9046 22.1928 21.1175 21.5952 20.243 21.5952C19.2517 21.5952 18.4938 22.2074 18.2753 23.082ZM23.4497 25.8806C22.8084 26.551 21.6714 27.032 20.4033 27.032C18.319 27.032 16.8613 25.6327 16.8613 23.7233C16.8613 21.8139 18.2753 20.4146 20.243 20.4146C22.1962 20.4146 23.5663 21.9159 23.5663 23.9565V24.1751H18.217C18.4355 25.2101 19.2955 25.8368 20.4179 25.8368C21.3508 25.8368 22.1524 25.4579 22.5897 24.9769L23.4497 25.8806Z" fill="black" />
    <path d="M26.2507 23.082H30.0697C29.8802 22.1928 29.0931 21.5952 28.2185 21.5952C27.2274 21.5952 26.4694 22.2074 26.2507 23.082ZM31.4253 25.8806C30.7839 26.551 29.647 27.032 28.3789 27.032C26.2945 27.032 24.8369 25.6327 24.8369 23.7233C24.8369 21.8139 26.2507 20.4146 28.2185 20.4146C30.1718 20.4146 31.5419 21.9159 31.5419 23.9565V24.1751H26.1924C26.4111 25.2101 27.2711 25.8368 28.3935 25.8368C29.3264 25.8368 30.1279 25.4579 30.5653 24.9769L31.4253 25.8806Z" fill="black" />
</svg>
