<svg width="42" height="27" viewBox="0 0 42 27" fill="none" xmlns="http://www.w3.org/2000/svg">
    <path d="M18.528 4.44416C18.8689 4.3021 19.153 4.13163 19.4372 4.01798C21.1135 3.27927 22.5909 3.98957 23.0739 5.7511C23.8126 8.47864 21.568 10.9789 18.7837 10.5243C18.3859 10.4675 17.9882 10.3822 17.6188 10.3254C17.3631 10.297 17.2779 10.1833 17.2779 9.89923C17.2779 7.34216 17.2779 4.7851 17.3063 2.22803C17.3063 1.94392 17.221 1.83027 16.9653 1.77345C16.738 1.74503 16.5392 1.6598 16.3119 1.60297C16.1698 1.57456 16.0562 1.57456 16.0562 1.37568C16.0562 1.1768 16.1982 1.1768 16.3119 1.14838C16.9653 1.00633 17.6472 0.864266 18.3007 0.693795C18.5564 0.636971 18.5564 0.722207 18.5564 0.92109C18.5564 1.94392 18.5564 2.96674 18.5564 3.98957C18.528 4.13163 18.528 4.24527 18.528 4.44416ZM18.528 7.25693C18.528 7.82517 18.528 8.42181 18.528 8.99005C18.528 9.92764 18.528 9.92764 19.494 9.87082C20.7157 9.78558 21.5112 9.18893 21.7953 8.13769C21.909 7.71152 21.909 7.25693 21.8806 6.83075C21.7669 5.12604 20.46 4.21686 18.8121 4.67145C18.6132 4.72828 18.528 4.81351 18.528 5.04081C18.528 5.77951 18.528 6.51822 18.528 7.25693Z" fill="#1E2373" />
    <path d="M1.12091 24.964C1.12091 24.7083 1.12091 24.4526 1.12091 24.2253C1.12091 24.1401 1.06408 23.9696 1.23455 23.9696C1.40503 23.9696 1.60391 23.8559 1.68915 24.1116C1.85962 24.5378 2.03009 24.964 2.20056 25.4186C2.25738 25.5891 2.34262 25.6743 2.56991 25.7027C3.13815 25.7595 3.7348 25.7879 4.30303 25.6175C5.38268 25.2765 5.6668 23.9412 4.84286 23.2025C4.35986 22.7763 3.79162 22.4638 3.2518 22.0944C2.91085 21.8671 2.56991 21.6682 2.22897 21.4125C1.3482 20.7875 1.06409 19.9067 1.29138 18.8555C1.49026 17.9179 2.25738 17.236 3.28021 17.0939C4.30304 16.9519 5.29745 17.1792 6.29186 17.378C6.46233 17.4065 6.43392 17.5201 6.43392 17.6338C6.43392 18.1168 6.43392 18.5998 6.43392 19.1112C6.43392 19.2248 6.51916 19.3953 6.29186 19.3953C6.12139 19.3953 5.92251 19.4805 5.83727 19.2248C5.69522 18.7986 5.49633 18.3725 5.35427 17.9463C5.29745 17.7474 5.1838 17.6906 4.98492 17.6906C4.47351 17.6906 3.9905 17.6338 3.5075 17.7758C3.0245 17.8895 2.59832 18.1168 2.48468 18.6566C2.34262 19.2248 2.48468 19.7362 2.96768 20.1056C3.70639 20.6454 4.50192 21.1 5.24062 21.6114C5.58157 21.8387 5.95092 22.0376 6.23504 22.3785C7.39992 23.9412 6.54757 26.0152 4.61557 26.3846C3.64956 26.5551 2.71197 26.3846 1.77438 26.1573C1.17773 26.0152 1.17773 26.0152 1.17773 25.3902C1.12091 25.2197 1.12091 25.1061 1.12091 24.964Z" fill="#1E2373" />
    <path d="M6.02687 1.03467C6.76557 1.06308 7.47587 1.14832 8.18617 1.29037C8.41346 1.3472 8.47028 1.43243 8.47028 1.65973C8.44187 2.17114 8.47028 2.68255 8.47028 3.19397C8.47028 3.30762 8.55552 3.47809 8.32823 3.47809C8.15775 3.47809 7.95887 3.56332 7.87364 3.30761C7.73158 2.85303 7.5611 2.42685 7.39063 1.97226C7.33381 1.85861 7.3054 1.74496 7.13493 1.74496C6.28257 1.68814 5.40181 1.65973 4.57786 1.94385C3.32774 2.37002 2.64586 3.30761 2.39015 4.55774C2.16286 5.6658 2.16286 6.77386 2.58903 7.85351C3.10045 9.18886 4.09486 9.78551 5.48704 9.87075C5.99846 9.89916 6.50987 9.89916 7.02128 9.84234C7.19175 9.81393 7.27699 9.7571 7.36222 9.61504C7.56111 9.18887 7.81681 8.76269 7.98728 8.33651C8.10093 8.0808 8.2714 8.05239 8.47028 8.10922C8.69758 8.16604 8.55552 8.36492 8.55552 8.47857C8.52711 8.96157 8.47028 9.41616 8.44187 9.89916C8.44187 10.0412 8.44187 10.1549 8.24299 10.2117C6.76557 10.6379 5.25975 10.8368 3.75392 10.439C2.10603 10.0128 1.28209 8.81951 0.96956 7.22845C0.713854 5.94992 0.884324 4.67138 1.48097 3.47809C2.24809 2.02908 3.4698 1.29037 5.08928 1.14832C5.40181 1.06308 5.71434 1.03467 6.02687 1.03467Z" fill="#1E2373" />
    <path d="M20.1283 25.7311C19.8158 25.8732 19.5317 25.9868 19.2476 26.1005C18.9066 26.2425 18.5373 26.3562 18.1679 26.4414C17.0314 26.6687 16.1223 26.0721 15.9518 24.9072C15.9234 24.6799 15.895 24.4242 15.895 24.1969C15.895 23.1741 15.8665 22.1797 15.895 21.1568C15.895 20.8443 15.8381 20.6454 15.4972 20.617C15.2983 20.5886 15.1278 20.5034 14.929 20.4465C14.8153 20.4181 14.7017 20.3897 14.7017 20.2192C14.7017 20.0488 14.8153 20.0488 14.929 20.0204C15.5824 19.8783 16.2075 19.7646 16.861 19.5942C17.1451 19.5089 17.1451 19.6226 17.1451 19.8215C17.1451 21.1568 17.1451 22.4922 17.1451 23.856C17.1451 24.1117 17.1735 24.3674 17.2019 24.5947C17.2871 25.1061 17.5713 25.4186 18.0827 25.5323C18.7077 25.6743 19.3328 25.5891 19.9578 25.5038C20.1283 25.4754 20.1567 25.3902 20.1567 25.2481C20.1567 23.8275 20.1567 22.3785 20.1567 20.9579C20.1567 20.7875 20.0999 20.7307 19.9294 20.6738C19.6737 20.617 19.418 20.5318 19.1907 20.4465C19.0771 20.4181 18.9918 20.3897 18.9918 20.2192C18.9918 20.0488 19.1055 20.0488 19.2191 20.0204C19.9294 19.8499 20.6681 19.7078 21.3784 19.5374C21.4353 19.651 21.4069 19.7931 21.4069 19.9067C21.4069 21.6114 21.4069 23.3161 21.4069 25.0208C21.4069 25.2481 21.4637 25.3618 21.691 25.4186C21.9183 25.4754 22.1171 25.5607 22.3444 25.6175C22.4581 25.6459 22.5149 25.7027 22.5149 25.8164C22.5149 25.9584 22.4581 25.9868 22.3444 26.0153C21.691 26.1573 21.0091 26.3278 20.3556 26.4983C20.1567 26.5551 20.1851 26.4698 20.1851 26.3278C20.1283 26.1573 20.1283 25.9584 20.1283 25.7311Z" fill="#1E2373" />
    <path d="M12.988 8.99011C13.3574 7.93888 13.7267 6.94446 14.0961 5.97846C14.2382 5.60911 14.3518 5.21134 14.5223 4.84199C14.5791 4.67152 14.5507 4.58628 14.4086 4.52946C14.2097 4.44422 14.0393 4.33057 13.8404 4.24534C13.6699 4.18851 13.6699 4.04645 13.6983 3.9044C13.7267 3.73392 13.8688 3.81916 13.954 3.81916C14.6643 3.81916 15.3746 3.81916 16.1133 3.81916C16.1986 3.81916 16.3122 3.76234 16.3406 3.9044C16.3406 4.01804 16.3975 4.13169 16.2838 4.21693C16.2554 4.21693 16.2554 4.24534 16.227 4.24534C15.6019 4.47263 15.4315 5.01246 15.2042 5.55228C14.3802 7.62635 13.5279 9.672 12.7039 11.7176C12.5903 12.0018 12.4482 12.2575 12.3062 12.5132C11.7947 13.2803 11.056 13.5076 10.2037 13.5076C9.43655 13.4792 9.43655 13.4792 9.43655 12.7121V12.6837C9.46497 12.4848 9.35132 12.2291 9.49338 12.1438C9.69226 12.0586 9.94797 12.087 10.2037 12.1154C10.4026 12.1438 10.4026 12.3711 10.4878 12.5132C10.7435 13.0246 10.9424 13.053 11.3686 12.6552C11.6811 12.3711 11.7947 11.9734 11.9936 11.6324C12.4482 10.8653 12.3914 10.1266 12.022 9.33106C11.3686 7.93888 10.8287 6.46146 10.2605 5.01246C10.1469 4.69993 9.97638 4.47263 9.66385 4.3874C9.5502 4.35899 9.46497 4.30216 9.35132 4.24534C9.20926 4.18851 9.23767 4.04646 9.23767 3.96122C9.23767 3.81916 9.35132 3.84757 9.43655 3.84757C10.3457 3.84757 11.2833 3.84757 12.1925 3.84757C12.2777 3.84757 12.3914 3.81916 12.3914 3.96122C12.3914 4.07487 12.4198 4.18851 12.2777 4.24534C12.0789 4.33057 11.88 4.41581 11.6811 4.47263C11.4822 4.52946 11.4538 4.61469 11.539 4.81357C11.9652 5.92164 12.3914 7.0297 12.8176 8.13776C12.7891 8.36505 12.8744 8.64917 12.988 8.99011Z" fill="#1E2373" />
    <path d="M14.2185 22.9468C14.2185 24.6231 13.3094 25.9585 11.8888 26.3847C9.75788 27.0381 7.82587 25.6176 7.74064 23.3446C7.71223 22.89 7.76905 22.4638 7.8827 22.0377C8.39411 19.992 10.6386 18.9692 12.5422 19.9068C13.6219 20.4466 14.2185 21.5547 14.2185 22.9468ZM12.8548 23.1741C12.8264 22.4354 12.7695 21.6683 12.3149 20.9864C11.6046 19.8784 10.0988 19.9352 9.50217 21.1285C9.24646 21.6115 9.16123 22.1229 9.13282 22.6627C9.1044 23.4867 9.16123 24.3106 9.58741 25.0777C9.92835 25.6744 10.4398 25.9585 11.1501 25.9301C11.8035 25.9017 12.2581 25.5323 12.5422 24.9357C12.7695 24.3958 12.8264 23.7992 12.8548 23.1741Z" fill="#1E2373" />
    <path d="M38.7948 22.833C38.1698 22.833 37.5163 22.833 36.8912 22.833C36.6923 22.833 36.6355 22.8898 36.6355 23.0887C36.6924 24.765 37.6584 25.7026 39.3346 25.6458C39.7608 25.6458 40.187 25.5606 40.6132 25.5037C40.7268 25.5037 40.8405 25.4469 40.8405 25.6174C40.8405 25.731 40.9825 25.9015 40.7837 25.9583C39.704 26.2993 38.5959 26.6402 37.4595 26.3561C36.6071 26.1288 35.9821 25.6174 35.6127 24.8219C34.9024 23.3444 35.3002 21.2988 36.5219 20.3044C37.3174 19.6509 38.2266 19.4804 39.221 19.7361C40.2722 20.0203 40.8689 20.7874 40.9825 21.9523C41.0678 22.833 41.0678 22.833 40.2154 22.833C39.704 22.833 39.2494 22.833 38.7948 22.833ZM38.1698 20.2191C37.7152 20.2191 37.289 20.4748 37.0049 20.9578C36.806 21.3272 36.7208 21.7534 36.6355 22.1511C36.6071 22.35 36.6355 22.4637 36.8912 22.4068C37.4879 22.3216 38.0561 22.2932 38.6528 22.2364C38.9653 22.208 39.3915 22.2932 39.5051 22.0943C39.6756 21.8102 39.5051 21.4124 39.4199 21.0715C39.2494 20.4748 38.8801 20.1907 38.1698 20.2191Z" fill="#202574" />
    <path d="M27.8475 6.85933C27.2225 6.85933 26.5974 6.85933 25.9723 6.85933C25.7166 6.85933 25.6882 6.94456 25.6882 7.17186C25.745 8.79133 26.6826 9.6721 28.2737 9.6721C28.7283 9.6721 29.2113 9.61528 29.6659 9.53004C29.7795 9.50163 29.8932 9.50163 29.8932 9.64369C29.8932 9.75734 30.0068 9.92781 29.8079 9.98463C28.7851 10.3256 27.7623 10.6381 26.6826 10.4108C25.4041 10.1551 24.5517 9.24592 24.3529 7.88215C24.1824 6.71727 24.3813 5.60921 25.1768 4.70003C26.0007 3.73403 27.3645 3.39309 28.501 3.84768C29.3533 4.18862 29.8363 4.81368 29.9784 5.72286C30.0068 6.00697 30.0068 6.3195 30.0636 6.60362C30.092 6.77409 30.0068 6.83092 29.8363 6.83092C29.1545 6.85933 28.501 6.85933 27.8475 6.85933ZM28.6715 6.03539C28.643 5.75127 28.6146 5.5808 28.5862 5.41033C28.4442 4.64321 28.1316 4.33068 27.535 4.27385C26.8531 4.18862 26.3417 4.50115 26.0292 5.15462C25.8587 5.49556 25.8019 5.89333 25.745 6.26268C25.7166 6.46156 25.7735 6.48998 25.9439 6.48998C26.7679 6.40474 27.6202 6.3195 28.4442 6.23427C28.6146 6.20586 28.6999 6.12062 28.6715 6.03539Z" fill="#1E2373" />
    <path d="M25.7257 20.3896C26.2371 20.1623 26.6917 19.9066 27.2031 19.7361C27.5441 19.6225 27.885 19.5657 28.2259 19.7077C28.3964 19.7645 28.4817 19.8498 28.4817 20.0487C28.4532 20.418 28.4817 20.7874 28.4817 21.1283C28.4817 21.2988 28.4532 21.3556 28.2828 21.3556C28.2259 21.3556 28.1691 21.3556 28.1123 21.3556C27.6577 21.4408 27.3736 21.2704 27.2599 20.8158C27.1747 20.5601 27.0326 20.4748 26.7769 20.5033C26.7485 20.5033 26.7201 20.5033 26.7201 20.5033C25.8393 20.5317 25.7541 20.6169 25.7541 21.4977C25.7541 22.7194 25.7541 23.9411 25.7541 25.1912C25.7541 25.4185 25.8393 25.5322 26.0382 25.589C26.3792 25.6742 26.6917 25.8163 27.0042 25.9015C27.1747 25.9583 27.2031 26.072 27.1747 26.214C27.1463 26.3845 27.0326 26.3277 26.9474 26.3277C25.8109 26.3277 24.7029 26.3277 23.5664 26.3277C23.4812 26.3277 23.3391 26.4129 23.3107 26.214C23.2823 26.0436 23.3391 25.9583 23.5096 25.9015C23.7653 25.8163 24.021 25.6742 24.2767 25.589C24.4472 25.5322 24.504 25.4469 24.504 25.2765C24.504 23.8559 24.504 22.4068 24.504 20.9863C24.504 20.7874 24.4472 20.7305 24.2767 20.6737C24.021 20.6169 23.7653 20.5317 23.5096 20.4748C23.3675 20.4464 23.3107 20.3896 23.3107 20.2475C23.3107 20.1055 23.3959 20.0771 23.5096 20.0487C24.1915 19.9066 24.8449 19.7361 25.5268 19.5941C25.6689 19.5657 25.7541 19.5941 25.7541 19.7645C25.7257 19.9634 25.7257 20.1623 25.7257 20.3896Z" fill="#202574" />
    <path d="M34.4482 20.6739C34.4482 20.7023 34.4482 20.7307 34.4482 20.7875C34.4482 21.441 34.3914 21.4978 33.7095 21.4126C33.5959 21.3842 33.539 21.3274 33.4822 21.2421C33.3686 20.9864 33.2265 20.7591 33.1129 20.5034C32.9992 20.2193 32.8287 20.1341 32.5446 20.1625C31.5218 20.2761 30.8683 20.8444 30.499 21.7535C30.1864 22.5207 30.1864 23.3162 30.499 24.1117C30.8399 25.0777 31.607 25.6175 32.6298 25.6744C33.1413 25.7028 33.6243 25.646 34.1073 25.5607C34.2777 25.5323 34.3914 25.5323 34.4198 25.7312C34.4482 25.9301 34.3914 25.9869 34.2209 26.0437C33.5106 26.2426 32.8003 26.4983 32.0332 26.4983C30.3569 26.5267 29.1352 25.4187 28.9931 23.7424C28.9363 23.1457 28.9647 22.5775 29.1636 21.9808C29.6182 20.6455 30.8115 19.7647 32.3173 19.6795C32.914 19.6511 33.4822 19.7079 34.0504 19.8499C34.363 19.9352 34.505 20.0488 34.4482 20.3614C34.4198 20.4466 34.4482 20.5602 34.4482 20.6739Z" fill="#1E2373" />
    <path d="M33.6154 4.50087C34.1268 4.27357 34.5814 4.01787 35.0928 3.8474C35.4337 3.73375 35.8031 3.67693 36.144 3.81899C36.3145 3.87581 36.3997 3.96104 36.3713 4.15993C36.3429 4.50087 36.3713 4.87022 36.3713 5.21117C36.3713 5.26799 36.3713 5.35322 36.3429 5.41005C36.2293 5.55211 35.4053 5.43846 35.3201 5.26799C35.3201 5.26799 35.3201 5.23958 35.2917 5.23958C35.1496 5.0407 35.1496 4.69975 34.8939 4.64293C34.4961 4.55769 34.0984 4.67134 33.729 4.78499C33.587 4.8134 33.587 4.89864 33.587 5.01228C33.587 6.46129 33.587 7.91029 33.587 9.35929C33.587 9.52977 33.6438 9.58659 33.7858 9.615C34.1268 9.72865 34.4677 9.8423 34.8087 9.95594C34.9791 10.0128 35.0644 10.098 35.036 10.2685C35.0076 10.4674 34.8655 10.3821 34.7803 10.3821C33.6722 10.3821 32.5641 10.3821 31.4561 10.3821C31.3709 10.3821 31.2004 10.4674 31.2004 10.2685C31.2004 10.1264 31.2004 10.0128 31.3708 9.98435C31.4277 9.98435 31.4561 9.95594 31.4845 9.92753C31.7686 9.81388 32.1664 9.75706 32.3084 9.52977C32.4505 9.33088 32.3368 8.93312 32.3368 8.62059C32.3368 7.42729 32.3368 6.2624 32.3368 5.06911C32.3368 4.87022 32.28 4.75658 32.0811 4.72816C31.8254 4.67134 31.5697 4.58611 31.314 4.52928C31.172 4.50087 31.172 4.41563 31.1436 4.30199C31.1436 4.15993 31.2004 4.13152 31.314 4.1031C31.9959 3.96105 32.6494 3.79057 33.3313 3.64851C33.5017 3.6201 33.5586 3.64852 33.5586 3.81899C33.6154 4.04628 33.6154 4.24516 33.6154 4.50087Z" fill="#1E2373" />
</svg>
