<svg width="30" height="34" viewBox="0 0 30 34" fill="none" xmlns="http://www.w3.org/2000/svg">
    <path fill-rule="evenodd" clip-rule="evenodd" d="M28.3044 1.32225C28.4964 1.65093 28.4964 1.9796 28.3044 2.30828L20.1073 17.0328L28.3044 31.6917C28.4964 32.0203 28.4964 32.349 28.3044 32.6777C28.1123 32.9407 27.792 33.138 27.4719 33.138H10.5654C10.2452 33.138 9.92503 33.0065 9.7329 32.6777L1.02354 17.4931C0.831421 17.2301 0.831421 16.8357 1.02354 16.507L9.7329 1.32225C9.92503 1.05932 10.2452 0.862111 10.5654 0.862111H27.4719C27.792 0.862111 28.1123 1.05932 28.3044 1.32225ZM0.441474 16.1704C0.151059 16.6693 0.102406 17.3386 0.455754 17.8546L9.14962 33.0122L9.1523 33.0168C9.48837 33.5921 10.0565 33.8104 10.5654 33.8104H27.4719C28.0529 33.8104 28.5588 33.4696 28.8474 33.0742L28.8676 33.0465L28.8849 33.0169C29.1983 32.4807 29.1994 31.8951 28.8885 31.3585L20.8773 17.0321L28.8888 2.64083C29.1994 2.10439 29.1981 1.51904 28.8849 0.983004L28.8676 0.95336L28.8473 0.925635C28.5587 0.530414 28.0528 0.189697 27.4719 0.189697H10.5654C9.98429 0.189697 9.47865 0.530478 9.18998 0.925551L9.16809 0.955516L0.441474 16.1704ZM19.0187 15.0608L25.8709 2.83417H12.2304L19.0187 15.0608ZM19.0214 13.6805L24.7233 3.50658H13.3729L19.0214 13.6805ZM10.5014 3.82018L2.94471 17.0328L10.5014 30.2456L17.8659 17.0328L10.5014 3.82018ZM10.4938 5.18777L17.0961 17.0328L10.4938 28.878L3.71933 17.0328L10.4938 5.18777ZM12.2304 31.166H25.8069L19.0187 18.9393L12.2304 31.166ZM13.3729 30.4936H24.6645L19.0187 20.3246L13.3729 30.4936Z" fill="#00DE99" />
</svg>
