<svg width="41" height="42" viewBox="0 0 41 42" fill="none" xmlns="http://www.w3.org/2000/svg">
    <path d="M36.243 31.565C35.8933 32.1008 35.4853 32.6366 35.019 33.1724C34.0282 34.3035 32.8625 35.3751 31.5803 36.2681C29.9483 37.3992 28.2581 38.2922 26.5096 38.947C24.9942 39.4828 23.6537 39.7805 22.488 39.84H22.08C21.4972 39.84 21.0892 39.7805 20.8561 39.6019L20.7395 39.5424L20.6229 39.4233V39.3638C20.6229 39.3042 20.6229 39.1852 20.6812 39.0661C20.7978 38.7684 20.9726 38.5303 21.2058 38.2326C21.2641 38.1731 21.3806 38.054 21.4389 37.935C22.3132 37.6968 23.1874 37.3992 24.1782 37.1015C25.0525 37.2801 25.985 37.3396 26.801 37.2801C27.8501 37.161 28.8409 36.8634 29.7152 36.3871C30.7643 35.7918 31.6968 35.0179 32.4545 34.0654C32.9208 33.4105 33.3288 32.7556 33.6202 31.9817C35.1939 30.7315 36.5344 29.4218 37.5835 28.1121L38.108 27.3977C37.7001 28.8265 37.1172 30.2553 36.243 31.565ZM30.2397 34.244C30.5894 34.0654 30.8809 33.8272 31.2306 33.6486C30.7643 34.244 30.1815 34.7797 29.5986 35.1965C28.7827 35.7323 27.9084 36.149 27.0341 36.3276C26.6262 36.3871 26.2765 36.4467 25.8685 36.5062C27.3256 35.8513 28.8409 35.0774 30.2397 34.244ZM40.9057 19.3013C40.9057 17.5748 40.4977 15.9079 39.6817 14.3601C38.9823 12.9908 37.9332 11.6811 36.6509 10.4905C36.3595 8.88308 35.5436 7.39477 34.3196 6.02552C33.3288 4.95394 32.1048 4.00141 30.5894 3.16796C29.4238 2.5131 28.1415 1.97731 26.801 1.56058C25.6936 1.20338 24.5862 1.02479 23.5371 0.905721C22.5463 0.786656 21.7303 0.846188 20.9726 0.965253C20.215 1.14385 19.5156 1.38198 18.8744 1.73918L18.7579 1.79871C17.8836 1.67964 17.0094 1.67964 16.1934 1.73918H15.9603C15.1443 1.79871 13.4541 2.03684 13.5706 2.8703C13.5706 2.8703 13.5706 3.34656 14.6197 3.70375L16.0768 2.81076C15.9603 2.81076 15.8437 2.75123 15.7271 2.75123C16.1934 2.6917 16.6597 2.63216 17.0094 2.63216H17.3008C17.1842 2.6917 17.1259 2.75123 17.0094 2.81076L16.5431 3.10843C15.6688 3.64422 15.3774 3.88235 14.4449 4.41814C13.862 4.77534 13.3375 5.13253 12.7547 5.4302C11.6473 6.02552 10.5399 6.62085 9.3742 7.21617C8.44167 7.6329 7.50913 8.10916 6.28517 8.64495L6.1686 8.70449C5.87719 8.82355 5.58577 8.94262 5.35263 9.06168H5.29435C5.00293 9.18075 4.65323 9.35934 4.47838 9.71654L4.4201 9.95467V10.1928C4.4201 10.2523 4.47838 10.3119 4.47838 10.3119L4.65323 10.4905L4.82808 10.6095H4.88636C5.06122 10.6691 5.29435 10.6691 5.52748 10.6691H6.57659C6.98458 10.6691 7.39256 10.6095 7.74226 10.6095C9.66562 10.55 11.4141 10.55 13.1044 10.6095C14.7363 10.6691 16.3682 10.8477 18.0002 11.0263L20.4481 11.3835C20.9726 10.9072 21.3806 10.55 21.6721 10.1928C19.9818 9.83561 18.2916 9.59747 16.6597 9.41888C14.9694 9.24028 13.1626 9.12121 11.3558 9.12121H10.7147C9.84047 9.12121 8.90794 9.12121 8.03368 9.18075C8.90794 8.76402 9.66562 8.34729 10.4233 7.9901C11.5307 7.39477 12.6381 6.73991 13.7455 6.02552C14.5614 5.48973 15.4357 4.8944 16.4265 4.18001L16.6014 4.06095C17.767 4.29908 19.1659 4.53721 20.5647 4.83487L23.5371 5.54926C23.1291 4.53721 21.9052 3.94188 21.2058 3.64422C20.215 3.46562 19.1659 3.22749 17.9419 3.04889C18.2333 2.81076 18.5247 2.63217 18.8162 2.5131C19.807 2.63217 20.6229 2.81076 21.3806 3.10843C21.9635 3.34656 22.4297 3.58469 22.8377 3.88235C22.896 3.94188 23.0126 4.00141 23.0709 4.06095C23.7703 4.65627 24.1782 5.4302 24.1782 6.20412C24.2365 6.85898 24.0617 7.57337 23.712 8.28776C23.5371 8.70449 23.2457 9.12121 22.9543 9.53794C22.896 9.65701 22.3715 10.4309 21.2058 11.443C20.0984 12.5146 18.7579 13.4671 17.1259 14.4791C16.5431 14.8363 16.0185 15.134 15.4357 15.4317C14.7363 15.7889 14.0369 16.1461 13.4541 16.3842C12.5215 16.8009 10.9479 17.5153 8.96622 18.1106C7.91711 18.4083 6.92629 18.706 5.93547 18.8846C5.17778 19.0632 4.24524 19.1822 3.31271 19.2417C4.36181 18.7655 5.52748 18.4678 6.75144 18.2892C9.08279 17.7534 11.0644 16.9795 12.3467 16.3842C11.1227 16.3842 9.89876 16.4437 8.61652 16.5628C6.51831 16.8009 4.82808 17.0986 3.31271 17.6344C2.43845 17.932 1.27278 18.4083 0.981361 19.1822C0.923077 19.5989 0.981361 19.8966 1.09793 20.1943C1.33106 20.6705 1.79733 20.9087 2.55502 21.0277C3.13786 21.0873 3.77898 21.0873 4.65323 20.9682C6.22689 20.7896 7.91711 20.4324 9.84047 19.7775C11.5307 19.2417 13.0461 18.5869 14.5032 17.932C16.1351 17.9916 17.767 18.1702 19.3407 18.4678C21.0309 18.7655 22.488 19.1822 23.8868 19.718C25.4605 20.3133 26.801 20.9682 27.9084 21.7421C28.3164 21.4445 28.6661 21.1468 28.9575 20.9087C28.8992 20.9087 28.8992 20.8491 28.8409 20.8491C27.4421 19.8966 25.8102 19.0632 24.0617 18.4083C22.6046 17.8725 21.0309 17.4558 19.2824 17.0986C18.4664 16.92 17.6505 16.8009 16.7762 16.7414C18.175 15.9675 19.399 15.1935 20.5064 14.3005C21.4972 13.5266 22.3132 12.7527 23.0709 11.9788C25.0525 12.5146 26.7427 13.0504 28.2581 13.7052C30.0649 14.4791 31.6386 15.3721 32.9791 16.3842L33.0956 16.4437C33.3871 16.027 33.6202 15.5507 33.795 15.1935C32.5711 14.3005 31.2306 13.5266 29.7735 12.8122C28.1415 12.0383 26.3347 11.3835 24.3531 10.8477C24.2948 10.8477 24.2365 10.7881 24.12 10.7881C24.9942 9.53794 25.5188 8.34729 25.6353 7.21617C25.6936 6.85898 25.6936 6.56131 25.6353 6.20412C27.3256 6.73991 28.9575 7.39477 30.4729 8.10916C31.9883 8.82355 33.2705 9.59747 34.3779 10.4905L34.4362 10.55C34.1447 9.29981 33.5036 8.34729 33.1539 7.93056C32.4545 7.51383 31.6968 7.15664 30.8809 6.73991C29.4821 6.08505 27.9084 5.48973 26.2182 4.95393C25.8685 4.83487 25.4605 4.7158 25.1108 4.65627H25.0525C24.5279 3.70375 23.712 3.16796 23.0709 2.81076C22.3715 2.45357 21.5555 2.1559 20.6229 1.97731C21.0309 1.91777 21.3806 1.85824 21.7886 1.85824H21.9052C22.2549 1.85824 22.6629 1.85824 23.0709 1.91777C23.1874 1.91777 23.2457 1.91777 23.3623 1.97731C24.3531 2.09637 25.3439 2.3345 26.4513 2.6917C27.7335 3.10843 28.9575 3.64422 30.0066 4.29908C31.3471 5.073 32.4545 5.96599 33.3288 6.97804C33.6202 7.33524 33.9116 7.69243 34.1447 8.04963C34.203 8.10916 34.2613 8.16869 34.2613 8.28776C34.2613 8.28776 34.2613 8.34729 34.3196 8.34729C34.7276 9.06168 35.1356 10.0142 35.1939 11.1453C35.3104 12.336 35.0773 13.5266 34.7276 14.4791C34.7276 14.5387 34.2613 15.8484 33.4453 17.039C32.6294 18.2892 31.522 19.5394 30.1815 20.7301C29.89 21.0277 29.0158 21.8016 27.7918 22.6351C26.6262 23.4686 25.4022 24.2425 24.12 24.9569C23.1291 25.5522 22.08 26.0285 20.7978 26.6238C20.2732 26.8619 19.5156 27.1596 18.6413 27.4572C17.2425 27.993 15.8437 28.4098 14.4449 28.767C12.405 29.2432 10.5982 29.5409 8.84965 29.6599C8.15025 29.7195 7.50913 29.7195 6.86801 29.6599C5.93547 29.6004 4.94465 29.4813 4.36181 28.9456L4.24524 28.8265V28.7074C4.36181 28.3502 4.65323 28.1121 4.94465 27.874C5.35263 27.5763 5.8189 27.3382 6.40174 27.1C7.74226 26.5643 9.25764 26.2071 11.0061 26.0285C12.6381 25.9094 14.3283 25.9689 15.902 26.2071C16.7179 26.3261 17.5339 26.5643 18.3499 26.8024C18.9327 26.6238 19.5156 26.3857 19.9235 26.2071C18.9327 25.7903 17.8253 25.4331 16.6597 25.1355C15.0277 24.7783 13.2792 24.6592 11.5307 24.7187C9.72391 24.7783 8.03368 25.0759 6.51831 25.5522C5.29435 25.9689 3.95383 26.5047 3.13786 27.5763C2.78815 28.0526 2.6133 28.5884 2.72987 29.1837C2.84644 29.8981 3.42927 30.3743 3.72069 30.5529C4.47838 31.0292 5.41092 31.2673 6.05204 31.3269C6.75144 31.4459 7.50913 31.5055 8.3251 31.5055H8.73308C10.4233 31.4459 12.2301 31.2078 14.3866 30.7315C16.1934 30.3148 18.0585 29.779 19.9818 29.0051C20.5064 28.767 21.0892 28.5884 21.6138 28.3502C22.488 28.9456 23.1291 29.6004 23.5371 30.3148C23.9451 31.0292 24.12 31.6841 24.12 32.3984C24.12 33.0533 23.9451 33.7082 23.5954 34.3035C23.5371 34.4821 23.4206 34.6012 23.304 34.7797C23.712 34.6607 24.12 34.4821 24.528 34.3035L24.7028 33.9463C24.9942 33.1724 25.1108 32.3389 24.9942 31.565C24.8777 30.672 24.4697 29.779 23.8285 29.0051C23.5371 28.5884 23.1291 28.2312 22.7212 27.874C24.5862 26.981 26.2765 26.0285 27.7918 25.0164C28.5495 24.4806 29.3072 23.9448 30.0066 23.409C31.1723 24.5401 32.0465 25.7903 32.4545 27.1596C32.6877 27.874 32.8042 28.5884 32.8042 29.3623C33.2705 28.9456 33.6785 28.5884 33.9699 28.2907C33.8533 27.2191 33.5036 26.2071 32.9208 25.195C32.4545 24.302 31.7551 23.4686 30.9391 22.6351C32.5128 21.2659 33.795 19.8371 34.7276 18.3488C34.7859 18.2892 34.8442 18.1702 34.9024 18.1106C36.0681 19.3013 36.9424 20.611 37.5252 21.9207V21.9802C37.6418 22.2184 37.7001 22.516 37.8166 22.7542C38.2246 21.8016 38.3995 20.9682 38.4577 20.4324C37.9915 19.4799 37.3503 18.5869 36.6509 17.813C36.3595 17.4558 36.0098 17.1581 35.6601 16.8009C36.3012 15.4317 36.7092 14.1219 36.8258 12.8718C37.1172 13.229 37.4086 13.5862 37.6418 13.9434C38.516 15.3126 39.0989 16.7414 39.2154 18.1106C39.2737 18.6464 39.2737 19.1227 39.2737 19.6585C39.2737 19.718 39.2737 20.2538 39.0989 21.0873C39.0989 21.2063 39.0406 21.3849 38.9823 21.504C38.8074 22.1588 38.516 22.9923 38.108 23.8853C38.0498 23.9448 38.0498 24.0639 37.9915 24.1234C37.9332 24.183 37.9332 24.302 37.8749 24.3615C37.1172 25.7903 36.0681 27.2191 34.7276 28.5288C34.5527 28.7074 34.3779 28.886 34.1447 29.0646C33.6785 29.5409 32.9791 30.1362 32.338 30.6125C31.0557 31.6245 29.6569 32.5175 28.1998 33.2914C27.0924 33.8868 25.9268 34.4821 24.7028 34.9583C23.4206 35.4941 22.1966 35.9109 21.2641 36.149C19.5156 36.6253 17.8253 36.9825 16.1934 37.161C14.678 37.2801 13.5123 37.2801 12.405 37.1015C11.7055 36.9825 11.181 36.8039 10.7147 36.5657C10.5982 36.5062 10.4816 36.3871 10.4233 36.3276C10.4233 36.2681 10.365 36.2681 10.365 36.2085V36.0895C10.5982 35.4941 11.3558 35.1965 12.1135 34.9583C12.8129 34.7202 13.6872 34.6011 14.6197 34.6011H14.7363C15.6106 34.6011 16.4848 34.7202 17.4173 34.9583C18.2916 35.1369 19.1659 35.4346 19.9235 35.7323C19.9818 35.7323 19.9818 35.7918 20.0401 35.7918C20.3898 35.7323 20.7978 35.6132 21.3223 35.4346C21.2641 35.4346 21.2058 35.3751 21.0892 35.3751C20.7395 35.256 20.3898 35.0774 20.0401 34.9583C19.0493 34.5416 18.2333 34.3035 17.4173 34.0654C16.4265 33.8272 15.4357 33.6486 14.5032 33.6486C13.5123 33.5891 12.5215 33.7082 11.589 33.9463C10.5982 34.1844 9.89876 34.6012 9.3742 35.0774C9.0245 35.4346 8.84965 35.9109 8.84965 36.3871C8.84965 36.8634 9.08279 37.3396 9.49077 37.6968C10.5399 38.6494 12.2301 38.8875 13.5706 38.947C15.2609 39.0661 17.0676 38.8875 19.0493 38.5303C19.2824 38.4708 19.5738 38.4112 19.807 38.3517C19.6321 38.6494 19.4573 38.947 19.399 39.3042C19.3407 39.84 19.6321 40.3758 20.215 40.6735C20.7395 40.9711 21.4389 41.1497 22.3715 41.1497H22.896C24.3531 41.0902 25.8685 40.733 27.5587 40.0781C29.2489 39.4828 30.8226 38.5898 32.338 37.5778C33.6785 36.6253 34.9607 35.4941 36.0098 34.244C37.1172 32.9342 38.0498 31.5055 38.6326 30.0171C39.2737 28.5288 39.5651 26.8619 39.5068 25.2545C39.5068 25.0164 39.5068 24.7783 39.4486 24.5401C40.4977 22.8137 40.9057 21.0277 40.9057 19.3013Z" fill="#E30613" />
</svg>
