<svg width="42" height="18" viewBox="0 0 42 18" fill="none" xmlns="http://www.w3.org/2000/svg">
    <path fill-rule="evenodd" clip-rule="evenodd" d="M41.1724 9.64863C41.1724 6.77966 39.7828 4.51587 37.1267 4.51587C34.4595 4.51587 32.8457 6.77966 32.8457 9.62621C32.8457 12.9995 34.7509 14.7029 37.4854 14.7029C38.819 14.7029 39.8276 14.4004 40.5897 13.9745V11.7331C39.8276 12.1141 38.9535 12.3495 37.844 12.3495C36.7569 12.3495 35.7931 11.9685 35.6698 10.646H41.15C41.15 10.5004 41.1724 9.91759 41.1724 9.64863ZM35.6362 8.58397C35.6362 7.31759 36.4095 6.79087 37.1155 6.79087C37.7991 6.79087 38.5276 7.31759 38.5276 8.58397H35.6362Z" fill="#635BFF" />
    <path fill-rule="evenodd" clip-rule="evenodd" d="M28.5202 4.51587C27.4219 4.51587 26.7158 5.03139 26.3236 5.39001L26.1779 4.69518H23.7124V17.7624L26.5141 17.1685L26.5253 13.9969C26.9288 14.2883 27.5227 14.7029 28.5089 14.7029C30.515 14.7029 32.3417 13.0891 32.3417 9.53656C32.3305 6.28656 30.4814 4.51587 28.5202 4.51587ZM27.8477 12.2374C27.1865 12.2374 26.7943 12.0021 26.5253 11.7107L26.5141 7.55294C26.8055 7.22794 27.2089 7.0038 27.8477 7.0038C28.8676 7.0038 29.5736 8.1469 29.5736 9.61501C29.5736 11.1167 28.8788 12.2374 27.8477 12.2374Z" fill="#635BFF" />
    <path fill-rule="evenodd" clip-rule="evenodd" d="M19.8569 3.85478L22.6699 3.24961V0.974609L19.8569 1.56858V3.85478Z" fill="#635BFF" />
    <path d="M22.6699 4.7063H19.8569V14.5123H22.6699V4.7063Z" fill="#635BFF" />
    <path fill-rule="evenodd" clip-rule="evenodd" d="M16.8422 5.53573L16.6629 4.70642H14.2422V14.5124H17.0439V7.86676C17.7051 7.00383 18.8258 7.16073 19.1732 7.284V4.70642C18.8146 4.57193 17.5034 4.32538 16.8422 5.53573Z" fill="#635BFF" />
    <path fill-rule="evenodd" clip-rule="evenodd" d="M11.2389 2.27466L8.50437 2.85742L8.49316 11.8341C8.49316 13.4928 9.73713 14.7143 11.3957 14.7143C12.3147 14.7143 12.9871 14.5462 13.357 14.3445V12.0695C12.9983 12.2152 11.2276 12.7307 11.2276 11.0721V7.09362H13.357V4.70656H11.2276L11.2389 2.27466Z" fill="#635BFF" />
    <path fill-rule="evenodd" clip-rule="evenodd" d="M3.66298 7.55294C3.66298 7.11587 4.0216 6.94777 4.61557 6.94777C5.46729 6.94777 6.54315 7.20552 7.39488 7.66501V5.03139C6.4647 4.66156 5.54574 4.51587 4.61557 4.51587C2.34057 4.51587 0.827637 5.7038 0.827637 7.68742C0.827637 10.7805 5.08626 10.2874 5.08626 11.621C5.08626 12.1366 4.63798 12.3047 4.01039 12.3047C3.08022 12.3047 1.89229 11.9236 0.950912 11.4081V14.0753C1.99315 14.5236 3.0466 14.7141 4.01039 14.7141C6.34143 14.7141 7.94401 13.5598 7.94401 11.5538C7.93281 8.21414 3.66298 8.80811 3.66298 7.55294Z" fill="#635BFF" />
</svg>