<!-- <svg width="246" height="190" viewBox="0 0 246 241" fill="none" xmlns="http://www.w3.org/2000/svg">
    <path d="M11.6236 234.893C9.40496 234.893 7.46363 234.424 5.79963 233.485C4.13563 232.547 2.85563 231.203 1.95963 229.453C1.06363 227.704 0.615625 225.656 0.615625 223.309C0.615625 220.963 1.06363 218.925 1.95963 217.197C2.85563 215.448 4.13563 214.104 5.79963 213.165C7.46363 212.227 9.40496 211.757 11.6236 211.757C14.4183 211.757 16.829 212.525 18.8556 214.061C19.1756 214.317 19.3996 214.573 19.5276 214.829C19.6556 215.085 19.7196 215.405 19.7196 215.789C19.7196 216.344 19.5596 216.824 19.2396 217.229C18.941 217.613 18.5676 217.805 18.1196 217.805C17.821 217.805 17.5543 217.773 17.3196 217.709C17.1063 217.624 16.861 217.485 16.5836 217.293C15.7303 216.739 14.941 216.344 14.2156 216.109C13.4903 215.853 12.7116 215.725 11.8796 215.725C9.83163 215.725 8.28496 216.365 7.23962 217.645C6.21563 218.904 5.70363 220.792 5.70363 223.309C5.70363 228.387 7.76229 230.925 11.8796 230.925C12.669 230.925 13.4156 230.808 14.1196 230.573C14.8236 230.317 15.645 229.912 16.5836 229.357C16.9036 229.165 17.1703 229.037 17.3836 228.973C17.597 228.888 17.8423 228.845 18.1196 228.845C18.5676 228.845 18.941 229.048 19.2396 229.453C19.5596 229.837 19.7196 230.307 19.7196 230.861C19.7196 231.245 19.645 231.576 19.4956 231.853C19.3676 232.109 19.1543 232.355 18.8556 232.589C16.829 234.125 14.4183 234.893 11.6236 234.893ZM32.5111 218.509C36.1591 218.509 37.9831 220.717 37.9831 225.133V232.525C37.9831 233.229 37.7591 233.784 37.3111 234.189C36.8845 234.595 36.2978 234.797 35.5511 234.797C34.8045 234.797 34.2178 234.595 33.7911 234.189C33.3645 233.784 33.1511 233.229 33.1511 232.525V225.069C33.1511 224.131 32.9485 223.437 32.5431 222.989C32.1591 222.52 31.5511 222.285 30.7191 222.285C29.7165 222.285 28.9058 222.605 28.2871 223.245C27.6898 223.885 27.3911 224.739 27.3911 225.805V232.525C27.3911 233.229 27.1778 233.784 26.7511 234.189C26.3245 234.595 25.7378 234.797 24.9911 234.797C24.2445 234.797 23.6471 234.595 23.1991 234.189C22.7725 233.784 22.5591 233.229 22.5591 232.525V214.093C22.5591 213.432 22.7831 212.899 23.2311 212.493C23.7005 212.088 24.3085 211.885 25.0551 211.885C25.7591 211.885 26.3245 212.077 26.7511 212.461C27.1778 212.845 27.3911 213.357 27.3911 213.997V220.973C27.9458 220.163 28.6605 219.555 29.5351 219.149C30.4098 218.723 31.4018 218.509 32.5111 218.509ZM54.1984 229.933C54.625 229.933 54.9664 230.104 55.2224 230.445C55.4997 230.787 55.6384 231.224 55.6384 231.757C55.6384 232.12 55.5317 232.461 55.3184 232.781C55.105 233.08 54.8064 233.336 54.4224 233.549C53.697 233.933 52.8544 234.253 51.8944 234.509C50.9344 234.744 50.049 234.861 49.2384 234.861C47.5317 234.861 46.0384 234.531 44.7584 233.869C43.4997 233.208 42.529 232.269 41.8464 231.053C41.1637 229.816 40.8224 228.365 40.8224 226.701C40.8224 225.101 41.153 223.683 41.8144 222.445C42.4757 221.208 43.393 220.248 44.5664 219.565C45.7397 218.861 47.073 218.509 48.5664 218.509C49.9957 218.509 51.2437 218.829 52.3104 219.469C53.3984 220.088 54.241 220.984 54.8384 222.157C55.4357 223.309 55.7344 224.664 55.7344 226.221C55.7344 226.691 55.617 227.053 55.3824 227.309C55.169 227.544 54.8597 227.661 54.4544 227.661H45.4944C45.6437 228.92 46.0277 229.837 46.6464 230.413C47.265 230.968 48.1504 231.245 49.3024 231.245C49.921 231.245 50.4757 231.171 50.9664 231.021C51.457 230.872 52.001 230.669 52.5984 230.413C52.897 230.285 53.185 230.179 53.4624 230.093C53.7397 229.987 53.985 229.933 54.1984 229.933ZM48.6944 221.837C47.777 221.837 47.041 222.136 46.4864 222.733C45.9317 223.309 45.601 224.152 45.4944 225.261H51.6704C51.6064 224.131 51.3184 223.277 50.8064 222.701C50.3157 222.125 49.6117 221.837 48.6944 221.837ZM65.9169 234.861C64.2955 234.861 62.8769 234.531 61.6609 233.869C60.4449 233.208 59.5062 232.269 58.8449 231.053C58.2049 229.837 57.8849 228.408 57.8849 226.765C57.8849 225.123 58.2262 223.683 58.9089 222.445C59.6129 221.187 60.5942 220.216 61.8529 219.533C63.1115 218.851 64.5622 218.509 66.2049 218.509C67.0582 218.509 67.9115 218.627 68.7649 218.861C69.6395 219.096 70.4182 219.427 71.1009 219.853C71.7622 220.259 72.0929 220.856 72.0929 221.645C72.0929 222.2 71.9649 222.659 71.7089 223.021C71.4529 223.363 71.1115 223.533 70.6849 223.533C70.4075 223.533 70.1409 223.491 69.8849 223.405C69.6502 223.299 69.3302 223.149 68.9249 222.957C68.4769 222.723 68.0715 222.541 67.7089 222.413C67.3675 222.285 66.9729 222.221 66.5249 222.221C65.3302 222.221 64.4129 222.605 63.7729 223.373C63.1542 224.12 62.8449 225.219 62.8449 226.669C62.8449 228.12 63.1542 229.229 63.7729 229.997C64.4129 230.765 65.3302 231.149 66.5249 231.149C66.9729 231.149 67.3675 231.096 67.7089 230.989C68.0502 230.861 68.4662 230.669 68.9569 230.413C69.3622 230.221 69.6822 230.083 69.9169 229.997C70.1515 229.891 70.4075 229.837 70.6849 229.837C71.0902 229.837 71.4209 230.019 71.6769 230.381C71.9542 230.744 72.0929 231.203 72.0929 231.757C72.0929 232.547 71.7622 233.133 71.1009 233.517C70.4182 233.944 69.6289 234.275 68.7329 234.509C67.8369 234.744 66.8982 234.861 65.9169 234.861ZM89.2814 230.861C89.772 231.331 90.0174 231.864 90.0174 232.461C90.0174 233.059 89.7934 233.592 89.3454 234.061C88.9187 234.531 88.4174 234.765 87.8414 234.765C87.2867 234.765 86.7747 234.541 86.3054 234.093L79.2974 227.597V232.493C79.2974 233.24 79.0627 233.805 78.5934 234.189C78.1454 234.573 77.58 234.765 76.8974 234.765C76.1934 234.765 75.6067 234.573 75.1374 234.189C74.6894 233.805 74.4654 233.24 74.4654 232.493V214.157C74.4654 213.411 74.6894 212.845 75.1374 212.461C75.6067 212.077 76.1934 211.885 76.8974 211.885C77.58 211.885 78.1454 212.077 78.5934 212.461C79.0627 212.845 79.2974 213.411 79.2974 214.157V225.613L85.6974 219.309C86.1667 218.84 86.6894 218.605 87.2654 218.605C87.8627 218.605 88.3854 218.829 88.8334 219.277C89.2814 219.704 89.5054 220.216 89.5054 220.813C89.5054 221.368 89.26 221.891 88.7694 222.381L84.5134 226.445L89.2814 230.861ZM108.799 234.861C107.135 234.861 105.673 234.531 104.415 233.869C103.156 233.187 102.185 232.237 101.503 231.021C100.82 229.784 100.479 228.333 100.479 226.669C100.479 225.005 100.82 223.565 101.503 222.349C102.185 221.112 103.156 220.163 104.415 219.501C105.673 218.84 107.135 218.509 108.799 218.509C110.463 218.509 111.924 218.84 113.183 219.501C114.441 220.163 115.412 221.112 116.095 222.349C116.777 223.565 117.119 225.005 117.119 226.669C117.119 228.333 116.777 229.784 116.095 231.021C115.412 232.237 114.441 233.187 113.183 233.869C111.924 234.531 110.463 234.861 108.799 234.861ZM108.799 231.181C111.145 231.181 112.319 229.677 112.319 226.669C112.319 225.155 112.009 224.024 111.391 223.277C110.793 222.531 109.929 222.157 108.799 222.157C106.452 222.157 105.279 223.661 105.279 226.669C105.279 229.677 106.452 231.181 108.799 231.181ZM132.763 218.573C133.51 218.573 134.096 218.776 134.523 219.181C134.971 219.587 135.195 220.141 135.195 220.845V232.589C135.195 233.251 134.96 233.784 134.491 234.189C134.043 234.595 133.456 234.797 132.731 234.797C132.048 234.797 131.504 234.605 131.099 234.221C130.694 233.837 130.491 233.325 130.491 232.685V232.365C130 233.176 129.35 233.795 128.539 234.221C127.75 234.648 126.854 234.861 125.851 234.861C123.867 234.861 122.384 234.317 121.403 233.229C120.443 232.12 119.963 230.456 119.963 228.237V220.845C119.963 220.141 120.176 219.587 120.603 219.181C121.051 218.776 121.648 218.573 122.395 218.573C123.142 218.573 123.728 218.776 124.155 219.181C124.582 219.587 124.795 220.141 124.795 220.845V228.333C124.795 229.272 124.987 229.965 125.371 230.413C125.776 230.861 126.384 231.085 127.195 231.085C128.134 231.085 128.891 230.765 129.467 230.125C130.064 229.485 130.363 228.643 130.363 227.597V220.845C130.363 220.141 130.576 219.587 131.003 219.181C131.43 218.776 132.016 218.573 132.763 218.573ZM147.639 231.277C148.279 231.32 148.748 231.48 149.047 231.757C149.346 232.035 149.495 232.44 149.495 232.973C149.495 233.592 149.25 234.061 148.759 234.381C148.268 234.701 147.564 234.829 146.647 234.765L145.751 234.701C142.018 234.403 140.151 232.451 140.151 228.845V222.509H138.871C138.167 222.509 137.634 222.36 137.271 222.061C136.908 221.741 136.727 221.293 136.727 220.717C136.727 220.12 136.908 219.672 137.271 219.373C137.634 219.053 138.167 218.893 138.871 218.893H140.151V216.397C140.151 215.693 140.364 215.139 140.791 214.733C141.239 214.328 141.836 214.125 142.583 214.125C143.33 214.125 143.916 214.328 144.343 214.733C144.77 215.139 144.983 215.693 144.983 216.397V218.893H147.223C148.674 218.893 149.399 219.501 149.399 220.717C149.399 221.293 149.218 221.741 148.855 222.061C148.492 222.36 147.948 222.509 147.223 222.509H144.983V229.197C144.983 229.837 145.132 230.328 145.431 230.669C145.73 230.989 146.167 231.171 146.743 231.213L147.639 231.277ZM166.167 234.861C164.866 234.861 163.735 234.755 162.775 234.541C161.815 234.328 160.973 233.987 160.247 233.517C159.927 233.325 159.682 233.069 159.511 232.749C159.341 232.429 159.255 232.067 159.255 231.661C159.255 231.171 159.394 230.765 159.671 230.445C159.949 230.104 160.29 229.933 160.695 229.933C160.973 229.933 161.25 229.987 161.527 230.093C161.805 230.179 162.093 230.285 162.391 230.413C162.989 230.691 163.575 230.915 164.151 231.085C164.727 231.235 165.442 231.309 166.295 231.309C167.042 231.309 167.618 231.192 168.023 230.957C168.45 230.723 168.663 230.403 168.663 229.997C168.663 229.699 168.567 229.464 168.375 229.293C168.205 229.101 167.874 228.931 167.383 228.781C166.893 228.632 166.114 228.451 165.047 228.237C163.149 227.875 161.783 227.331 160.951 226.605C160.119 225.88 159.703 224.867 159.703 223.565C159.703 222.605 159.991 221.741 160.567 220.973C161.165 220.205 161.975 219.608 162.999 219.181C164.023 218.733 165.175 218.509 166.455 218.509C167.373 218.509 168.269 218.627 169.143 218.861C170.018 219.096 170.797 219.427 171.479 219.853C172.141 220.259 172.471 220.856 172.471 221.645C172.471 222.157 172.333 222.584 172.055 222.925C171.778 223.267 171.437 223.437 171.031 223.437C170.541 223.437 169.954 223.245 169.271 222.861C168.738 222.584 168.247 222.381 167.799 222.253C167.373 222.104 166.861 222.029 166.263 222.029C165.602 222.029 165.079 222.157 164.695 222.413C164.311 222.648 164.119 222.979 164.119 223.405C164.119 223.853 164.343 224.195 164.791 224.429C165.239 224.664 166.103 224.899 167.383 225.133C168.813 225.411 169.933 225.752 170.743 226.157C171.554 226.541 172.141 227.032 172.503 227.629C172.866 228.227 173.047 228.984 173.047 229.901C173.047 231.416 172.418 232.621 171.159 233.517C169.922 234.413 168.258 234.861 166.167 234.861ZM182.881 218.509C185.185 218.509 186.892 219.075 188.001 220.205C189.11 221.315 189.665 223.021 189.665 225.325V232.557C189.665 233.261 189.462 233.816 189.057 234.221C188.652 234.605 188.086 234.797 187.361 234.797C186.678 234.797 186.124 234.595 185.697 234.189C185.292 233.763 185.089 233.219 185.089 232.557V232.333C184.769 233.123 184.236 233.741 183.489 234.189C182.742 234.637 181.868 234.861 180.865 234.861C179.798 234.861 178.828 234.648 177.953 234.221C177.1 233.795 176.417 233.197 175.905 232.429C175.414 231.661 175.169 230.808 175.169 229.869C175.169 228.717 175.457 227.811 176.033 227.149C176.63 226.488 177.58 226.008 178.881 225.709C180.182 225.411 181.964 225.261 184.225 225.261H185.057V224.685C185.057 223.789 184.854 223.139 184.449 222.733C184.065 222.328 183.414 222.125 182.497 222.125C181.58 222.125 180.257 222.445 178.529 223.085C178.038 223.32 177.622 223.437 177.281 223.437C176.812 223.437 176.438 223.277 176.161 222.957C175.884 222.616 175.745 222.179 175.745 221.645C175.745 221.219 175.841 220.867 176.033 220.589C176.225 220.312 176.534 220.056 176.961 219.821C177.708 219.416 178.614 219.096 179.681 218.861C180.769 218.627 181.836 218.509 182.881 218.509ZM181.921 231.533C182.86 231.533 183.617 231.224 184.193 230.605C184.769 229.965 185.057 229.144 185.057 228.141V227.597H184.513C182.785 227.597 181.569 227.736 180.865 228.013C180.182 228.291 179.841 228.792 179.841 229.517C179.841 230.115 180.033 230.605 180.417 230.989C180.822 231.352 181.324 231.533 181.921 231.533ZM201.822 215.565C200.947 215.629 200.318 215.896 199.934 216.365C199.55 216.835 199.358 217.496 199.358 218.349V218.893H201.598C203.049 218.893 203.774 219.501 203.774 220.717C203.774 221.912 203.049 222.509 201.598 222.509H199.358V232.493C199.358 233.24 199.123 233.805 198.654 234.189C198.206 234.573 197.641 234.765 196.958 234.765C196.254 234.765 195.667 234.573 195.198 234.189C194.75 233.805 194.526 233.24 194.526 232.493V222.509H193.246C191.817 222.509 191.102 221.912 191.102 220.717C191.102 219.501 191.817 218.893 193.246 218.893H194.526C194.526 216.845 195.091 215.235 196.222 214.061C197.353 212.888 198.91 212.227 200.894 212.077L201.726 212.013L202.302 211.981C203.774 211.981 204.51 212.547 204.51 213.677C204.51 214.787 203.891 215.395 202.654 215.501L201.822 215.565ZM217.761 229.933C218.188 229.933 218.529 230.104 218.785 230.445C219.062 230.787 219.201 231.224 219.201 231.757C219.201 232.12 219.094 232.461 218.881 232.781C218.668 233.08 218.369 233.336 217.985 233.549C217.26 233.933 216.417 234.253 215.457 234.509C214.497 234.744 213.612 234.861 212.801 234.861C211.094 234.861 209.601 234.531 208.321 233.869C207.062 233.208 206.092 232.269 205.409 231.053C204.726 229.816 204.385 228.365 204.385 226.701C204.385 225.101 204.716 223.683 205.377 222.445C206.038 221.208 206.956 220.248 208.129 219.565C209.302 218.861 210.636 218.509 212.129 218.509C213.558 218.509 214.806 218.829 215.873 219.469C216.961 220.088 217.804 220.984 218.401 222.157C218.998 223.309 219.297 224.664 219.297 226.221C219.297 226.691 219.18 227.053 218.945 227.309C218.732 227.544 218.422 227.661 218.017 227.661H209.057C209.206 228.92 209.59 229.837 210.209 230.413C210.828 230.968 211.713 231.245 212.865 231.245C213.484 231.245 214.038 231.171 214.529 231.021C215.02 230.872 215.564 230.669 216.161 230.413C216.46 230.285 216.748 230.179 217.025 230.093C217.302 229.987 217.548 229.933 217.761 229.933ZM212.257 221.837C211.34 221.837 210.604 222.136 210.049 222.733C209.494 223.309 209.164 224.152 209.057 225.261H215.233C215.169 224.131 214.881 223.277 214.369 222.701C213.878 222.125 213.174 221.837 212.257 221.837ZM224.647 234.797C223.943 234.797 223.357 234.605 222.887 234.221C222.439 233.837 222.215 233.272 222.215 232.525V214.157C222.215 213.411 222.439 212.845 222.887 212.461C223.357 212.077 223.943 211.885 224.647 211.885C225.33 211.885 225.895 212.077 226.343 212.461C226.813 212.845 227.047 213.411 227.047 214.157V232.525C227.047 233.272 226.813 233.837 226.343 234.221C225.895 234.605 225.33 234.797 224.647 234.797ZM241.467 219.949C241.659 219.501 241.925 219.171 242.267 218.957C242.629 218.744 243.013 218.637 243.419 218.637C244.037 218.637 244.581 218.84 245.051 219.245C245.52 219.629 245.755 220.099 245.755 220.653C245.755 220.952 245.68 221.251 245.531 221.549L236.923 239.213C236.709 239.661 236.421 239.992 236.059 240.205C235.696 240.44 235.312 240.557 234.907 240.557C234.309 240.557 233.787 240.365 233.339 239.981C232.891 239.597 232.667 239.128 232.667 238.573C232.667 238.232 232.741 237.912 232.891 237.613L235.003 233.229L229.307 221.549C229.179 221.251 229.115 220.963 229.115 220.685C229.115 220.109 229.36 219.619 229.851 219.213C230.363 218.808 230.939 218.605 231.579 218.605C232.005 218.605 232.4 218.723 232.763 218.957C233.125 219.171 233.413 219.501 233.627 219.949L237.595 228.589L241.467 219.949Z" fill="#F0256F" />
    <path d="M61.7751 11.9857C62.2367 7.23117 66.2329 3.60419 71.0098 3.60419H151.299C156.076 3.60419 160.072 7.23117 160.534 11.9857L170.35 113.089C170.88 118.541 166.594 123.263 161.115 123.263H61.1936C55.7152 123.263 51.4295 118.541 51.9589 113.089L61.7751 11.9857Z" stroke="#FF7DB0" stroke-width="7.20838" />
    <circle cx="157.788" cy="116.139" r="32.4634" fill="url(#paint0_linear)" />
    <path fill-rule="evenodd" clip-rule="evenodd" d="M149.329 114.257C148.404 114.257 147.654 114.993 147.654 115.901V130.42C147.654 131.328 148.404 132.064 149.329 132.064H168.325C169.25 132.064 169.999 131.328 169.999 130.42V115.901C169.999 114.993 169.25 114.257 168.325 114.257H149.329ZM144.914 115.901C144.914 113.507 146.891 111.566 149.329 111.566H168.325C170.763 111.566 172.74 113.507 172.74 115.901V130.42C172.74 132.814 170.763 134.755 168.325 134.755H149.329C146.891 134.755 144.914 132.814 144.914 130.42V115.901Z" fill="white" />
    <path fill-rule="evenodd" clip-rule="evenodd" d="M158.675 99.8177C156.994 99.8177 155.382 100.485 154.194 101.674C153.005 102.863 152.337 104.475 152.337 106.156V112.339C152.337 113.108 151.714 113.731 150.946 113.731C150.178 113.731 149.555 113.108 149.555 112.339V106.156C149.555 103.737 150.516 101.417 152.226 99.7065C153.937 97.9961 156.256 97.0352 158.675 97.0352C161.094 97.0352 163.414 97.9961 165.125 99.7065C166.835 101.417 167.796 103.737 167.796 106.156V112.339C167.796 113.108 167.173 113.731 166.405 113.731C165.636 113.731 165.013 113.108 165.013 112.339V106.156C165.013 104.475 164.346 102.863 163.157 101.674C161.968 100.485 160.356 99.8177 158.675 99.8177Z" fill="white" />
    <rect x="157.086" y="119.098" width="3.47822" height="8.11585" rx="1.73911" fill="white" />
    <path d="M112.183 65.3903C104.641 65.3903 97.0858 59.9364 97.0858 53.2087V26.0761C97.0858 24.3686 95.7016 22.9844 93.9941 22.9844C92.2866 22.9844 90.9023 24.3686 90.9023 26.0761V53.2087C90.9023 62.9829 101.226 70.9065 112.183 70.9065C124.581 70.9065 133.463 62.9829 133.463 53.2087V26.0761C133.463 24.3686 132.079 22.9844 130.371 22.9844C128.664 22.9844 127.28 24.3686 127.28 26.0761V53.2087C127.28 59.9364 119.724 65.3903 112.183 65.3903Z" fill="url(#paint1_linear)" />
    <defs>
        <linearGradient id="paint0_linear" x1="125.324" y1="116.139" x2="190.251" y2="116.139" gradientUnits="userSpaceOnUse">
            <stop offset="0.489583" stop-color="#F0256F" />
            <stop offset="1" stop-color="#B12170" />
        </linearGradient>
        <linearGradient id="paint1_linear" x1="90.9023" y1="46.9454" x2="133.463" y2="46.9454" gradientUnits="userSpaceOnUse">
            <stop offset="0.489583" stop-color="#F0256F" />
            <stop offset="1" stop-color="#B12170" />
        </linearGradient>
    </defs>
</svg> -->


<svg width="143" height="149" viewBox="0 0 143 149" fill="none" xmlns="http://www.w3.org/2000/svg">
<path d="M13.7751 11.9857C14.2367 7.23117 18.2329 3.60419 23.0098 3.60419H103.299C108.076 3.60419 112.072 7.23117 112.534 11.9857L122.35 113.089C122.88 118.541 118.594 123.263 113.115 123.263H13.1936C7.71516 123.263 3.42952 118.541 3.95894 113.089L13.7751 11.9857Z" stroke="#FF7DB0" stroke-width="7.20838"/>
<circle cx="109.788" cy="116.139" r="32.4634" fill="url(#paint0_linear)"/>
<path fill-rule="evenodd" clip-rule="evenodd" d="M101.329 114.257C100.404 114.257 99.6545 114.993 99.6545 115.901V130.42C99.6545 131.328 100.404 132.064 101.329 132.064H120.325C121.25 132.064 121.999 131.328 121.999 130.42V115.901C121.999 114.993 121.25 114.257 120.325 114.257H101.329ZM96.9141 115.901C96.9141 113.507 98.8908 111.566 101.329 111.566H120.325C122.763 111.566 124.74 113.507 124.74 115.901V130.42C124.74 132.814 122.763 134.755 120.325 134.755H101.329C98.8908 134.755 96.9141 132.814 96.9141 130.42V115.901Z" fill="white"/>
<path fill-rule="evenodd" clip-rule="evenodd" d="M110.675 99.8177C108.994 99.8177 107.382 100.485 106.194 101.674C105.005 102.863 104.337 104.475 104.337 106.156V112.339C104.337 113.108 103.714 113.731 102.946 113.731C102.178 113.731 101.555 113.108 101.555 112.339V106.156C101.555 103.737 102.516 101.417 104.226 99.7065C105.937 97.9961 108.256 97.0352 110.675 97.0352C113.094 97.0352 115.414 97.9961 117.125 99.7065C118.835 101.417 119.796 103.737 119.796 106.156V112.339C119.796 113.108 119.173 113.731 118.405 113.731C117.636 113.731 117.013 113.108 117.013 112.339V106.156C117.013 104.475 116.346 102.863 115.157 101.674C113.968 100.485 112.356 99.8177 110.675 99.8177Z" fill="white"/>
<rect x="109.086" y="119.098" width="3.47822" height="8.11585" rx="1.73911" fill="white"/>
<path d="M64.1828 65.3903C56.6412 65.3903 49.0858 59.9364 49.0858 53.2087V26.0761C49.0858 24.3686 47.7016 22.9844 45.9941 22.9844C44.2866 22.9844 42.9023 24.3686 42.9023 26.0761V53.2087C42.9023 62.9829 53.2261 70.9065 64.1828 70.9065C76.5811 70.9065 85.4632 62.9829 85.4632 53.2087V26.0761C85.4632 24.3686 84.0789 22.9844 82.3714 22.9844C80.6639 22.9844 79.2797 24.3686 79.2797 26.0761V53.2087C79.2797 59.9364 71.7243 65.3903 64.1828 65.3903Z" fill="url(#paint1_linear)"/>
<defs>
<linearGradient id="paint0_linear" x1="77.3242" y1="116.139" x2="142.251" y2="116.139" gradientUnits="userSpaceOnUse">
<stop offset="0.489583" stop-color="#F0256F"/>
<stop offset="1" stop-color="#B12170"/>
</linearGradient>
<linearGradient id="paint1_linear" x1="42.9023" y1="46.9454" x2="85.4632" y2="46.9454" gradientUnits="userSpaceOnUse">
<stop offset="0.489583" stop-color="#F0256F"/>
<stop offset="1" stop-color="#B12170"/>
</linearGradient>
</defs>
</svg>
