<!-- <svg width="242" height="190" viewBox="0 0 308 236" fill="none" xmlns="http://www.w3.org/2000/svg">
    <path d="M17.6591 212.194C18.3631 212.194 18.9285 212.429 19.3551 212.898C19.8031 213.346 20.0271 213.933 20.0271 214.658V232.61C20.0271 233.357 19.8031 233.965 19.3551 234.434C18.9285 234.882 18.3631 235.106 17.6591 235.106C16.8911 235.106 16.2725 234.829 15.8031 234.274L5.08313 220.546V232.61C5.08313 233.357 4.86979 233.965 4.44313 234.434C4.03779 234.882 3.48313 235.106 2.77913 235.106C2.07513 235.106 1.50979 234.882 1.08313 234.434C0.656458 233.965 0.443125 233.357 0.443125 232.61V214.658C0.443125 213.933 0.656458 213.346 1.08313 212.898C1.53113 212.429 2.10713 212.194 2.81113 212.194C3.60046 212.194 4.20846 212.471 4.63513 213.026L15.3551 226.658V214.658C15.3551 213.933 15.5685 213.346 15.9951 212.898C16.4218 212.429 16.9765 212.194 17.6591 212.194ZM31.6736 235.17C30.0096 235.17 28.5483 234.839 27.2896 234.178C26.031 233.495 25.0603 232.546 24.3776 231.33C23.695 230.093 23.3536 228.642 23.3536 226.978C23.3536 225.314 23.695 223.874 24.3776 222.658C25.0603 221.421 26.031 220.471 27.2896 219.81C28.5483 219.149 30.0096 218.818 31.6736 218.818C33.3376 218.818 34.799 219.149 36.0576 219.81C37.3163 220.471 38.287 221.421 38.9696 222.658C39.6523 223.874 39.9936 225.314 39.9936 226.978C39.9936 228.642 39.6523 230.093 38.9696 231.33C38.287 232.546 37.3163 233.495 36.0576 234.178C34.799 234.839 33.3376 235.17 31.6736 235.17ZM31.6736 231.49C34.0203 231.49 35.1936 229.986 35.1936 226.978C35.1936 225.463 34.8843 224.333 34.2656 223.586C33.6683 222.839 32.8043 222.466 31.6736 222.466C29.327 222.466 28.1536 223.97 28.1536 226.978C28.1536 229.986 29.327 231.49 31.6736 231.49ZM71.2316 218.818C72.9383 218.818 74.2503 219.341 75.1676 220.386C76.085 221.41 76.5436 223.095 76.5436 225.442V232.834C76.5436 233.581 76.3196 234.146 75.8716 234.53C75.4236 234.914 74.8476 235.106 74.1436 235.106C73.461 235.106 72.885 234.914 72.4156 234.53C71.9463 234.146 71.7116 233.581 71.7116 232.834V225.378C71.7116 224.354 71.5303 223.639 71.1676 223.234C70.8263 222.807 70.293 222.594 69.5676 222.594C68.6716 222.594 67.957 222.903 67.4236 223.522C66.8903 224.141 66.6236 225.005 66.6236 226.114V232.834C66.6236 233.581 66.3996 234.146 65.9516 234.53C65.5036 234.914 64.9276 235.106 64.2236 235.106C63.541 235.106 62.965 234.914 62.4956 234.53C62.0263 234.146 61.7916 233.581 61.7916 232.834V225.378C61.7916 224.354 61.6103 223.639 61.2476 223.234C60.9063 222.807 60.373 222.594 59.6476 222.594C58.7516 222.594 58.037 222.903 57.5036 223.522C56.9703 224.141 56.7036 225.005 56.7036 226.114V232.834C56.7036 233.581 56.469 234.146 55.9996 234.53C55.5516 234.914 54.9863 235.106 54.3036 235.106C53.621 235.106 53.045 234.914 52.5756 234.53C52.1063 234.146 51.8716 233.581 51.8716 232.834V221.09C51.8716 220.386 52.1063 219.842 52.5756 219.458C53.0663 219.074 53.653 218.882 54.3356 218.882C54.9756 218.882 55.509 219.074 55.9356 219.458C56.3623 219.821 56.5756 220.333 56.5756 220.994V221.314C57.0876 220.503 57.749 219.885 58.5596 219.458C59.3916 219.031 60.3303 218.818 61.3756 218.818C62.5063 218.818 63.4556 219.053 64.2236 219.522C65.013 219.97 65.621 220.706 66.0476 221.73C66.5383 220.834 67.2316 220.13 68.1276 219.618C69.045 219.085 70.0796 218.818 71.2316 218.818ZM87.7361 235.17C86.0721 235.17 84.6108 234.839 83.3521 234.178C82.0935 233.495 81.1228 232.546 80.4401 231.33C79.7575 230.093 79.4161 228.642 79.4161 226.978C79.4161 225.314 79.7575 223.874 80.4401 222.658C81.1228 221.421 82.0935 220.471 83.3521 219.81C84.6108 219.149 86.0721 218.818 87.7361 218.818C89.4001 218.818 90.8615 219.149 92.1201 219.81C93.3788 220.471 94.3495 221.421 95.0321 222.658C95.7148 223.874 96.0561 225.314 96.0561 226.978C96.0561 228.642 95.7148 230.093 95.0321 231.33C94.3495 232.546 93.3788 233.495 92.1201 234.178C90.8615 234.839 89.4001 235.17 87.7361 235.17ZM87.7361 231.49C90.0828 231.49 91.2561 229.986 91.2561 226.978C91.2561 225.463 90.9468 224.333 90.3281 223.586C89.7308 222.839 88.8668 222.466 87.7361 222.466C85.3895 222.466 84.2161 223.97 84.2161 226.978C84.2161 229.986 85.3895 231.49 87.7361 231.49ZM108.373 218.882C109.013 218.839 109.514 218.989 109.877 219.33C110.261 219.65 110.453 220.141 110.453 220.802C110.453 221.506 110.282 222.029 109.941 222.37C109.599 222.711 108.991 222.925 108.117 223.01L107.157 223.106C105.983 223.234 105.13 223.618 104.597 224.258C104.085 224.898 103.829 225.719 103.829 226.722V232.834C103.829 233.581 103.594 234.146 103.125 234.53C102.677 234.914 102.111 235.106 101.429 235.106C100.725 235.106 100.138 234.914 99.6686 234.53C99.2206 234.146 98.9966 233.581 98.9966 232.834V221.09C98.9966 220.386 99.2313 219.842 99.7006 219.458C100.17 219.074 100.735 218.882 101.397 218.882C102.037 218.882 102.57 219.074 102.997 219.458C103.423 219.821 103.637 220.333 103.637 220.994V221.858C104.021 220.941 104.597 220.237 105.365 219.746C106.154 219.255 107.007 218.978 107.925 218.914L108.373 218.882ZM124.136 230.242C124.563 230.242 124.904 230.413 125.16 230.754C125.437 231.095 125.576 231.533 125.576 232.066C125.576 232.429 125.469 232.77 125.256 233.09C125.043 233.389 124.744 233.645 124.36 233.858C123.635 234.242 122.792 234.562 121.832 234.818C120.872 235.053 119.987 235.17 119.176 235.17C117.469 235.17 115.976 234.839 114.696 234.178C113.437 233.517 112.467 232.578 111.784 231.362C111.101 230.125 110.76 228.674 110.76 227.01C110.76 225.41 111.091 223.991 111.752 222.754C112.413 221.517 113.331 220.557 114.504 219.874C115.677 219.17 117.011 218.818 118.504 218.818C119.933 218.818 121.181 219.138 122.248 219.778C123.336 220.397 124.179 221.293 124.776 222.466C125.373 223.618 125.672 224.973 125.672 226.53C125.672 226.999 125.555 227.362 125.32 227.618C125.107 227.853 124.797 227.97 124.392 227.97H115.432C115.581 229.229 115.965 230.146 116.584 230.722C117.203 231.277 118.088 231.554 119.24 231.554C119.859 231.554 120.413 231.479 120.904 231.33C121.395 231.181 121.939 230.978 122.536 230.722C122.835 230.594 123.123 230.487 123.4 230.402C123.677 230.295 123.923 230.242 124.136 230.242ZM118.632 222.146C117.715 222.146 116.979 222.445 116.424 223.042C115.869 223.618 115.539 224.461 115.432 225.57H121.608C121.544 224.439 121.256 223.586 120.744 223.01C120.253 222.434 119.549 222.146 118.632 222.146ZM146.072 215.874C145.197 215.938 144.568 216.205 144.184 216.674C143.8 217.143 143.608 217.805 143.608 218.658V219.202H145.848C147.299 219.202 148.024 219.81 148.024 221.026C148.024 222.221 147.299 222.818 145.848 222.818H143.608V232.802C143.608 233.549 143.373 234.114 142.904 234.498C142.456 234.882 141.891 235.074 141.208 235.074C140.504 235.074 139.917 234.882 139.448 234.498C139 234.114 138.776 233.549 138.776 232.802V222.818H137.496C136.067 222.818 135.352 222.221 135.352 221.026C135.352 219.81 136.067 219.202 137.496 219.202H138.776C138.776 217.154 139.341 215.543 140.472 214.37C141.603 213.197 143.16 212.535 145.144 212.386L145.976 212.322L146.552 212.29C148.024 212.29 148.76 212.855 148.76 213.986C148.76 215.095 148.141 215.703 146.904 215.81L146.072 215.874ZM156.955 235.17C155.291 235.17 153.83 234.839 152.571 234.178C151.312 233.495 150.342 232.546 149.659 231.33C148.976 230.093 148.635 228.642 148.635 226.978C148.635 225.314 148.976 223.874 149.659 222.658C150.342 221.421 151.312 220.471 152.571 219.81C153.83 219.149 155.291 218.818 156.955 218.818C158.619 218.818 160.08 219.149 161.339 219.81C162.598 220.471 163.568 221.421 164.251 222.658C164.934 223.874 165.275 225.314 165.275 226.978C165.275 228.642 164.934 230.093 164.251 231.33C163.568 232.546 162.598 233.495 161.339 234.178C160.08 234.839 158.619 235.17 156.955 235.17ZM156.955 231.49C159.302 231.49 160.475 229.986 160.475 226.978C160.475 225.463 160.166 224.333 159.547 223.586C158.95 222.839 158.086 222.466 156.955 222.466C154.608 222.466 153.435 223.97 153.435 226.978C153.435 229.986 154.608 231.49 156.955 231.49ZM177.591 218.882C178.231 218.839 178.733 218.989 179.095 219.33C179.479 219.65 179.671 220.141 179.671 220.802C179.671 221.506 179.501 222.029 179.159 222.37C178.818 222.711 178.21 222.925 177.335 223.01L176.375 223.106C175.202 223.234 174.349 223.618 173.815 224.258C173.303 224.898 173.047 225.719 173.047 226.722V232.834C173.047 233.581 172.813 234.146 172.343 234.53C171.895 234.914 171.33 235.106 170.647 235.106C169.943 235.106 169.357 234.914 168.887 234.53C168.439 234.146 168.215 233.581 168.215 232.834V221.09C168.215 220.386 168.45 219.842 168.919 219.458C169.389 219.074 169.954 218.882 170.615 218.882C171.255 218.882 171.789 219.074 172.215 219.458C172.642 219.821 172.855 220.333 172.855 220.994V221.858C173.239 220.941 173.815 220.237 174.583 219.746C175.373 219.255 176.226 218.978 177.143 218.914L177.591 218.882ZM200.419 218.818C202.126 218.818 203.438 219.341 204.355 220.386C205.272 221.41 205.731 223.095 205.731 225.442V232.834C205.731 233.581 205.507 234.146 205.059 234.53C204.611 234.914 204.035 235.106 203.331 235.106C202.648 235.106 202.072 234.914 201.603 234.53C201.134 234.146 200.899 233.581 200.899 232.834V225.378C200.899 224.354 200.718 223.639 200.355 223.234C200.014 222.807 199.48 222.594 198.755 222.594C197.859 222.594 197.144 222.903 196.611 223.522C196.078 224.141 195.811 225.005 195.811 226.114V232.834C195.811 233.581 195.587 234.146 195.139 234.53C194.691 234.914 194.115 235.106 193.411 235.106C192.728 235.106 192.152 234.914 191.683 234.53C191.214 234.146 190.979 233.581 190.979 232.834V225.378C190.979 224.354 190.798 223.639 190.435 223.234C190.094 222.807 189.56 222.594 188.835 222.594C187.939 222.594 187.224 222.903 186.691 223.522C186.158 224.141 185.891 225.005 185.891 226.114V232.834C185.891 233.581 185.656 234.146 185.187 234.53C184.739 234.914 184.174 235.106 183.491 235.106C182.808 235.106 182.232 234.914 181.763 234.53C181.294 234.146 181.059 233.581 181.059 232.834V221.09C181.059 220.386 181.294 219.842 181.763 219.458C182.254 219.074 182.84 218.882 183.523 218.882C184.163 218.882 184.696 219.074 185.123 219.458C185.55 219.821 185.763 220.333 185.763 220.994V221.314C186.275 220.503 186.936 219.885 187.747 219.458C188.579 219.031 189.518 218.818 190.563 218.818C191.694 218.818 192.643 219.053 193.411 219.522C194.2 219.97 194.808 220.706 195.235 221.73C195.726 220.834 196.419 220.13 197.315 219.618C198.232 219.085 199.267 218.818 200.419 218.818ZM215.324 235.17C214.022 235.17 212.892 235.063 211.932 234.85C210.972 234.637 210.129 234.295 209.404 233.826C209.084 233.634 208.838 233.378 208.668 233.058C208.497 232.738 208.412 232.375 208.412 231.97C208.412 231.479 208.55 231.074 208.828 230.754C209.105 230.413 209.446 230.242 209.852 230.242C210.129 230.242 210.406 230.295 210.684 230.402C210.961 230.487 211.249 230.594 211.548 230.722C212.145 230.999 212.732 231.223 213.308 231.394C213.884 231.543 214.598 231.618 215.452 231.618C216.198 231.618 216.774 231.501 217.18 231.266C217.606 231.031 217.82 230.711 217.82 230.306C217.82 230.007 217.724 229.773 217.532 229.602C217.361 229.41 217.03 229.239 216.54 229.09C216.049 228.941 215.27 228.759 214.204 228.546C212.305 228.183 210.94 227.639 210.108 226.914C209.276 226.189 208.86 225.175 208.86 223.874C208.86 222.914 209.148 222.05 209.724 221.282C210.321 220.514 211.132 219.917 212.156 219.49C213.18 219.042 214.332 218.818 215.612 218.818C216.529 218.818 217.425 218.935 218.3 219.17C219.174 219.405 219.953 219.735 220.636 220.162C221.297 220.567 221.628 221.165 221.628 221.954C221.628 222.466 221.489 222.893 221.212 223.234C220.934 223.575 220.593 223.746 220.188 223.746C219.697 223.746 219.11 223.554 218.428 223.17C217.894 222.893 217.404 222.69 216.956 222.562C216.529 222.413 216.017 222.338 215.42 222.338C214.758 222.338 214.236 222.466 213.852 222.722C213.468 222.957 213.276 223.287 213.276 223.714C213.276 224.162 213.5 224.503 213.948 224.738C214.396 224.973 215.26 225.207 216.54 225.442C217.969 225.719 219.089 226.061 219.9 226.466C220.71 226.85 221.297 227.341 221.66 227.938C222.022 228.535 222.204 229.293 222.204 230.21C222.204 231.725 221.574 232.93 220.316 233.826C219.078 234.722 217.414 235.17 215.324 235.17ZM242.639 231.586C243.279 231.629 243.748 231.789 244.047 232.066C244.346 232.343 244.495 232.749 244.495 233.282C244.495 233.901 244.25 234.37 243.759 234.69C243.268 235.01 242.564 235.138 241.647 235.074L240.751 235.01C237.018 234.711 235.151 232.759 235.151 229.154V222.818H233.871C233.167 222.818 232.634 222.669 232.271 222.37C231.908 222.05 231.727 221.602 231.727 221.026C231.727 220.429 231.908 219.981 232.271 219.682C232.634 219.362 233.167 219.202 233.871 219.202H235.151V216.706C235.151 216.002 235.364 215.447 235.791 215.042C236.239 214.637 236.836 214.434 237.583 214.434C238.33 214.434 238.916 214.637 239.343 215.042C239.77 215.447 239.983 216.002 239.983 216.706V219.202H242.223C243.674 219.202 244.399 219.81 244.399 221.026C244.399 221.602 244.218 222.05 243.855 222.37C243.492 222.669 242.948 222.818 242.223 222.818H239.983V229.506C239.983 230.146 240.132 230.637 240.431 230.978C240.73 231.298 241.167 231.479 241.743 231.522L242.639 231.586ZM253.83 235.17C252.166 235.17 250.705 234.839 249.446 234.178C248.187 233.495 247.217 232.546 246.534 231.33C245.851 230.093 245.51 228.642 245.51 226.978C245.51 225.314 245.851 223.874 246.534 222.658C247.217 221.421 248.187 220.471 249.446 219.81C250.705 219.149 252.166 218.818 253.83 218.818C255.494 218.818 256.955 219.149 258.214 219.81C259.473 220.471 260.443 221.421 261.126 222.658C261.809 223.874 262.15 225.314 262.15 226.978C262.15 228.642 261.809 230.093 261.126 231.33C260.443 232.546 259.473 233.495 258.214 234.178C256.955 234.839 255.494 235.17 253.83 235.17ZM253.83 231.49C256.177 231.49 257.35 229.986 257.35 226.978C257.35 225.463 257.041 224.333 256.422 223.586C255.825 222.839 254.961 222.466 253.83 222.466C251.483 222.466 250.31 223.97 250.31 226.978C250.31 229.986 251.483 231.49 253.83 231.49ZM288.46 216.322C287.628 216.322 286.967 216.109 286.476 215.682C285.985 215.234 285.74 214.637 285.74 213.89C285.74 213.165 285.985 212.589 286.476 212.162C286.967 211.714 287.628 211.49 288.46 211.49C289.292 211.49 289.953 211.714 290.444 212.162C290.956 212.589 291.212 213.165 291.212 213.89C291.212 214.637 290.967 215.234 290.476 215.682C289.985 216.109 289.313 216.322 288.46 216.322ZM288.716 219.202C289.441 219.202 289.985 219.362 290.348 219.682C290.711 220.002 290.892 220.45 290.892 221.026V232.834C290.892 233.581 290.657 234.146 290.188 234.53C289.74 234.914 289.164 235.106 288.46 235.106C287.777 235.106 287.201 234.914 286.732 234.53C286.284 234.146 286.06 233.581 286.06 232.834V222.818H280.108V232.802C280.108 233.549 279.873 234.114 279.404 234.498C278.956 234.882 278.391 235.074 277.708 235.074C277.004 235.074 276.417 234.882 275.948 234.498C275.5 234.114 275.276 233.549 275.276 232.802V222.818H273.996C272.567 222.818 271.852 222.221 271.852 221.026C271.852 219.81 272.567 219.202 273.996 219.202H275.276C275.297 217.197 275.873 215.607 277.004 214.434C278.135 213.261 279.681 212.578 281.644 212.386L282.316 212.322C282.444 212.301 282.636 212.29 282.892 212.29C284.215 212.29 284.876 212.855 284.876 213.986C284.876 214.541 284.716 214.978 284.396 215.298C284.097 215.597 283.713 215.767 283.244 215.81L282.572 215.874C281.697 215.959 281.068 216.237 280.684 216.706C280.3 217.154 280.108 217.805 280.108 218.658V219.202H288.716ZM297.022 235.106C296.318 235.106 295.732 234.914 295.262 234.53C294.814 234.146 294.59 233.581 294.59 232.834V214.466C294.59 213.719 294.814 213.154 295.262 212.77C295.732 212.386 296.318 212.194 297.022 212.194C297.705 212.194 298.27 212.386 298.718 212.77C299.188 213.154 299.422 213.719 299.422 214.466V232.834C299.422 233.581 299.188 234.146 298.718 234.53C298.27 234.914 297.705 235.106 297.022 235.106ZM305.554 235.106C304.85 235.106 304.263 234.914 303.794 234.53C303.346 234.146 303.122 233.581 303.122 232.834V214.466C303.122 213.719 303.346 213.154 303.794 212.77C304.263 212.386 304.85 212.194 305.554 212.194C306.236 212.194 306.802 212.386 307.25 212.77C307.719 213.154 307.954 213.719 307.954 214.466V232.834C307.954 233.581 307.719 234.146 307.25 234.53C306.802 234.914 306.236 235.106 305.554 235.106Z" fill="#F0256F"/>
    <line x1="135.018" y1="29.3731" x2="154.083" y2="29.3731" stroke="url(#paint0_linear)" stroke-width="6.1835" stroke-linecap="round"/>
    <line x1="135.018" y1="60.8067" x2="154.083" y2="60.8067" stroke="url(#paint1_linear)" stroke-width="6.1835" stroke-linecap="round"/>
    <line x1="135.018" y1="40.709" x2="169.027" y2="40.709" stroke="url(#paint2_linear)" stroke-width="6.1835" stroke-linecap="round"/>
    <line x1="135.018" y1="72.1387" x2="169.027" y2="72.1387" stroke="url(#paint3_linear)" stroke-width="6.1835" stroke-linecap="round"/>
    <mask id="path-6-inside-1" fill="white">
    <rect x="99.9768" y="23.191" width="23.1881" height="23.1881" rx="3.60704"/>
    </mask>
    <rect x="99.9768" y="23.191" width="23.1881" height="23.1881" rx="3.60704" stroke="url(#paint4_linear)" stroke-width="12.367" mask="url(#path-6-inside-1)"/>
    <mask id="path-7-inside-2" fill="white">
    <rect x="99.9768" y="54.6179" width="23.1881" height="23.1881" rx="3.60704"/>
    </mask>
    <rect x="99.9768" y="54.6179" width="23.1881" height="23.1881" rx="3.60704" stroke="url(#paint5_linear)" stroke-width="12.367" mask="url(#path-7-inside-2)"/>
    <line x1="101.521" y1="92.2364" x2="169.025" y2="92.2364" stroke="#FF7DB0" stroke-width="6.1835" stroke-linecap="round"/>
    <line x1="101.521" y1="104.088" x2="169.025" y2="104.088" stroke="#FF7DB0" stroke-width="6.1835" stroke-linecap="round"/>
    <rect x="87.6042" y="3.60419" width="96.8806" height="119.553" rx="9.27811" stroke="#FF7DB0" stroke-width="7.20838"/>
    <circle cx="185.51" cy="116.448" r="32.4634" fill="url(#paint6_linear)"/>
    <line x1="174.14" y1="127.956" x2="197.333" y2="105.209" stroke="white" stroke-width="5.04586" stroke-linecap="round"/>
    <line x1="2.52293" y1="-2.52293" x2="35.0086" y2="-2.52293" transform="matrix(-0.713938 -0.700209 -0.700209 0.713938 197.293 131.523)" stroke="white" stroke-width="5.04586" stroke-linecap="round"/>
    <defs>
    <linearGradient id="paint0_linear" x1="131.926" y1="32.9648" x2="157.175" y2="32.9648" gradientUnits="userSpaceOnUse">
    <stop offset="0.489583" stop-color="#F0256F"/>
    <stop offset="1" stop-color="#B12170"/>
    </linearGradient>
    <linearGradient id="paint1_linear" x1="131.926" y1="64.3984" x2="157.175" y2="64.3984" gradientUnits="userSpaceOnUse">
    <stop offset="0.489583" stop-color="#F0256F"/>
    <stop offset="1" stop-color="#B12170"/>
    </linearGradient>
    <linearGradient id="paint2_linear" x1="131.926" y1="44.3008" x2="172.119" y2="44.3008" gradientUnits="userSpaceOnUse">
    <stop offset="0.489583" stop-color="#F0256F"/>
    <stop offset="1" stop-color="#B12170"/>
    </linearGradient>
    <linearGradient id="paint3_linear" x1="131.926" y1="75.7305" x2="172.119" y2="75.7304" gradientUnits="userSpaceOnUse">
    <stop offset="0.489583" stop-color="#F0256F"/>
    <stop offset="1" stop-color="#B12170"/>
    </linearGradient>
    <linearGradient id="paint4_linear" x1="99.9768" y1="34.785" x2="123.165" y2="34.785" gradientUnits="userSpaceOnUse">
    <stop offset="0.489583" stop-color="#F0256F"/>
    <stop offset="1" stop-color="#B12170"/>
    </linearGradient>
    <linearGradient id="paint5_linear" x1="99.9768" y1="66.2119" x2="123.165" y2="66.2119" gradientUnits="userSpaceOnUse">
    <stop offset="0.489583" stop-color="#F0256F"/>
    <stop offset="1" stop-color="#B12170"/>
    </linearGradient>
    <linearGradient id="paint6_linear" x1="153.047" y1="116.448" x2="217.974" y2="116.448" gradientUnits="userSpaceOnUse">
    <stop offset="0.489583" stop-color="#F0256F"/>
    <stop offset="1" stop-color="#B12170"/>
    </linearGradient>
    </defs>
    </svg> -->


<svg width="134" height="149" viewBox="0 0 134 149" fill="none" xmlns="http://www.w3.org/2000/svg">
<line x1="51.0175" y1="29.3731" x2="70.0833" y2="29.3731" stroke="url(#paint0_linear)" stroke-width="6.1835" stroke-linecap="round"/>
<line x1="51.0175" y1="60.8067" x2="70.0833" y2="60.8067" stroke="url(#paint1_linear)" stroke-width="6.1835" stroke-linecap="round"/>
<line x1="51.0175" y1="40.709" x2="85.0268" y2="40.709" stroke="url(#paint2_linear)" stroke-width="6.1835" stroke-linecap="round"/>
<line x1="51.0175" y1="72.1387" x2="85.0268" y2="72.1387" stroke="url(#paint3_linear)" stroke-width="6.1835" stroke-linecap="round"/>
<mask id="path-5-inside-1" fill="white">
<rect x="15.9768" y="23.191" width="23.1881" height="23.1881" rx="3.60704"/>
</mask>
<rect x="15.9768" y="23.191" width="23.1881" height="23.1881" rx="3.60704" stroke="url(#paint4_linear)" stroke-width="12.367" mask="url(#path-5-inside-1)"/>
<mask id="path-6-inside-2" fill="white">
<rect x="15.9768" y="54.6179" width="23.1881" height="23.1881" rx="3.60704"/>
</mask>
<rect x="15.9768" y="54.6179" width="23.1881" height="23.1881" rx="3.60704" stroke="url(#paint5_linear)" stroke-width="12.367" mask="url(#path-6-inside-2)"/>
<line x1="17.5214" y1="92.2364" x2="85.0247" y2="92.2364" stroke="#FF7DB0" stroke-width="6.1835" stroke-linecap="round"/>
<line x1="17.5214" y1="104.088" x2="85.0247" y2="104.088" stroke="#FF7DB0" stroke-width="6.1835" stroke-linecap="round"/>
<rect x="3.60419" y="3.60419" width="96.8806" height="119.553" rx="9.27811" stroke="#FF7DB0" stroke-width="7.20838"/>
<circle cx="101.51" cy="116.448" r="32.4634" fill="url(#paint6_linear)"/>
<line x1="90.1401" y1="127.956" x2="113.333" y2="105.209" stroke="white" stroke-width="5.04586" stroke-linecap="round"/>
<line x1="2.52293" y1="-2.52293" x2="35.0086" y2="-2.52293" transform="matrix(-0.713938 -0.700209 -0.700209 0.713938 113.293 131.523)" stroke="white" stroke-width="5.04586" stroke-linecap="round"/>
<defs>
<linearGradient id="paint0_linear" x1="47.9258" y1="32.9648" x2="73.1751" y2="32.9648" gradientUnits="userSpaceOnUse">
<stop offset="0.489583" stop-color="#F0256F"/>
<stop offset="1" stop-color="#B12170"/>
</linearGradient>
<linearGradient id="paint1_linear" x1="47.9258" y1="64.3984" x2="73.1751" y2="64.3984" gradientUnits="userSpaceOnUse">
<stop offset="0.489583" stop-color="#F0256F"/>
<stop offset="1" stop-color="#B12170"/>
</linearGradient>
<linearGradient id="paint2_linear" x1="47.9258" y1="44.3008" x2="88.1186" y2="44.3008" gradientUnits="userSpaceOnUse">
<stop offset="0.489583" stop-color="#F0256F"/>
<stop offset="1" stop-color="#B12170"/>
</linearGradient>
<linearGradient id="paint3_linear" x1="47.9258" y1="75.7305" x2="88.1186" y2="75.7304" gradientUnits="userSpaceOnUse">
<stop offset="0.489583" stop-color="#F0256F"/>
<stop offset="1" stop-color="#B12170"/>
</linearGradient>
<linearGradient id="paint4_linear" x1="15.9768" y1="34.785" x2="39.1649" y2="34.785" gradientUnits="userSpaceOnUse">
<stop offset="0.489583" stop-color="#F0256F"/>
<stop offset="1" stop-color="#B12170"/>
</linearGradient>
<linearGradient id="paint5_linear" x1="15.9768" y1="66.2119" x2="39.1649" y2="66.2119" gradientUnits="userSpaceOnUse">
<stop offset="0.489583" stop-color="#F0256F"/>
<stop offset="1" stop-color="#B12170"/>
</linearGradient>
<linearGradient id="paint6_linear" x1="69.0469" y1="116.448" x2="133.974" y2="116.448" gradientUnits="userSpaceOnUse">
<stop offset="0.489583" stop-color="#F0256F"/>
<stop offset="1" stop-color="#B12170"/>
</linearGradient>
</defs>
</svg>
