<!-- <svg width="242" height="190" viewBox="0 0 306 241" fill="none" xmlns="http://www.w3.org/2000/svg">
    <path d="M10.327 235.078C9.58033 235.078 8.97233 234.854 8.503 234.406C8.055 233.958 7.831 233.361 7.831 232.614V216.422H2.647C1.06833 216.422 0.279 215.739 0.279 214.374C0.279 213.03 1.06833 212.358 2.647 212.358H18.007C19.5857 212.358 20.375 213.03 20.375 214.374C20.375 215.739 19.5857 216.422 18.007 216.422H12.823V232.614C12.823 233.361 12.599 233.958 12.151 234.406C11.703 234.854 11.095 235.078 10.327 235.078ZM28.9508 218.886C29.5908 218.843 30.0921 218.993 30.4548 219.334C30.8388 219.654 31.0308 220.145 31.0308 220.806C31.0308 221.51 30.8601 222.033 30.5188 222.374C30.1774 222.715 29.5694 222.929 28.6948 223.014L27.7348 223.11C26.5614 223.238 25.7081 223.622 25.1748 224.262C24.6628 224.902 24.4068 225.723 24.4068 226.726V232.838C24.4068 233.585 24.1721 234.15 23.7028 234.534C23.2548 234.918 22.6894 235.11 22.0068 235.11C21.3028 235.11 20.7161 234.918 20.2468 234.534C19.7988 234.15 19.5748 233.585 19.5748 232.838V221.094C19.5748 220.39 19.8094 219.846 20.2788 219.462C20.7481 219.078 21.3134 218.886 21.9748 218.886C22.6148 218.886 23.1481 219.078 23.5748 219.462C24.0014 219.825 24.2148 220.337 24.2148 220.998V221.862C24.5988 220.945 25.1748 220.241 25.9427 219.75C26.7321 219.259 27.5854 218.982 28.5028 218.918L28.9508 218.886ZM39.4905 218.822C41.7945 218.822 43.5012 219.387 44.6105 220.518C45.7198 221.627 46.2745 223.334 46.2745 225.638V232.87C46.2745 233.574 46.0718 234.129 45.6665 234.534C45.2612 234.918 44.6958 235.11 43.9705 235.11C43.2878 235.11 42.7332 234.907 42.3065 234.502C41.9012 234.075 41.6985 233.531 41.6985 232.87V232.646C41.3785 233.435 40.8452 234.054 40.0985 234.502C39.3518 234.95 38.4772 235.174 37.4745 235.174C36.4078 235.174 35.4372 234.961 34.5625 234.534C33.7092 234.107 33.0265 233.51 32.5145 232.742C32.0238 231.974 31.7785 231.121 31.7785 230.182C31.7785 229.03 32.0665 228.123 32.6425 227.462C33.2398 226.801 34.1892 226.321 35.4905 226.022C36.7918 225.723 38.5732 225.574 40.8345 225.574H41.6665V224.998C41.6665 224.102 41.4638 223.451 41.0585 223.046C40.6745 222.641 40.0238 222.438 39.1065 222.438C38.1892 222.438 36.8665 222.758 35.1385 223.398C34.6478 223.633 34.2318 223.75 33.8905 223.75C33.4212 223.75 33.0478 223.59 32.7705 223.27C32.4932 222.929 32.3545 222.491 32.3545 221.958C32.3545 221.531 32.4505 221.179 32.6425 220.902C32.8345 220.625 33.1438 220.369 33.5705 220.134C34.3172 219.729 35.2238 219.409 36.2905 219.174C37.3785 218.939 38.4452 218.822 39.4905 218.822ZM38.5305 231.846C39.4692 231.846 40.2265 231.537 40.8025 230.918C41.3785 230.278 41.6665 229.457 41.6665 228.454V227.91H41.1225C39.3945 227.91 38.1785 228.049 37.4745 228.326C36.7918 228.603 36.4505 229.105 36.4505 229.83C36.4505 230.427 36.6425 230.918 37.0265 231.302C37.4318 231.665 37.9332 231.846 38.5305 231.846ZM57.1513 235.174C55.5299 235.174 54.1113 234.843 52.8953 234.182C51.6793 233.521 50.7406 232.582 50.0793 231.366C49.4393 230.15 49.1193 228.721 49.1193 227.078C49.1193 225.435 49.4606 223.995 50.1432 222.758C50.8473 221.499 51.8286 220.529 53.0873 219.846C54.3459 219.163 55.7966 218.822 57.4392 218.822C58.2926 218.822 59.1459 218.939 59.9993 219.174C60.8739 219.409 61.6526 219.739 62.3353 220.166C62.9966 220.571 63.3273 221.169 63.3273 221.958C63.3273 222.513 63.1993 222.971 62.9433 223.334C62.6873 223.675 62.3459 223.846 61.9193 223.846C61.6419 223.846 61.3753 223.803 61.1193 223.718C60.8846 223.611 60.5646 223.462 60.1593 223.27C59.7113 223.035 59.3059 222.854 58.9433 222.726C58.6019 222.598 58.2073 222.534 57.7593 222.534C56.5646 222.534 55.6473 222.918 55.0073 223.686C54.3886 224.433 54.0793 225.531 54.0793 226.982C54.0793 228.433 54.3886 229.542 55.0073 230.31C55.6473 231.078 56.5646 231.462 57.7593 231.462C58.2073 231.462 58.6019 231.409 58.9433 231.302C59.2846 231.174 59.7006 230.982 60.1913 230.726C60.5966 230.534 60.9166 230.395 61.1513 230.31C61.3859 230.203 61.6419 230.15 61.9193 230.15C62.3246 230.15 62.6553 230.331 62.9113 230.694C63.1886 231.057 63.3273 231.515 63.3273 232.07C63.3273 232.859 62.9966 233.446 62.3353 233.83C61.6526 234.257 60.8633 234.587 59.9673 234.822C59.0713 235.057 58.1326 235.174 57.1513 235.174ZM80.5158 231.174C81.0064 231.643 81.2518 232.177 81.2518 232.774C81.2518 233.371 81.0278 233.905 80.5798 234.374C80.1531 234.843 79.6518 235.078 79.0758 235.078C78.5211 235.078 78.0091 234.854 77.5398 234.406L70.5318 227.91V232.806C70.5318 233.553 70.2971 234.118 69.8278 234.502C69.3798 234.886 68.8144 235.078 68.1318 235.078C67.4278 235.078 66.8411 234.886 66.3718 234.502C65.9238 234.118 65.6998 233.553 65.6998 232.806V214.47C65.6998 213.723 65.9238 213.158 66.3718 212.774C66.8411 212.39 67.4278 212.198 68.1318 212.198C68.8144 212.198 69.3798 212.39 69.8278 212.774C70.2971 213.158 70.5318 213.723 70.5318 214.47V225.926L76.9318 219.622C77.4011 219.153 77.9238 218.918 78.4998 218.918C79.0971 218.918 79.6198 219.142 80.0678 219.59C80.5158 220.017 80.7397 220.529 80.7397 221.126C80.7397 221.681 80.4944 222.203 80.0037 222.694L75.7478 226.758L80.5158 231.174ZM99.553 218.822C101.857 218.822 103.564 219.387 104.673 220.518C105.782 221.627 106.337 223.334 106.337 225.638V232.87C106.337 233.574 106.134 234.129 105.729 234.534C105.324 234.918 104.758 235.11 104.033 235.11C103.35 235.11 102.796 234.907 102.369 234.502C101.964 234.075 101.761 233.531 101.761 232.87V232.646C101.441 233.435 100.908 234.054 100.161 234.502C99.4143 234.95 98.5397 235.174 97.537 235.174C96.4703 235.174 95.4997 234.961 94.625 234.534C93.7717 234.107 93.089 233.51 92.577 232.742C92.0863 231.974 91.841 231.121 91.841 230.182C91.841 229.03 92.129 228.123 92.705 227.462C93.3023 226.801 94.2517 226.321 95.553 226.022C96.8543 225.723 98.6357 225.574 100.897 225.574H101.729V224.998C101.729 224.102 101.526 223.451 101.121 223.046C100.737 222.641 100.086 222.438 99.169 222.438C98.2517 222.438 96.929 222.758 95.201 223.398C94.7103 223.633 94.2943 223.75 93.953 223.75C93.4837 223.75 93.1103 223.59 92.833 223.27C92.5557 222.929 92.417 222.491 92.417 221.958C92.417 221.531 92.513 221.179 92.705 220.902C92.897 220.625 93.2063 220.369 93.633 220.134C94.3797 219.729 95.2863 219.409 96.353 219.174C97.441 218.939 98.5077 218.822 99.553 218.822ZM98.593 231.846C99.5317 231.846 100.289 231.537 100.865 230.918C101.441 230.278 101.729 229.457 101.729 228.454V227.91H101.185C99.457 227.91 98.241 228.049 97.537 228.326C96.8543 228.603 96.513 229.105 96.513 229.83C96.513 230.427 96.705 230.918 97.089 231.302C97.4943 231.665 97.9957 231.846 98.593 231.846ZM112.382 235.11C111.678 235.11 111.091 234.918 110.622 234.534C110.174 234.15 109.95 233.585 109.95 232.838V214.47C109.95 213.723 110.174 213.158 110.622 212.774C111.091 212.39 111.678 212.198 112.382 212.198C113.064 212.198 113.63 212.39 114.078 212.774C114.547 213.158 114.782 213.723 114.782 214.47V232.838C114.782 233.585 114.547 234.15 114.078 234.534C113.63 234.918 113.064 235.11 112.382 235.11ZM120.913 235.11C120.209 235.11 119.622 234.918 119.153 234.534C118.705 234.15 118.481 233.585 118.481 232.838V214.47C118.481 213.723 118.705 213.158 119.153 212.774C119.622 212.39 120.209 212.198 120.913 212.198C121.596 212.198 122.161 212.39 122.609 212.774C123.078 213.158 123.313 213.723 123.313 214.47V232.838C123.313 233.585 123.078 234.15 122.609 234.534C122.161 234.918 121.596 235.11 120.913 235.11ZM146.67 220.262C146.862 219.814 147.128 219.483 147.47 219.27C147.832 219.057 148.216 218.95 148.622 218.95C149.24 218.95 149.784 219.153 150.254 219.558C150.723 219.942 150.958 220.411 150.958 220.966C150.958 221.265 150.883 221.563 150.734 221.862L142.126 239.526C141.912 239.974 141.624 240.305 141.262 240.518C140.899 240.753 140.515 240.87 140.11 240.87C139.512 240.87 138.99 240.678 138.542 240.294C138.094 239.91 137.87 239.441 137.87 238.886C137.87 238.545 137.944 238.225 138.094 237.926L140.206 233.542L134.51 221.862C134.382 221.563 134.318 221.275 134.318 220.998C134.318 220.422 134.563 219.931 135.054 219.526C135.566 219.121 136.142 218.918 136.782 218.918C137.208 218.918 137.603 219.035 137.966 219.27C138.328 219.483 138.616 219.814 138.83 220.262L142.798 228.902L146.67 220.262ZM160.283 235.174C158.619 235.174 157.158 234.843 155.899 234.182C154.64 233.499 153.67 232.55 152.987 231.334C152.304 230.097 151.963 228.646 151.963 226.982C151.963 225.318 152.304 223.878 152.987 222.662C153.67 221.425 154.64 220.475 155.899 219.814C157.158 219.153 158.619 218.822 160.283 218.822C161.947 218.822 163.408 219.153 164.667 219.814C165.926 220.475 166.896 221.425 167.579 222.662C168.262 223.878 168.603 225.318 168.603 226.982C168.603 228.646 168.262 230.097 167.579 231.334C166.896 232.55 165.926 233.499 164.667 234.182C163.408 234.843 161.947 235.174 160.283 235.174ZM160.283 231.494C162.63 231.494 163.803 229.99 163.803 226.982C163.803 225.467 163.494 224.337 162.875 223.59C162.278 222.843 161.414 222.47 160.283 222.47C157.936 222.47 156.763 223.974 156.763 226.982C156.763 229.99 157.936 231.494 160.283 231.494ZM184.248 218.886C184.994 218.886 185.581 219.089 186.008 219.494C186.456 219.899 186.68 220.454 186.68 221.158V232.902C186.68 233.563 186.445 234.097 185.976 234.502C185.528 234.907 184.941 235.11 184.216 235.11C183.533 235.11 182.989 234.918 182.584 234.534C182.178 234.15 181.976 233.638 181.976 232.998V232.678C181.485 233.489 180.834 234.107 180.024 234.534C179.234 234.961 178.338 235.174 177.336 235.174C175.352 235.174 173.869 234.63 172.888 233.542C171.928 232.433 171.448 230.769 171.448 228.55V221.158C171.448 220.454 171.661 219.899 172.088 219.494C172.536 219.089 173.133 218.886 173.88 218.886C174.626 218.886 175.213 219.089 175.64 219.494C176.066 219.899 176.28 220.454 176.28 221.158V228.646C176.28 229.585 176.472 230.278 176.856 230.726C177.261 231.174 177.869 231.398 178.68 231.398C179.618 231.398 180.376 231.078 180.952 230.438C181.549 229.798 181.848 228.955 181.848 227.91V221.158C181.848 220.454 182.061 219.899 182.488 219.494C182.914 219.089 183.501 218.886 184.248 218.886ZM199.763 218.886C200.403 218.843 200.905 218.993 201.267 219.334C201.651 219.654 201.843 220.145 201.843 220.806C201.843 221.51 201.673 222.033 201.331 222.374C200.99 222.715 200.382 222.929 199.507 223.014L198.547 223.11C197.374 223.238 196.521 223.622 195.987 224.262C195.475 224.902 195.219 225.723 195.219 226.726V232.838C195.219 233.585 194.985 234.15 194.515 234.534C194.067 234.918 193.502 235.11 192.819 235.11C192.115 235.11 191.529 234.918 191.059 234.534C190.611 234.15 190.387 233.585 190.387 232.838V221.094C190.387 220.39 190.622 219.846 191.091 219.462C191.561 219.078 192.126 218.886 192.787 218.886C193.427 218.886 193.961 219.078 194.387 219.462C194.814 219.825 195.027 220.337 195.027 220.998V221.862C195.411 220.945 195.987 220.241 196.755 219.75C197.545 219.259 198.398 218.982 199.315 218.918L199.763 218.886ZM219.72 235.174C218.057 235.174 216.595 234.843 215.337 234.182C214.078 233.499 213.107 232.55 212.424 231.334C211.742 230.097 211.401 228.646 211.401 226.982C211.401 225.318 211.742 223.878 212.424 222.662C213.107 221.425 214.078 220.475 215.337 219.814C216.595 219.153 218.057 218.822 219.72 218.822C221.385 218.822 222.846 219.153 224.105 219.814C225.363 220.475 226.334 221.425 227.017 222.662C227.699 223.878 228.041 225.318 228.041 226.982C228.041 228.646 227.699 230.097 227.017 231.334C226.334 232.55 225.363 233.499 224.105 234.182C222.846 234.843 221.385 235.174 219.72 235.174ZM219.72 231.494C222.067 231.494 223.241 229.99 223.241 226.982C223.241 225.467 222.931 224.337 222.313 223.59C221.715 222.843 220.851 222.47 219.72 222.47C217.374 222.47 216.201 223.974 216.201 226.982C216.201 229.99 217.374 231.494 219.72 231.494ZM240.357 218.886C240.997 218.843 241.498 218.993 241.861 219.334C242.245 219.654 242.437 220.145 242.437 220.806C242.437 221.51 242.266 222.033 241.925 222.374C241.584 222.715 240.976 222.929 240.101 223.014L239.141 223.11C237.968 223.238 237.114 223.622 236.581 224.262C236.069 224.902 235.813 225.723 235.813 226.726V232.838C235.813 233.585 235.578 234.15 235.109 234.534C234.661 234.918 234.096 235.11 233.413 235.11C232.709 235.11 232.122 234.918 231.653 234.534C231.205 234.15 230.981 233.585 230.981 232.838V221.094C230.981 220.39 231.216 219.846 231.685 219.462C232.154 219.078 232.72 218.886 233.381 218.886C234.021 218.886 234.554 219.078 234.981 219.462C235.408 219.825 235.621 220.337 235.621 220.998V221.862C236.005 220.945 236.581 220.241 237.349 219.75C238.138 219.259 238.992 218.982 239.909 218.918L240.357 218.886ZM256.92 212.198C257.667 212.198 258.264 212.401 258.712 212.806C259.182 213.211 259.416 213.745 259.416 214.406V232.838C259.416 233.521 259.192 234.075 258.744 234.502C258.318 234.907 257.742 235.11 257.016 235.11C256.291 235.11 255.704 234.907 255.256 234.502C254.83 234.075 254.616 233.521 254.616 232.838V232.582C254.147 233.393 253.475 234.033 252.6 234.502C251.747 234.95 250.776 235.174 249.688 235.174C248.344 235.174 247.139 234.833 246.072 234.15C245.027 233.446 244.206 232.475 243.608 231.238C243.032 229.979 242.744 228.539 242.744 226.918C242.744 225.297 243.032 223.878 243.608 222.662C244.206 221.425 245.027 220.475 246.072 219.814C247.118 219.153 248.323 218.822 249.688 218.822C250.755 218.822 251.715 219.046 252.568 219.494C253.443 219.942 254.115 220.571 254.584 221.382V214.31C254.584 213.67 254.798 213.158 255.224 212.774C255.651 212.39 256.216 212.198 256.92 212.198ZM251.096 231.494C252.227 231.494 253.091 231.11 253.688 230.342C254.307 229.553 254.616 228.433 254.616 226.982C254.616 225.531 254.307 224.422 253.688 223.654C253.091 222.886 252.227 222.502 251.096 222.502C249.966 222.502 249.091 222.886 248.472 223.654C247.854 224.401 247.544 225.489 247.544 226.918C247.544 228.369 247.854 229.499 248.472 230.31C249.091 231.099 249.966 231.494 251.096 231.494ZM275.745 230.246C276.172 230.246 276.513 230.417 276.769 230.758C277.047 231.099 277.185 231.537 277.185 232.07C277.185 232.433 277.079 232.774 276.865 233.094C276.652 233.393 276.353 233.649 275.969 233.862C275.244 234.246 274.401 234.566 273.441 234.822C272.481 235.057 271.596 235.174 270.785 235.174C269.079 235.174 267.585 234.843 266.305 234.182C265.047 233.521 264.076 232.582 263.393 231.366C262.711 230.129 262.369 228.678 262.369 227.014C262.369 225.414 262.7 223.995 263.361 222.758C264.023 221.521 264.94 220.561 266.113 219.878C267.287 219.174 268.62 218.822 270.113 218.822C271.543 218.822 272.791 219.142 273.857 219.782C274.945 220.401 275.788 221.297 276.385 222.47C276.983 223.622 277.281 224.977 277.281 226.534C277.281 227.003 277.164 227.366 276.929 227.622C276.716 227.857 276.407 227.974 276.001 227.974H267.041C267.191 229.233 267.575 230.15 268.193 230.726C268.812 231.281 269.697 231.558 270.849 231.558C271.468 231.558 272.023 231.483 272.513 231.334C273.004 231.185 273.548 230.982 274.145 230.726C274.444 230.598 274.732 230.491 275.009 230.406C275.287 230.299 275.532 230.246 275.745 230.246ZM270.241 222.15C269.324 222.15 268.588 222.449 268.033 223.046C267.479 223.622 267.148 224.465 267.041 225.574H273.217C273.153 224.443 272.865 223.59 272.353 223.014C271.863 222.438 271.159 222.15 270.241 222.15ZM289.576 218.886C290.216 218.843 290.717 218.993 291.08 219.334C291.464 219.654 291.656 220.145 291.656 220.806C291.656 221.51 291.485 222.033 291.144 222.374C290.802 222.715 290.194 222.929 289.32 223.014L288.36 223.11C287.186 223.238 286.333 223.622 285.8 224.262C285.288 224.902 285.032 225.723 285.032 226.726V232.838C285.032 233.585 284.797 234.15 284.328 234.534C283.88 234.918 283.314 235.11 282.632 235.11C281.928 235.11 281.341 234.918 280.872 234.534C280.424 234.15 280.2 233.585 280.2 232.838V221.094C280.2 220.39 280.434 219.846 280.904 219.462C281.373 219.078 281.938 218.886 282.6 218.886C283.24 218.886 283.773 219.078 284.2 219.462C284.626 219.825 284.84 220.337 284.84 220.998V221.862C285.224 220.945 285.8 220.241 286.568 219.75C287.357 219.259 288.21 218.982 289.128 218.918L289.576 218.886ZM298.839 235.174C297.538 235.174 296.407 235.067 295.447 234.854C294.487 234.641 293.645 234.299 292.919 233.83C292.599 233.638 292.354 233.382 292.183 233.062C292.013 232.742 291.927 232.379 291.927 231.974C291.927 231.483 292.066 231.078 292.343 230.758C292.621 230.417 292.962 230.246 293.367 230.246C293.645 230.246 293.922 230.299 294.199 230.406C294.477 230.491 294.765 230.598 295.063 230.726C295.661 231.003 296.247 231.227 296.823 231.398C297.399 231.547 298.114 231.622 298.967 231.622C299.714 231.622 300.29 231.505 300.695 231.27C301.122 231.035 301.335 230.715 301.335 230.31C301.335 230.011 301.239 229.777 301.047 229.606C300.877 229.414 300.546 229.243 300.055 229.094C299.565 228.945 298.786 228.763 297.719 228.55C295.821 228.187 294.455 227.643 293.623 226.918C292.791 226.193 292.375 225.179 292.375 223.878C292.375 222.918 292.663 222.054 293.239 221.286C293.837 220.518 294.647 219.921 295.671 219.494C296.695 219.046 297.847 218.822 299.127 218.822C300.045 218.822 300.941 218.939 301.815 219.174C302.69 219.409 303.469 219.739 304.151 220.166C304.813 220.571 305.143 221.169 305.143 221.958C305.143 222.47 305.005 222.897 304.727 223.238C304.45 223.579 304.109 223.75 303.703 223.75C303.213 223.75 302.626 223.558 301.943 223.174C301.41 222.897 300.919 222.694 300.471 222.566C300.045 222.417 299.533 222.342 298.935 222.342C298.274 222.342 297.751 222.47 297.367 222.726C296.983 222.961 296.791 223.291 296.791 223.718C296.791 224.166 297.015 224.507 297.463 224.742C297.911 224.977 298.775 225.211 300.055 225.446C301.485 225.723 302.605 226.065 303.415 226.47C304.226 226.854 304.813 227.345 305.175 227.942C305.538 228.539 305.719 229.297 305.719 230.214C305.719 231.729 305.09 232.934 303.831 233.83C302.594 234.726 300.93 235.174 298.839 235.174Z" fill="#F0256F" />
    <line x1="102.58" y1="31.1192" x2="168.022" y2="31.1192" stroke="#FF7DB0" stroke-width="6.1835" stroke-linecap="round" />
    <line x1="102.581" y1="53.2803" x2="168.023" y2="53.2803" stroke="url(#paint0_linear)" stroke-width="6.1835" stroke-linecap="round" />
    <line x1="102.581" y1="75.4358" x2="168.023" y2="75.4358" stroke="url(#paint1_linear)" stroke-width="6.1835" stroke-linecap="round" />
    <line x1="102.581" y1="97.5955" x2="168.023" y2="97.5955" stroke="#FF7DB0" stroke-width="6.1835" stroke-linecap="round" />
    <rect x="86.6042" y="3.60419" width="96.5923" height="119.659" rx="9.27811" stroke="#FF7DB0" stroke-width="7.20838" />
    <circle cx="184.514" cy="115.518" r="32.4634" fill="url(#paint2_linear)" />
    <circle cx="182.46" cy="113.452" r="11.5941" stroke="white" stroke-width="3.60704" />
    <defs>
        <linearGradient id="paint0_linear" x1="99.4888" y1="56.8721" x2="171.114" y2="56.872" gradientUnits="userSpaceOnUse">
            <stop offset="0.489583" stop-color="#F0256F" />
            <stop offset="1" stop-color="#B12170" />
        </linearGradient>
        <linearGradient id="paint1_linear" x1="99.4888" y1="79.0276" x2="171.114" y2="79.0275" gradientUnits="userSpaceOnUse">
            <stop offset="0.489583" stop-color="#F0256F" />
            <stop offset="1" stop-color="#B12170" />
        </linearGradient>
        <linearGradient id="paint2_linear" x1="152.051" y1="115.518" x2="216.978" y2="115.518" gradientUnits="userSpaceOnUse">
            <stop offset="0.489583" stop-color="#F0256F" />
            <stop offset="1" stop-color="#B12170" />
        </linearGradient>
    </defs>
</svg> -->

<svg width="134" height="148" viewBox="0 0 134 148" fill="none" xmlns="http://www.w3.org/2000/svg">
<line x1="19.58" y1="31.1192" x2="85.0221" y2="31.1192" stroke="#FF7DB0" stroke-width="6.1835" stroke-linecap="round"/>
<line x1="19.5806" y1="53.2803" x2="85.0227" y2="53.2803" stroke="url(#paint0_linear)" stroke-width="6.1835" stroke-linecap="round"/>
<line x1="19.5806" y1="75.4358" x2="85.0227" y2="75.4358" stroke="url(#paint1_linear)" stroke-width="6.1835" stroke-linecap="round"/>
<line x1="19.5806" y1="97.5955" x2="85.0227" y2="97.5955" stroke="#FF7DB0" stroke-width="6.1835" stroke-linecap="round"/>
<rect x="3.60419" y="3.60419" width="96.5923" height="119.659" rx="9.27811" stroke="#FF7DB0" stroke-width="7.20838"/>
<circle cx="101.514" cy="115.518" r="32.4634" fill="url(#paint2_linear)"/>
<circle cx="99.4601" cy="113.452" r="11.5941" stroke="white" stroke-width="3.60704"/>
<defs>
<linearGradient id="paint0_linear" x1="16.4888" y1="56.8721" x2="88.1144" y2="56.872" gradientUnits="userSpaceOnUse">
<stop offset="0.489583" stop-color="#F0256F"/>
<stop offset="1" stop-color="#B12170"/>
</linearGradient>
<linearGradient id="paint1_linear" x1="16.4888" y1="79.0276" x2="88.1144" y2="79.0275" gradientUnits="userSpaceOnUse">
<stop offset="0.489583" stop-color="#F0256F"/>
<stop offset="1" stop-color="#B12170"/>
</linearGradient>
<linearGradient id="paint2_linear" x1="69.0508" y1="115.518" x2="133.978" y2="115.518" gradientUnits="userSpaceOnUse">
<stop offset="0.489583" stop-color="#F0256F"/>
<stop offset="1" stop-color="#B12170"/>
</linearGradient>
</defs>
</svg>
