<svg width="50" height="80" viewBox="0 0 100 119" fill="none" xmlns="http://www.w3.org/2000/svg">
    <path d="M99.6147 60.9635L67.6208 117.498C67.0955 118.427 66.1135 119 65.0493 119H2.96115C0.681398 119 -0.740686 116.522 0.404703 114.545L64.1843 4.46406C65.3309 2.48514 68.1858 2.49968 69.3122 4.49018L99.6147 58.0361C100.128 58.9439 100.128 60.0557 99.6147 60.9635Z" fill="url(#paint0_linear)" />
    <path d="M99.6147 58.0365L67.6208 1.50164C67.0955 0.573484 66.1135 0 65.0493 0H2.96115C0.681398 0 -0.740686 2.47831 0.404703 4.4552L64.1843 114.536C65.3309 116.515 68.1858 116.5 69.3122 114.51L99.6147 60.9639C100.128 60.0561 100.128 58.9443 99.6147 58.0365Z" fill="#F0256F" />
    <defs>
        <linearGradient id="paint0_linear" x1="62.3321" y1="108.867" x2="46.3859" y2="1.79611" gradientUnits="userSpaceOnUse">
            <stop stop-color="#F0256F" />
            <stop offset="1" stop-color="#551A2F" />
        </linearGradient>
    </defs>
</svg>
