<svg width="17" height="30" viewBox="0 0 22 36" fill="none" xmlns="http://www.w3.org/2000/svg">
    <path fill-rule="evenodd" clip-rule="evenodd" d="M8.53101 2.92357C10.2965 1.15809 12.691 0.16626 15.1877 0.16626H20.231C20.788 0.16626 21.2396 0.617846 21.2396 1.17491V7.89922C21.2396 8.45628 20.788 8.90786 20.231 8.90786H15.1877C15.0094 8.90786 14.8384 8.97871 14.7123 9.10482C14.5862 9.23092 14.5153 9.40196 14.5153 9.5803V13.6149H20.231C20.5416 13.6149 20.8348 13.758 21.026 14.0028C21.2171 14.2476 21.2848 14.5668 21.2095 14.8682L19.5284 21.5925C19.4162 22.0415 19.0127 22.3565 18.5499 22.3565H14.5153V34.7965C14.5153 35.3535 14.0637 35.8051 13.5067 35.8051H6.78235C6.22529 35.8051 5.7737 35.3535 5.7737 34.7965V22.3565H1.73912C1.18206 22.3565 0.730469 21.9049 0.730469 21.3478V14.6235C0.730469 14.0665 1.18206 13.6149 1.73912 13.6149H5.7737V9.5803C5.7737 7.08354 6.76554 4.68904 8.53101 2.92357ZM15.1877 2.18355C13.226 2.18355 11.3446 2.96285 9.95745 4.35001C8.57029 5.73717 7.791 7.61856 7.791 9.5803V14.6235C7.791 15.1806 7.33941 15.6322 6.78235 15.6322H2.74776V20.3392H6.78235C7.33941 20.3392 7.791 20.7908 7.791 21.3478V33.7878H12.498V21.3478C12.498 20.7908 12.9496 20.3392 13.5067 20.3392H17.7624L18.9391 15.6322H13.5067C12.9496 15.6322 12.498 15.1806 12.498 14.6235V9.5803C12.498 8.86694 12.7814 8.1828 13.2858 7.67837C13.7902 7.17395 14.4744 6.89057 15.1877 6.89057H19.2223V2.18355H15.1877Z" fill="white" />
</svg>
