<svg width="42" height="26" viewBox="0 0 42 26" fill="none" xmlns="http://www.w3.org/2000/svg">
    <path d="M41.1724 23.0126C41.1724 24.4052 40.0378 25.5446 38.6509 25.5446H3.34918C1.96232 25.5446 0.827637 24.4052 0.827637 23.0126V2.75681C0.827637 1.36422 1.96232 0.224854 3.34924 0.224854H38.651C40.0379 0.224854 41.1726 1.36429 41.1726 2.75681L41.1724 23.0126Z" fill="#EC6233" />
    <path d="M41.089 18.4401C35.8928 18.2957 24.1399 18.7874 19.6964 22.9211C19.0425 12.9743 41.089 12.1689 41.089 12.1689V18.4401Z" fill="#FCFAFA" />
    <path d="M39.1697 9.23003C39.3543 4.4613 30.2405 2.24187 19.3555 2.45183C22.1228 8.18031 32.4173 9.7099 39.1697 9.23003Z" fill="#FCFAFA" />
    <path d="M2.36963 9.5264C2.36963 9.37263 2.4241 9.23972 2.53285 9.12759C2.64173 9.01553 2.77196 8.95947 2.92393 8.95947C3.07836 8.95947 3.20995 9.01553 3.31883 9.12759C3.42771 9.23705 3.48212 9.37133 3.48212 9.53023C3.48212 9.68926 3.42758 9.82477 3.31883 9.93683C3.21254 10.049 3.08211 10.1049 2.92775 10.1049C2.77332 10.1049 2.64173 10.049 2.53285 9.93683C2.4241 9.82483 2.36963 9.68802 2.36963 9.5264ZM3.35305 11.1098V14.9177H2.49876V11.1098H3.35305Z" fill="white" />
    <path d="M4.58183 16.9896H3.72754V11.1095H4.58183V11.5239C4.91844 11.1773 5.30065 11.0039 5.72848 11.0039C6.23724 11.0039 6.6562 11.1968 6.98537 11.5825C7.31939 11.9655 7.48643 12.4492 7.48643 13.033C7.48643 13.6037 7.32068 14.0793 6.98905 14.46C6.66002 14.8379 6.24494 15.0269 5.74381 15.0269C5.31094 15.0269 4.92368 14.8485 4.58196 14.4914L4.58183 16.9896ZM6.61318 13.037C6.61318 12.6721 6.51691 12.3751 6.32458 12.1455C6.12959 11.9136 5.88407 11.7976 5.58796 11.7976C5.274 11.7976 5.01962 11.9098 4.8247 12.1339C4.62977 12.358 4.53234 12.6525 4.53234 13.0175C4.53234 13.3746 4.62977 13.6692 4.8247 13.9011C5.0171 14.1279 5.27025 14.2412 5.58408 14.2412C5.88019 14.2412 6.12448 14.1266 6.31688 13.8972C6.51439 13.6677 6.61318 13.381 6.61318 13.037Z" fill="white" />
    <path d="M10.7583 11.1094H11.6164V14.9173H10.7583V14.5185C10.4065 14.8573 10.028 15.0267 9.62307 15.0267C9.11172 15.0267 8.68901 14.8364 8.35479 14.4559C8.02323 14.0675 7.85742 13.5829 7.85742 13.0014C7.85742 12.4307 8.02317 11.9552 8.35479 11.5744C8.68636 11.1939 9.1015 11.0037 9.60023 11.0037C10.0304 11.0037 10.4164 11.1861 10.7581 11.551L10.7583 11.1094ZM8.7308 13.0016C8.7308 13.3665 8.82571 13.6637 9.01546 13.8931C9.21045 14.125 9.45596 14.2409 9.75207 14.2409C10.0686 14.2409 10.3242 14.1289 10.519 13.9047C10.7139 13.6728 10.8114 13.3782 10.8114 13.0211C10.8114 12.6639 10.7139 12.3696 10.519 12.1374C10.324 11.9107 10.0709 11.7973 9.7597 11.7973C9.46606 11.7973 9.22047 11.9122 9.02303 12.1413C8.82817 12.3735 8.7308 12.6602 8.7308 13.0016Z" fill="white" />
    <path d="M13.6064 14.2097L11.9434 11.1094H12.9343L14.0657 13.2987L15.1213 11.1094H16.0856L13.1392 16.9895H12.1634L13.6064 14.2097Z" fill="white" />
    <path d="M16.9623 11.7779C16.5319 11.4652 16.3167 11.039 16.3167 10.4995C16.3167 10.0095 16.4799 9.60029 16.8065 9.2719C17.1355 8.94345 17.5443 8.7793 18.033 8.7793C18.5189 8.7793 18.9239 8.94345 19.2477 9.2719C19.5718 9.59775 19.7339 10.0082 19.7339 10.5034C19.7339 11.0221 19.5198 11.4457 19.0922 11.7741C19.3276 11.9045 19.5123 12.0948 19.6464 12.3449C19.7831 12.5952 19.8515 12.8766 19.8515 13.1894C19.8515 13.7238 19.682 14.1617 19.3428 14.503C19.0036 14.8445 18.5695 15.0153 18.0404 15.0153C17.4988 15.0153 17.052 14.8433 16.7001 14.4992C16.3457 14.1552 16.1685 13.7226 16.1685 13.2013C16.1687 12.5234 16.4333 12.0491 16.9623 11.7779ZM17.0382 13.1698C17.0382 13.4487 17.1318 13.6885 17.3193 13.8891C17.5091 14.0873 17.7393 14.1863 18.0102 14.1863C18.2785 14.1863 18.5076 14.0885 18.6974 13.893C18.8874 13.6949 18.9823 13.4578 18.9823 13.1815C18.9823 12.9026 18.8873 12.6655 18.6974 12.4699C18.5076 12.2744 18.2785 12.1766 18.0102 12.1766C17.7445 12.1766 17.5155 12.2744 17.3231 12.4699C17.1332 12.6655 17.0382 12.8987 17.0382 13.1698ZM17.1483 10.4956C17.1483 10.7537 17.2331 10.97 17.4027 11.1446C17.5749 11.3218 17.7825 11.4105 18.0255 11.4105C18.2659 11.4105 18.4721 11.3219 18.6443 11.1446C18.8163 10.9673 18.9025 10.755 18.9025 10.5073C18.9025 10.2597 18.8163 10.0473 18.6443 9.87001C18.4721 9.69273 18.2657 9.60412 18.0255 9.60412C17.785 9.60412 17.5787 9.69273 17.4065 9.87001C17.2344 10.0473 17.1483 10.2558 17.1483 10.4956Z" fill="white" />
    <path d="M20.951 11.7779C20.5207 11.4652 20.3055 11.039 20.3055 10.4995C20.3055 10.0095 20.4687 9.60029 20.7953 9.2719C21.1243 8.94345 21.533 8.7793 22.0217 8.7793C22.5076 8.7793 22.9126 8.94345 23.2365 9.2719C23.5606 9.59775 23.7226 10.0082 23.7226 10.5034C23.7226 11.0221 23.5086 11.4457 23.0809 11.7741C23.3164 11.9045 23.5011 12.0948 23.6351 12.3449C23.7718 12.5952 23.8403 12.8766 23.8403 13.1894C23.8403 13.7238 23.6707 14.1617 23.3316 14.503C22.9924 14.8445 22.5582 15.0153 22.0292 15.0153C21.4875 15.0153 21.0408 14.8433 20.6888 14.4992C20.3344 14.1552 20.1572 13.7226 20.1572 13.2013C20.1574 12.5234 20.422 12.0491 20.951 11.7779ZM21.0269 13.1698C21.0269 13.4487 21.1205 13.6885 21.3079 13.8891C21.4979 14.0873 21.7281 14.1863 21.999 14.1863C22.2673 14.1863 22.4964 14.0885 22.6862 13.893C22.8762 13.6949 22.9711 13.4578 22.9711 13.1815C22.9711 12.9026 22.8761 12.6655 22.6862 12.4699C22.4964 12.2744 22.2673 12.1766 21.999 12.1766C21.7333 12.1766 21.5042 12.2744 21.3118 12.4699C21.1219 12.6655 21.0269 12.8987 21.0269 13.1698ZM21.137 10.4956C21.137 10.7537 21.2219 10.97 21.3915 11.1446C21.5636 11.3218 21.7712 11.4105 22.0142 11.4105C22.2546 11.4105 22.4609 11.3219 22.6331 11.1446C22.805 10.9673 22.8911 10.755 22.8911 10.5073C22.8911 10.2597 22.805 10.0473 22.6331 9.87001C22.4609 9.69273 22.2545 9.60412 22.0142 9.60412C21.7737 9.60412 21.5674 9.69273 21.3953 9.87001C21.2232 10.0473 21.137 10.2558 21.137 10.4956Z" fill="white" />
</svg>
