<svg width="31" height="31" viewBox="0 0 31 31" fill="none" xmlns="http://www.w3.org/2000/svg">
    <path fill-rule="evenodd" clip-rule="evenodd" d="M21.3232 11.2138C19.2347 11.2138 17.2316 12.0435 15.7548 13.5203C14.2779 14.9972 13.4482 17.0002 13.4482 19.0888V28.4221H17.5316V19.0888C17.5316 18.0832 17.9311 17.1188 18.6421 16.4077C19.3532 15.6966 20.3176 15.2971 21.3232 15.2971C22.3289 15.2971 23.2933 15.6966 24.0044 16.4077C24.7154 17.1188 25.1149 18.0832 25.1149 19.0888V28.4221H29.1982V19.0888C29.1982 17.0002 28.3686 14.9972 26.8917 13.5203C25.4149 12.0435 23.4118 11.2138 21.3232 11.2138ZM21.3232 9.46381C18.7705 9.46381 16.3224 10.4779 14.5173 12.2829C12.7123 14.0879 11.6982 16.5361 11.6982 19.0888V29.2971C11.6982 29.7804 12.09 30.1721 12.5732 30.1721H18.4066C18.8898 30.1721 19.2816 29.7804 19.2816 29.2971V19.0888C19.2816 18.5473 19.4967 18.028 19.8796 17.6451C20.2625 17.2622 20.7818 17.0471 21.3232 17.0471C21.8647 17.0471 22.384 17.2622 22.7669 17.6451C23.1498 18.028 23.3649 18.5473 23.3649 19.0888V29.2971C23.3649 29.7804 23.7567 30.1721 24.2399 30.1721H30.0732C30.5565 30.1721 30.9482 29.7804 30.9482 29.2971V19.0888C30.9482 16.5361 29.9342 14.0879 28.1291 12.2829C26.3241 10.4779 23.876 9.46381 21.3232 9.46381Z" fill="white"/>
    <path fill-rule="evenodd" clip-rule="evenodd" d="M0.03125 11.7971C0.03125 11.3139 0.423001 10.9221 0.90625 10.9221H6.73958C7.22283 10.9221 7.61458 11.3139 7.61458 11.7971V29.2971C7.61458 29.7804 7.22283 30.1721 6.73958 30.1721H0.90625C0.423001 30.1721 0.03125 29.7804 0.03125 29.2971V11.7971ZM1.78125 12.6721V28.4221H5.86458V12.6721H1.78125Z" fill="white"/>
    <path fill-rule="evenodd" clip-rule="evenodd" d="M3.82292 2.46381C2.69534 2.46381 1.78125 3.37789 1.78125 4.50547C1.78125 5.63305 2.69534 6.54714 3.82292 6.54714C4.9505 6.54714 5.86458 5.63305 5.86458 4.50547C5.86458 3.37789 4.9505 2.46381 3.82292 2.46381ZM0.03125 4.50547C0.03125 2.41139 1.72884 0.713806 3.82292 0.713806C5.917 0.713806 7.61458 2.41139 7.61458 4.50547C7.61458 6.59955 5.917 8.29714 3.82292 8.29714C1.72884 8.29714 0.03125 6.59955 0.03125 4.50547Z" fill="white"/>
    </svg>
