<svg width="180" height="257" viewBox="0 0 180 257" fill="none" xmlns="http://www.w3.org/2000/svg">
    <path d="M10.51 256.27C9.75 256.27 9.17 256.06 8.77 255.64C8.37 255.22 8.17 254.63 8.17 253.87V238.69H2.86C1.56 238.69 0.91 238.05 0.91 236.77C0.91 235.49 1.56 234.85 2.86 234.85H18.13C19.43 234.85 20.08 235.49 20.08 236.77C20.08 238.05 19.43 238.69 18.13 238.69H12.82V253.87C12.82 254.63 12.62 255.22 12.22 255.64C11.84 256.06 11.27 256.27 10.51 256.27ZM26.972 256.33C25.232 256.33 23.732 256.02 22.472 255.4C21.232 254.76 20.272 253.87 19.592 252.73C18.932 251.57 18.602 250.21 18.602 248.65C18.602 247.13 18.922 245.8 19.562 244.66C20.222 243.5 21.112 242.6 22.232 241.96C23.372 241.3 24.682 240.97 26.162 240.97C28.302 240.97 30.002 241.65 31.262 243.01C32.522 244.35 33.152 246.17 33.152 248.47C33.152 249.23 32.682 249.61 31.742 249.61H22.922C23.082 250.77 23.502 251.62 24.182 252.16C24.882 252.68 25.842 252.94 27.062 252.94C27.542 252.94 28.082 252.89 28.682 252.79C29.302 252.67 29.892 252.47 30.452 252.19C31.032 251.91 31.522 251.86 31.922 252.04C32.322 252.2 32.592 252.48 32.732 252.88C32.892 253.28 32.892 253.7 32.732 254.14C32.592 254.56 32.262 254.91 31.742 255.19C31.042 255.57 30.262 255.85 29.402 256.03C28.562 256.23 27.752 256.33 26.972 256.33ZM26.342 243.97C25.382 243.97 24.602 244.26 24.002 244.84C23.422 245.42 23.062 246.23 22.922 247.27H29.402C29.282 245.07 28.262 243.97 26.342 243.97ZM37.2883 256.21C36.7283 256.21 36.2783 256.06 35.9383 255.76C35.5983 255.44 35.4183 255.04 35.3983 254.56C35.3983 254.08 35.5983 253.59 35.9983 253.09L39.8083 248.41L36.3283 244.15C35.9083 243.63 35.7083 243.13 35.7283 242.65C35.7483 242.17 35.9283 241.78 36.2683 241.48C36.6083 241.18 37.0583 241.03 37.6183 241.03C38.1583 241.03 38.6083 241.12 38.9683 241.3C39.3283 241.48 39.6683 241.78 39.9883 242.2L42.3883 245.32L44.8183 242.2C45.1383 241.78 45.4783 241.48 45.8383 241.3C46.1983 241.12 46.6483 241.03 47.1883 241.03C47.7483 241.03 48.1983 241.19 48.5383 241.51C48.8783 241.81 49.0483 242.2 49.0483 242.68C49.0683 243.16 48.8683 243.65 48.4483 244.15L44.9683 248.41L48.8083 253.09C49.2283 253.59 49.4283 254.08 49.4083 254.56C49.3883 255.04 49.1983 255.44 48.8383 255.76C48.4983 256.06 48.0483 256.21 47.4883 256.21C46.9683 256.21 46.5183 256.12 46.1383 255.94C45.7783 255.74 45.4383 255.44 45.1183 255.04L42.3883 251.56L39.6283 255.04C39.3083 255.42 38.9683 255.71 38.6083 255.91C38.2683 256.11 37.8283 256.21 37.2883 256.21ZM59.7161 256.33C55.5761 256.33 53.5061 254.32 53.5061 250.3V244.66H52.2461C51.0661 244.66 50.4761 244.1 50.4761 242.98C50.4761 241.84 51.0661 241.27 52.2461 241.27H53.5061V238.99C53.5061 237.45 54.2661 236.68 55.7861 236.68C57.2861 236.68 58.0361 237.45 58.0361 238.99V241.27H60.8861C62.0461 241.27 62.6261 241.84 62.6261 242.98C62.6261 244.1 62.0461 244.66 60.8861 244.66H58.0361V250.12C58.0361 250.96 58.2261 251.59 58.6061 252.01C59.0061 252.43 59.6361 252.64 60.4961 252.64C60.7961 252.64 61.0761 252.61 61.3361 252.55C61.5961 252.49 61.8361 252.45 62.0561 252.43C62.3361 252.41 62.5661 252.5 62.7461 252.7C62.9261 252.9 63.0161 253.31 63.0161 253.93C63.0161 254.43 62.9361 254.86 62.7761 255.22C62.6161 255.56 62.3361 255.81 61.9361 255.97C61.6761 256.07 61.3161 256.15 60.8561 256.21C60.4161 256.29 60.0361 256.33 59.7161 256.33ZM77.9739 256.33C76.8739 256.33 75.9039 256.12 75.0639 255.7C74.2239 255.28 73.5539 254.71 73.0539 253.99C72.5739 253.27 72.3339 252.46 72.3339 251.56C72.3339 250.5 72.6139 249.65 73.1739 249.01C73.7339 248.37 74.6439 247.92 75.9039 247.66C77.1639 247.38 78.8339 247.24 80.9139 247.24H81.9939V246.73C81.9939 245.85 81.7939 245.23 81.3939 244.87C80.9939 244.49 80.3139 244.3 79.3539 244.3C78.8139 244.3 78.2239 244.37 77.5839 244.51C76.9439 244.63 76.2539 244.84 75.5139 245.14C74.9539 245.38 74.4839 245.4 74.1039 245.2C73.7239 244.98 73.4739 244.66 73.3539 244.24C73.2339 243.8 73.2639 243.36 73.4439 242.92C73.6439 242.48 74.0239 242.16 74.5839 241.96C75.5239 241.6 76.4039 241.35 77.2239 241.21C78.0639 241.05 78.8339 240.97 79.5339 240.97C81.8139 240.97 83.5139 241.49 84.6339 242.53C85.7539 243.55 86.3139 245.14 86.3139 247.3V253.96C86.3139 255.5 85.6139 256.27 84.2139 256.27C82.7939 256.27 82.0839 255.5 82.0839 253.96V253.78C81.7839 254.56 81.2739 255.18 80.5539 255.64C79.8539 256.1 78.9939 256.33 77.9739 256.33ZM78.9939 253.3C79.8339 253.3 80.5439 253.01 81.1239 252.43C81.7039 251.85 81.9939 251.1 81.9939 250.18V249.58H80.9439C79.4039 249.58 78.3139 249.72 77.6739 250C77.0339 250.26 76.7139 250.72 76.7139 251.38C76.7139 251.94 76.9039 252.4 77.2839 252.76C77.6839 253.12 78.2539 253.3 78.9939 253.3ZM101.492 256.27C100.752 256.27 100.182 256.07 99.782 255.67C99.402 255.27 99.212 254.7 99.212 253.96V244.66H98.132C96.952 244.66 96.362 244.1 96.362 242.98C96.362 241.84 96.952 241.27 98.132 241.27H99.212C99.252 239.23 99.802 237.7 100.862 236.68C101.942 235.64 103.502 235.02 105.542 234.82L106.502 234.73C107.162 234.67 107.642 234.8 107.942 235.12C108.262 235.42 108.432 235.79 108.452 236.23C108.492 236.67 108.392 237.07 108.152 237.43C107.932 237.77 107.602 237.96 107.162 238L106.742 238.03C105.662 238.11 104.892 238.37 104.432 238.81C103.972 239.23 103.742 239.88 103.742 240.76V241.27H105.872C107.052 241.27 107.642 241.84 107.642 242.98C107.642 244.1 107.052 244.66 105.872 244.66H103.742V253.96C103.742 255.5 102.992 256.27 101.492 256.27ZM111.867 256.27C110.307 256.27 109.527 255.5 109.527 253.96V243.31C109.527 241.79 110.267 241.03 111.747 241.03C113.227 241.03 113.967 241.79 113.967 243.31V243.85C114.687 242.07 116.177 241.11 118.437 240.97C118.937 240.93 119.317 241.06 119.577 241.36C119.857 241.64 120.007 242.11 120.027 242.77C120.067 243.39 119.937 243.88 119.637 244.24C119.357 244.6 118.877 244.82 118.197 244.9L117.507 244.96C115.267 245.18 114.147 246.32 114.147 248.38V253.96C114.147 255.5 113.387 256.27 111.867 256.27ZM124.17 238.57C123.33 238.57 122.68 238.38 122.22 238C121.78 237.6 121.56 237.04 121.56 236.32C121.56 235.58 121.78 235.02 122.22 234.64C122.68 234.24 123.33 234.04 124.17 234.04C125.89 234.04 126.75 234.8 126.75 236.32C126.75 237.82 125.89 238.57 124.17 238.57ZM124.17 256.24C123.43 256.24 122.86 256.03 122.46 255.61C122.08 255.17 121.89 254.56 121.89 253.78V243.52C121.89 241.86 122.65 241.03 124.17 241.03C124.89 241.03 125.44 241.25 125.82 241.69C126.22 242.11 126.42 242.72 126.42 243.52V253.78C126.42 254.56 126.23 255.17 125.85 255.61C125.47 256.03 124.91 256.24 124.17 256.24ZM137.568 256.33C135.828 256.33 134.328 256.02 133.068 255.4C131.828 254.76 130.868 253.87 130.188 252.73C129.528 251.57 129.198 250.21 129.198 248.65C129.198 247.13 129.518 245.8 130.158 244.66C130.818 243.5 131.708 242.6 132.828 241.96C133.968 241.3 135.278 240.97 136.758 240.97C138.898 240.97 140.598 241.65 141.858 243.01C143.118 244.35 143.748 246.17 143.748 248.47C143.748 249.23 143.278 249.61 142.338 249.61H133.518C133.678 250.77 134.098 251.62 134.778 252.16C135.478 252.68 136.438 252.94 137.658 252.94C138.138 252.94 138.678 252.89 139.278 252.79C139.898 252.67 140.488 252.47 141.048 252.19C141.628 251.91 142.118 251.86 142.518 252.04C142.918 252.2 143.188 252.48 143.328 252.88C143.488 253.28 143.488 253.7 143.328 254.14C143.188 254.56 142.858 254.91 142.338 255.19C141.638 255.57 140.858 255.85 139.998 256.03C139.158 256.23 138.348 256.33 137.568 256.33ZM136.938 243.97C135.978 243.97 135.198 244.26 134.598 244.84C134.018 245.42 133.658 246.23 133.518 247.27H139.998C139.878 245.07 138.858 243.97 136.938 243.97ZM148.663 256.27C147.143 256.27 146.383 255.5 146.383 253.96V243.31C146.383 241.79 147.123 241.03 148.603 241.03C150.083 241.03 150.823 241.79 150.823 243.31V243.43C151.323 242.63 151.993 242.02 152.833 241.6C153.673 241.18 154.613 240.97 155.653 240.97C157.393 240.97 158.693 241.48 159.553 242.5C160.413 243.5 160.843 245.05 160.843 247.15V253.96C160.843 255.5 160.083 256.27 158.563 256.27C157.843 256.27 157.283 256.07 156.883 255.67C156.503 255.27 156.313 254.7 156.313 253.96V247.36C156.313 246.34 156.123 245.61 155.743 245.17C155.363 244.71 154.803 244.48 154.063 244.48C153.103 244.48 152.333 244.78 151.753 245.38C151.193 245.98 150.913 246.78 150.913 247.78V253.96C150.913 255.5 150.163 256.27 148.663 256.27ZM169.954 256.33C168.674 256.33 167.544 256.02 166.564 255.4C165.604 254.76 164.854 253.87 164.314 252.73C163.774 251.57 163.504 250.2 163.504 248.62C163.504 247.04 163.774 245.68 164.314 244.54C164.854 243.4 165.604 242.52 166.564 241.9C167.544 241.28 168.674 240.97 169.954 240.97C170.934 240.97 171.834 241.18 172.654 241.6C173.474 242.02 174.094 242.58 174.514 243.28V236.89C174.514 235.35 175.264 234.58 176.764 234.58C178.284 234.58 179.044 235.35 179.044 236.89V253.96C179.044 255.5 178.294 256.27 176.794 256.27C175.294 256.27 174.544 255.5 174.544 253.96V253.87C174.144 254.63 173.524 255.23 172.684 255.67C171.864 256.11 170.954 256.33 169.954 256.33ZM171.304 252.94C172.264 252.94 173.044 252.59 173.644 251.89C174.264 251.19 174.574 250.1 174.574 248.62C174.574 247.16 174.264 246.09 173.644 245.41C173.044 244.71 172.264 244.36 171.304 244.36C170.344 244.36 169.564 244.71 168.964 245.41C168.364 246.09 168.064 247.16 168.064 248.62C168.064 250.1 168.364 251.19 168.964 251.89C169.564 252.59 170.344 252.94 171.304 252.94Z" fill="#F0256F" />
    <path d="M38.98 69.55V67.55C38.98 50.1233 38.98 32.6867 38.98 15.24C38.98 8.99 41.69 4.24 47.33 1.57C49.5112 0.584785 51.8766 0.0735297 54.27 0.07C76.91 0 99.54 0 122.18 0C128.44 0 133.34 2.6 136 8.37C136.965 10.7173 137.458 13.232 137.45 15.77C137.63 23.37 137.52 30.97 137.52 38.57V40.57H139.52C147.11 40.57 154.71 40.69 162.31 40.57C168.71 40.44 172.47 44.76 172.31 50.66C172.16 57.58 172.31 64.51 172.31 71.43C172.31 77.63 168.74 81.2 162.51 81.21C154.86 81.21 147.21 81.21 139.56 81.21H137.5V83.51C137.5 108.39 137.5 133.267 137.5 158.14C137.5 161.82 136.83 165.31 134.5 168.25C133.052 170.114 131.182 171.608 129.043 172.607C126.905 173.607 124.559 174.084 122.2 174C99.51 174 76.82 174 54.14 174C44.98 173.93 38.98 167.67 38.98 158.52C38.98 143.067 38.98 127.61 38.98 112.15V110.15H37.14C31.2 110.15 25.27 110.15 19.34 110.15C13.58 110.15 10.02 106.55 10 100.77C10 93.53 10 86.2967 10 79.07C10 73.14 13.63 69.57 19.57 69.55H38.98ZM44.83 69.55H46.83C54.63 69.55 62.44 69.55 70.24 69.55C75.85 69.55 79.54 73.26 79.57 78.86C79.61 86.2533 79.61 93.6433 79.57 101.03C79.6123 102.733 79.1754 104.415 78.3091 105.882C77.4428 107.349 76.1819 108.544 74.67 109.33C74.4188 109.499 74.2062 109.719 74.0459 109.976C73.8857 110.232 73.7814 110.52 73.74 110.82C73.65 113.27 73.66 115.72 73.74 118.16C73.74 119.64 73.46 120.92 72 121.5C70.54 122.08 69.32 121.5 68.24 120.36C65.18 117.24 62.08 114.16 58.97 111.08C58.58 110.7 58.06 110.2 57.6 110.19C53.4 110.12 49.19 110.19 44.89 110.19V139.07H131.58C131.58 119.76 131.58 100.55 131.58 81.24C129.43 81.24 127.4 81.17 125.38 81.24C124.637 81.3012 123.935 81.6031 123.38 82.1C120.12 85.24 116.92 88.44 113.72 91.64C113.327 92.1319 112.784 92.4821 112.174 92.6373C111.564 92.7926 110.92 92.7443 110.34 92.5C109.75 92.2721 109.253 91.8524 108.93 91.3082C108.608 90.7641 108.477 90.1272 108.56 89.5C108.56 86.95 108.61 84.4 108.56 81.86C108.552 81.5788 108.484 81.3026 108.362 81.0493C108.239 80.796 108.065 80.5713 107.85 80.39C104.16 78.52 102.72 75.46 102.75 71.46C102.8 64.46 102.75 57.46 102.75 50.39C102.75 44.11 106.24 40.6 112.49 40.58C118.26 40.58 124.04 40.58 129.81 40.58H131.65V29.22H44.83V69.55ZM44.83 145.12C44.83 150.4 44.83 155.49 44.83 160.59C44.8509 161.003 44.9317 161.41 45.07 161.8C46.33 165.8 49.55 168.18 54.07 168.19C63.6367 168.19 73.21 168.19 82.79 168.19C95.8433 168.19 108.9 168.19 121.96 168.19C128.08 168.19 131.69 164.6 131.7 158.52C131.7 155.08 131.7 151.65 131.7 148.22V145.12H44.88H44.83ZM131.73 23.18C131.73 21.53 131.73 20.02 131.73 18.52C131.814 16.651 131.747 14.7782 131.53 12.92C130.71 8.48 127.16 5.92 122.21 5.86C109.41 5.86 96.61 5.86 83.81 5.86H54.15C49.83 5.86 46.59 7.86 45.38 11.58C44.17 15.3 44.99 19.26 44.77 23.17H131.77L131.73 23.18ZM114.29 82.8C116.36 80.8 118.29 79.05 119.96 77.18C120.493 76.5835 121.154 76.1152 121.893 75.8104C122.633 75.5056 123.432 75.3721 124.23 75.42C137.03 75.42 149.83 75.42 162.63 75.42C165.4 75.42 166.43 74.42 166.43 71.68C166.43 64.44 166.43 57.2033 166.43 49.97C166.43 47.49 165.37 46.39 162.96 46.39C145.993 46.39 129.027 46.39 112.06 46.39C109.7 46.39 108.59 47.48 108.58 49.82C108.58 57.2067 108.58 64.5967 108.58 71.99C108.58 74.18 109.39 75.06 111.58 75.44C111.958 75.4481 112.33 75.5337 112.673 75.6914C113.016 75.8491 113.323 76.0756 113.575 76.3568C113.828 76.638 114.019 76.968 114.139 77.3263C114.258 77.6847 114.303 78.0637 114.27 78.44C114.27 79.78 114.27 81.12 114.27 82.75L114.29 82.8ZM67.62 111.59L67.97 111.4C67.97 110.16 67.97 108.92 67.97 107.68C68.03 105.68 68.74 104.88 70.67 104.45C73.06 103.91 73.67 103.15 73.67 100.67C73.67 93.5433 73.67 86.4133 73.67 79.28C73.67 76.35 72.78 75.45 69.88 75.44H19.64C16.73 75.44 15.84 76.34 15.83 79.26C15.83 86.24 15.83 93.2167 15.83 100.19C15.83 103.54 16.72 104.42 20.09 104.42C32.79 104.42 45.48 104.42 58.18 104.42C58.9298 104.376 59.6798 104.503 60.3729 104.793C61.0661 105.082 61.6841 105.526 62.18 106.09C63.93 107.99 65.81 109.77 67.64 111.61" fill="#FD7CAE" />
    <line x1="120.092" y1="55.9082" x2="154.908" y2="55.9082" stroke="url(#paint0_linear)" stroke-width="6.1835" stroke-linecap="round" />
    <line x1="27.0918" y1="83.9082" x2="61.9082" y2="83.9082" stroke="url(#paint1_linear)" stroke-width="6.1835" stroke-linecap="round" />
    <line x1="120.092" y1="66.9082" x2="141.908" y2="66.9082" stroke="url(#paint2_linear)" stroke-width="6.1835" stroke-linecap="round" />
    <line x1="27.0918" y1="95.9082" x2="48.9082" y2="95.9082" stroke="url(#paint3_linear)" stroke-width="6.1835" stroke-linecap="round" />
    <circle cx="89" cy="15" r="4" fill="url(#paint4_linear)" />
    <circle cx="89" cy="156" r="5.5" stroke="url(#paint5_linear)" stroke-width="5" />
    <defs>
        <linearGradient id="paint0_linear" x1="117" y1="59.5" x2="158" y2="59.5" gradientUnits="userSpaceOnUse">
            <stop offset="0.489583" stop-color="#F0256F" />
            <stop offset="1" stop-color="#B12170" />
        </linearGradient>
        <linearGradient id="paint1_linear" x1="24" y1="87.5" x2="65" y2="87.5" gradientUnits="userSpaceOnUse">
            <stop offset="0.489583" stop-color="#F0256F" />
            <stop offset="1" stop-color="#B12170" />
        </linearGradient>
        <linearGradient id="paint2_linear" x1="117" y1="70.5" x2="145" y2="70.5" gradientUnits="userSpaceOnUse">
            <stop offset="0.489583" stop-color="#F0256F" />
            <stop offset="1" stop-color="#B12170" />
        </linearGradient>
        <linearGradient id="paint3_linear" x1="24" y1="99.5" x2="52" y2="99.5" gradientUnits="userSpaceOnUse">
            <stop offset="0.489583" stop-color="#F0256F" />
            <stop offset="1" stop-color="#B12170" />
        </linearGradient>
        <linearGradient id="paint4_linear" x1="85" y1="15" x2="93" y2="15" gradientUnits="userSpaceOnUse">
            <stop offset="0.489583" stop-color="#F0256F" />
            <stop offset="1" stop-color="#B12170" />
        </linearGradient>
        <linearGradient id="paint5_linear" x1="81" y1="156" x2="97" y2="156" gradientUnits="userSpaceOnUse">
            <stop offset="0.489583" stop-color="#F0256F" />
            <stop offset="1" stop-color="#B12170" />
        </linearGradient>
    </defs>
</svg>
