<svg width="110" height="24" viewBox="0 0 110 24" fill="none" xmlns="http://www.w3.org/2000/svg">
    <path d="M5.86588 15.9034C6.23043 15.9034 6.57841 15.895 6.90981 15.8783C7.06669 15.8703 7.20872 15.8605 7.33589 15.8488C7.54979 15.8292 7.70519 15.6437 7.70519 15.4266V13.3198C7.70519 13.1116 7.56187 12.9321 7.35791 12.9034C7.26204 12.8899 7.1541 12.8764 7.03409 12.8629C6.73582 12.8294 6.46241 12.8127 6.21386 12.8127C5.86588 12.8127 5.53448 12.8378 5.21964 12.8881C4.92138 12.9216 4.65625 12.997 4.42427 13.1142C4.19228 13.2315 4.01001 13.3906 3.87745 13.5917C3.74489 13.7927 3.67861 14.0439 3.67861 14.3455C3.67861 14.9318 3.86916 15.3422 4.25028 15.5767C4.64797 15.7945 5.1865 15.9034 5.86588 15.9034ZM5.56762 4.94775C6.66126 4.94775 7.57262 5.07339 8.30172 5.32467C9.03081 5.57594 9.61077 5.93611 10.0416 6.40516C10.489 6.8742 10.8038 7.44376 10.9861 8.11383C11.1684 8.7839 11.2595 9.52935 11.2595 10.3502V17.7822C11.2595 17.991 11.116 18.1718 10.9135 18.2127C10.4235 18.3117 9.80143 18.4214 9.04738 18.5418C8.10287 18.7093 6.95952 18.7931 5.61733 18.7931C4.77224 18.7931 4.00173 18.7177 3.30577 18.5669C2.62639 18.4162 2.03815 18.1733 1.54104 17.8382C1.04393 17.4864 0.662812 17.0341 0.397687 16.4813C0.132562 15.9285 0 15.2501 0 14.446C0 13.6754 0.149133 13.0221 0.447398 12.486C0.762234 11.95 1.17649 11.5228 1.69017 11.2045C2.20385 10.8862 2.79209 10.6601 3.45491 10.5261C4.11772 10.3753 4.80539 10.2999 5.51791 10.2999C5.99845 10.2999 6.42099 10.3251 6.78554 10.3753C7.00332 10.3945 7.19675 10.4191 7.36583 10.4492C7.53758 10.4797 7.70519 10.3506 7.70519 10.1743C7.70519 9.53773 7.51463 9.0268 7.13351 8.64151C6.75239 8.25622 6.08958 8.06358 5.14508 8.06358C4.51541 8.06358 3.89402 8.11383 3.28092 8.21434C2.88671 8.2682 2.52675 8.33937 2.20105 8.42785C1.93325 8.5006 1.6497 8.33287 1.60634 8.05598L1.27753 5.95659C1.24333 5.7382 1.37315 5.52711 1.58538 5.47365C1.71602 5.44074 1.85866 5.40783 2.01329 5.37492C2.3447 5.29117 2.70096 5.22416 3.08207 5.1739C3.46319 5.1069 3.86088 5.05664 4.27514 5.02314C4.70596 4.97288 5.13679 4.94775 5.56762 4.94775Z" fill="black" />
    <path d="M26.3074 8.16133C26.2575 8.40931 26.0132 8.56496 25.7686 8.51106C25.5479 8.46241 25.3075 8.41376 25.0477 8.36511C24.6003 8.2646 24.1197 8.21434 23.6061 8.21434C23.3741 8.21434 23.0924 8.23947 22.761 8.28973C22.6098 8.30581 22.4758 8.32383 22.359 8.34378C22.1677 8.37646 22.0402 8.54969 22.0402 8.74583V18.0725C22.0402 18.3178 21.8435 18.5167 21.6008 18.5167H18.7761C18.5334 18.5167 18.3367 18.3178 18.3367 18.0725V6.31824C18.3367 6.12949 18.4545 5.96082 18.632 5.90228C19.2275 5.70587 19.9079 5.52171 20.6731 5.34979C21.5845 5.13202 22.5953 5.02314 23.7055 5.02314C23.9043 5.02314 24.1446 5.03989 24.4263 5.07339C24.708 5.09014 24.9897 5.12365 25.2714 5.1739C25.5531 5.20741 25.8348 5.25766 26.1165 5.32467C26.2523 5.34891 26.3786 5.37704 26.4951 5.40907C26.6977 5.46473 26.8071 5.67567 26.7653 5.88366L26.3074 8.16133Z" fill="black" />
    <path d="M40.5216 8.16133C40.4717 8.40931 40.2274 8.56496 39.9828 8.51106C39.7621 8.46241 39.5218 8.41376 39.2619 8.36511C38.8145 8.2646 38.3339 8.21434 37.8203 8.21434C37.5883 8.21434 37.3066 8.23947 36.9752 8.28973C36.824 8.30581 36.69 8.32383 36.5732 8.34378C36.3819 8.37646 36.2544 8.54969 36.2544 8.74583V18.0725C36.2544 18.3178 36.0577 18.5167 35.815 18.5167H32.9903C32.7476 18.5167 32.5509 18.3178 32.5509 18.0725V6.31824C32.5509 6.12949 32.6687 5.96082 32.8462 5.90228C33.4417 5.70587 34.1221 5.52171 34.8873 5.34979C35.7987 5.13202 36.8095 5.02314 37.9197 5.02314C38.1185 5.02314 38.3588 5.03989 38.6405 5.07339C38.9222 5.09014 39.2039 5.12365 39.4856 5.1739C39.7673 5.20741 40.049 5.25766 40.3307 5.32467C40.4665 5.34891 40.5928 5.37704 40.7093 5.40907C40.9119 5.46473 41.0213 5.67567 40.9795 5.88366L40.5216 8.16133Z" fill="black" />
    <path d="M58.7513 11.883C58.7513 12.9216 58.6021 13.8764 58.3039 14.7475C58.0056 15.6019 57.5748 16.3389 57.0114 16.9587C56.448 17.5618 55.7686 18.0309 54.9732 18.3659C54.1944 18.7009 53.3162 18.8684 52.3386 18.8684C51.3775 18.8684 50.4993 18.7009 49.7039 18.3659C48.9251 18.0309 48.254 17.5618 47.6906 16.9587C47.1272 16.3389 46.6881 15.6019 46.3733 14.7475C46.0584 13.8764 45.901 12.9216 45.901 11.883C45.901 10.8444 46.0584 9.89789 46.3733 9.04355C46.7047 8.18921 47.1521 7.46051 47.7155 6.85745C48.2954 6.25439 48.9748 5.78534 49.7536 5.45031C50.549 5.11527 51.4106 4.94775 52.3386 4.94775C53.2831 4.94775 54.1447 5.11527 54.9235 5.45031C55.7189 5.78534 56.3983 6.25439 56.9617 6.85745C57.5251 7.46051 57.9642 8.18921 58.279 9.04355C58.5939 9.89789 58.7513 10.8444 58.7513 11.883ZM54.9732 11.883C54.9732 10.7271 54.7413 9.82251 54.2773 9.16919C53.8299 8.49912 53.1837 8.16409 52.3386 8.16409C51.4935 8.16409 50.839 8.49912 50.375 9.16919C49.911 9.82251 49.679 10.7271 49.679 11.883C49.679 13.0388 49.911 13.9602 50.375 14.647C50.839 15.3171 51.4935 15.6521 52.3386 15.6521C53.1837 15.6521 53.8299 15.3171 54.2773 14.647C54.7413 13.9602 54.9732 13.0388 54.9732 11.883Z" fill="black" />
    <path d="M73.4538 12.5554C73.3292 12.1166 72.6946 12.1172 72.5722 12.5566C72.3703 13.2813 72.1603 14.0032 71.9421 14.7224C71.6068 15.8782 71.2504 17.0411 70.8729 18.2111C70.8141 18.3935 70.6457 18.5167 70.4559 18.5167H68.1804C68.0046 18.5167 67.8456 18.4109 67.7778 18.2469C67.5114 17.6019 67.2259 16.8542 66.9213 16.0039C66.5733 15.0323 66.2088 13.9769 65.8277 12.8378C65.4631 11.682 65.082 10.4675 64.6843 9.19432C64.3582 8.09038 64.038 6.98031 63.724 5.8641C63.6443 5.58087 63.855 5.29954 64.1463 5.29954H67.1157C67.3216 5.29954 67.5 5.44411 67.5441 5.64745C67.6542 6.15459 67.7697 6.70032 67.8907 7.28462C68.0564 7.98819 68.2221 8.71689 68.3878 9.47072C68.5701 10.2246 68.7523 10.9868 68.9346 11.7573C68.998 11.9978 69.0615 12.2357 69.1249 12.4711C69.2405 12.9001 69.8283 12.902 69.9439 12.473C70.0144 12.2113 70.084 11.9476 70.1525 11.682C70.3679 10.9114 70.5668 10.1575 70.7491 9.42047C70.9479 8.66664 71.1302 7.94632 71.2959 7.25949C71.4437 6.68896 71.5752 6.15147 71.6903 5.64702C71.7366 5.44417 71.9146 5.29954 72.1206 5.29954H74.1001C74.306 5.29954 74.4842 5.44414 74.5295 5.64722C74.6421 6.1516 74.7656 6.68903 74.8999 7.25949C75.0656 7.94632 75.2396 8.66664 75.4219 9.42047C75.6042 10.1575 75.7947 10.9114 75.9936 11.682C76.0621 11.9476 76.1317 12.2113 76.2022 12.473C76.3178 12.902 76.9056 12.9001 77.0212 12.4711C77.0846 12.2357 77.148 11.9978 77.2115 11.7573C77.4103 10.9868 77.5926 10.2246 77.7583 9.47072C77.9406 8.71689 78.1063 7.98819 78.2554 7.28462C78.3898 6.70025 78.5134 6.15446 78.626 5.64726C78.6711 5.44414 78.8493 5.29954 79.0552 5.29954H81.975C82.2663 5.29954 82.4769 5.58087 82.3968 5.86397C82.0807 6.98022 81.7524 8.09034 81.412 9.19432C81.0309 10.4675 80.6498 11.682 80.2687 12.8378C79.9042 13.9769 79.5396 15.0323 79.1751 16.0039C78.8705 16.8542 78.585 17.6019 78.3186 18.2469C78.2508 18.4109 78.0917 18.5167 77.916 18.5167H75.6405C75.4507 18.5167 75.2824 18.3935 75.2232 18.2112C74.8433 17.0412 74.4704 15.8783 74.1045 14.7224C73.8768 14.0028 73.6599 13.2805 73.4538 12.5554Z" fill="black" />
    <path d="M109.795 11.9444L103.71 22.7831C103.58 23.0148 103.337 23.158 103.073 23.158H91.4609C90.8963 23.158 90.5441 22.5393 90.8278 22.0458L102.859 1.11456C103.143 0.620541 103.85 0.624172 104.129 1.12108L109.795 11.2136C109.922 11.4402 109.922 11.7178 109.795 11.9444Z" fill="#F0256F" />
    <path d="M109.795 11.9444L103.71 22.7831C103.58 23.0148 103.337 23.158 103.073 23.158H91.4609C90.8963 23.158 90.5441 22.5393 90.8278 22.0458L102.859 1.11456C103.143 0.620541 103.85 0.624172 104.129 1.12108L109.795 11.2136C109.922 11.4402 109.922 11.7178 109.795 11.9444Z" fill="url(#paint0_linear)" />
    <path d="M109.795 11.9444L103.71 22.7831C103.58 23.0148 103.337 23.158 103.073 23.158H91.4609C90.8963 23.158 90.5441 22.5393 90.8278 22.0458L102.859 1.11456C103.143 0.620541 103.85 0.624172 104.129 1.12108L109.795 11.2136C109.922 11.4402 109.922 11.7178 109.795 11.9444Z" fill="url(#paint1_linear)" />
    <path d="M109.795 11.2135L103.71 0.37487C103.58 0.143165 103.337 0 103.073 0H91.4609C90.8963 0 90.5441 0.618686 90.8278 1.1122L102.859 22.0434C103.143 22.5374 103.85 22.5338 104.129 22.0369L109.795 11.9443C109.922 11.7177 109.922 11.4402 109.795 11.2135Z" fill="#F0256F" />
    <defs>
        <linearGradient id="paint0_linear" x1="100.094" y1="23.158" x2="99.5709" y2="0.348351" gradientUnits="userSpaceOnUse">
            <stop stop-color="#F0256F" />
            <stop offset="1" stop-color="#551A2F" />
        </linearGradient>
        <linearGradient id="paint1_linear" x1="100.094" y1="23.158" x2="99.5709" y2="0.348351" gradientUnits="userSpaceOnUse">
            <stop stop-color="#F0256F" />
            <stop offset="1" stop-color="#551A2F" />
        </linearGradient>
    </defs>
</svg>
