<svg width="31" height="31" viewBox="0 0 32 32" fill="none" xmlns="http://www.w3.org/2000/svg">
    <path fill-rule="evenodd" clip-rule="evenodd" d="M8.7028 2.46381C5.15897 2.46381 2.28613 5.33665 2.28613 8.88047V23.4638C2.28613 27.0076 5.15897 29.8805 8.7028 29.8805H23.2861C26.83 29.8805 29.7028 27.0076 29.7028 23.4638V8.88047C29.7028 5.33665 26.83 2.46381 23.2861 2.46381H8.7028ZM0.536133 8.88047C0.536133 4.37015 4.19247 0.713806 8.7028 0.713806H23.2861C27.7965 0.713806 31.4528 4.37015 31.4528 8.88047V23.4638C31.4528 27.9741 27.7965 31.6305 23.2861 31.6305H8.7028C4.19247 31.6305 0.536133 27.9741 0.536133 23.4638V8.88047Z" fill="white"/>
    <path fill-rule="evenodd" clip-rule="evenodd" d="M16.7843 11.2048C15.7526 11.0518 14.699 11.228 13.7733 11.7083C12.8476 12.1887 12.0969 12.9487 11.628 13.8802C11.1591 14.8118 10.9959 15.8675 11.1616 16.8972C11.3273 17.9269 11.8134 18.8781 12.5509 19.6155C13.2884 20.353 14.2396 20.8391 15.2692 21.0048C16.2989 21.1705 17.3546 21.0073 18.2862 20.5384C19.2178 20.0695 19.9778 19.3188 20.4581 18.3931C20.9384 17.4674 21.1147 16.4138 20.9617 15.3822C20.8056 14.3298 20.3153 13.3556 19.563 12.6034C18.8108 11.8512 17.8366 11.3608 16.7843 11.2048ZM12.9673 10.155C14.2198 9.50512 15.6452 9.26672 17.041 9.47369C18.4647 9.68481 19.7828 10.3482 20.8005 11.366C21.8182 12.3837 22.4816 13.7017 22.6927 15.1255C22.8997 16.5212 22.6613 17.9467 22.0114 19.1991C21.3616 20.4516 20.3333 21.4672 19.073 22.1016C17.8126 22.736 16.3843 22.9568 14.9912 22.7326C13.5981 22.5084 12.3112 21.8507 11.3135 20.853C10.3157 19.8552 9.65801 18.5683 9.43384 17.1752C9.20967 15.7821 9.43048 14.3538 10.0649 13.0935C10.6992 11.8331 11.7149 10.8049 12.9673 10.155Z" fill="white"/>
    <path fill-rule="evenodd" clip-rule="evenodd" d="M23.2861 7.42299C23.2861 6.61758 23.9337 5.96466 24.7324 5.96466H24.7565C25.5553 5.96466 26.2028 6.61758 26.2028 7.42299C26.2028 8.22841 25.5553 8.88133 24.7565 8.88133H24.7324C23.9337 8.88133 23.2861 8.22841 23.2861 7.42299Z" fill="white"/>
    </svg>
